<svg version="1.1" xmlns="http://www.w3.org/2000/svg" xmlns:xlink="http://www.w3.org/1999/xlink" width="587" height="478.03648" viewBox="0,0,587,478.03648"><g transform="translate(60.75945,-7.76353)"><g data-paper-data="{&quot;isPaintingLayer&quot;:true}" fill-rule="nonzero" stroke-linecap="butt" stroke-linejoin="miter" stroke-miterlimit="10" stroke-dasharray="" stroke-dashoffset="0" style="mix-blend-mode: normal"><path d="M37,403.99996v-70h10v70z" data-paper-data="{&quot;origPos&quot;:null}" fill="#cccccc" stroke="#000000" stroke-width="1.5"/><path d="M85,372.21666v-67h9v67z" fill="#cccccc" stroke="#000000" stroke-width="1.5"/><path d="M134,367.21666v-103h10v103z" fill="#cccccc" stroke="#000000" stroke-width="1.5"/><path d="M179,365.21666v-161h10v161z" fill="#cccccc" stroke="#000000" stroke-width="1.5"/><path d="M225,365.21666v-212h10v212z" fill="#cccccc" stroke="#000000" stroke-width="1.5"/><path d="M262,387.21666v-261h12v261z" fill="#cccccc" stroke="#000000" stroke-width="1.5"/><path d="M301,380.21666v-233h15v233z" fill="#cccccc" stroke="#000000" stroke-width="1.5"/><path d="M346,419.21666v-212h15v212z" data-paper-data="{&quot;origPos&quot;:null}" fill="#cccccc" stroke="#000000" stroke-width="1.5"/><path d="M394,439.21666v-176h12v176z" data-paper-data="{&quot;origPos&quot;:null}" fill="#cccccc" stroke="#000000" stroke-width="1.5"/><path d="M430,394.21666v-89h12v89z" data-paper-data="{&quot;origPos&quot;:null}" fill="#cccccc" stroke="#000000" stroke-width="1.5"/><path d="M465,382.21666v-55h10v55z" fill="#cccccc" stroke="#000000" stroke-width="1.5"/><text transform="translate(19,29.21666) scale(0.5,0.5)" font-size="40" xml:space="preserve" data-paper-data="{&quot;origPos&quot;:null}" fill="#000000" fill-rule="nonzero" stroke="none" stroke-width="1" stroke-linecap="butt" stroke-linejoin="miter" stroke-miterlimit="10" stroke-dasharray="" stroke-dashoffset="0" font-family="Sans Serif" font-weight="normal" text-anchor="start" style="mix-blend-mode: normal"><tspan x="0" dy="0">Stealthy As A Cat!</tspan></text><path d="M-60.75945,485.80001v-141h587v141z" fill="#00ff6b" stroke="none" stroke-width="0"/></g></g></svg>