<svg version="1.1" xmlns="http://www.w3.org/2000/svg" xmlns:xlink="http://www.w3.org/1999/xlink" width="69.87997" height="94.43236" viewBox="0,0,69.87997,94.43236"><g transform="translate(-205.06001,-132.78382)"><g data-paper-data="{&quot;isPaintingLayer&quot;:true}" fill-rule="nonzero" stroke-linejoin="miter" stroke-miterlimit="10" stroke-dasharray="" stroke-dashoffset="0" style="mix-blend-mode: normal"><path d="M205.06002,132.78382h69.87997v94.43236h-69.87997z" fill="#ffffff" stroke="none" stroke-width="0.87838" stroke-linecap="butt"/><path d="M207.5,136.0811h65v87.8378h-65z" fill="#cccccc" stroke="none" stroke-width="0.87838" stroke-linecap="butt"/><path d="M218.871,183.3236v-41.1704h41.1703v41.1704z" fill="#000000" stroke="#ffffff" stroke-width="0.5" stroke-linecap="butt"/><path d="M234.0191,150.5417l0.996,3.3201" fill="none" stroke="#000000" stroke-width="0.5" stroke-linecap="round"/><path d="M219.8107,151.1463h6.4799" fill="none" stroke="#ffffff" stroke-width="0.5" stroke-linecap="round"/><path d="M258.4081,148.6107l-2.5356,-0.5635l-7.3251,0.2818l-4.2259,4.226l0.2817,7.325l-7.6068,-0.2817v-8.7337v-6.4798" fill="none" stroke="#ffffff" stroke-width="0.5" stroke-linecap="round"/><path d="M227.981,159.88v8.1703h8.7337h10.4241v7.0433l4.226,6.7616" fill="none" stroke="#ffffff" stroke-width="0.5" stroke-linecap="round"/><path d="M231.9252,175.0936l0.2818,-6.1981" fill="none" stroke="#ffffff" stroke-width="0.5" stroke-linecap="round"/><path d="M241.2224,183.2638v-5.9164" fill="none" stroke="#ffffff" stroke-width="0.5" stroke-linecap="round"/><path d="M247.984,168.332l5.6346,-3.9443" fill="none" stroke="#ffffff" stroke-width="0.5" stroke-linecap="round"/><path d="M244.32146,181.85514v-3.3808h3.3808v3.3808z" fill="#31ff00" stroke="#ffffff" stroke-width="0" stroke-linecap="butt"/><text transform="translate(222.12189,196.07667) scale(0.3007,0.3007)" font-size="40" xml:space="preserve" fill="#ffffff" fill-rule="nonzero" stroke="none" stroke-width="1" stroke-linecap="butt" stroke-linejoin="miter" stroke-miterlimit="10" stroke-dasharray="" stroke-dashoffset="0" font-family="Sans Serif" font-weight="normal" text-anchor="start" style="mix-blend-mode: normal"><tspan x="0" dy="0">maze</tspan></text><path d="M214.24756,220.32554v-14.77272h46.31447v14.77272z" fill="#03c300" stroke="none" stroke-width="0" stroke-linecap="butt"/><text transform="translate(215.42814,217.91229) scale(0.3759,0.3759)" font-size="40" xml:space="preserve" fill="#ffffff" fill-rule="nonzero" stroke="none" stroke-width="1" stroke-linecap="butt" stroke-linejoin="miter" stroke-miterlimit="10" stroke-dasharray="" stroke-dashoffset="0" font-family="Sans Serif" font-weight="normal" text-anchor="start" style="mix-blend-mode: normal"><tspan x="0" dy="0">Install</tspan></text></g></g></svg>