<svg version="1.1" xmlns="http://www.w3.org/2000/svg" xmlns:xlink="http://www.w3.org/1999/xlink" width="36.23388" height="44.44429" viewBox="0,0,36.23388,44.44429"><g transform="translate(-221.25696,-156.10377)"><g data-paper-data="{&quot;isPaintingLayer&quot;:true}" fill-rule="nonzero" stroke-linecap="butt" stroke-linejoin="miter" stroke-miterlimit="10" stroke-dasharray="" stroke-dashoffset="0" style="mix-blend-mode: normal"><path d="M231.27131,173.27229c0,-4.92999 3.99656,-8.92655 8.92657,-8.92655c4.92999,0 8.92655,3.99656 8.92655,8.92655c0,4.92999 -3.99656,8.92655 -8.92655,8.92655c-4.92999,0 -8.92657,-3.99656 -8.92657,-8.92655z" fill="#ffffff" stroke="none" stroke-width="0"/><path d="M236.77319,173.27229c0,-1.8914 1.53328,-3.42467 3.42467,-3.42467c1.8914,0 3.42469,1.53327 3.42469,3.42467c0,1.8914 -1.5333,3.42467 -3.42469,3.42467c-1.8914,0 -3.42467,-1.53327 -3.42467,-3.42467z" fill="#000000" stroke="#ffffff" stroke-width="0"/><g fill="#000000" stroke="none" stroke-width="0"><path d="M226.78524,173.1922c0,-7.31421 5.92933,-13.24353 13.24353,-13.24353c7.31421,0 13.24354,5.92933 13.24354,13.24353c0,7.31421 -5.92935,13.24353 -13.24354,13.24353c-7.31421,0 -13.24353,-5.92933 -13.24353,-13.24353zM240.31358,179.6849c3.42854,0 6.20792,-2.77936 6.20792,-6.2079c0,-3.42854 -2.77938,-6.2079 -6.20792,-6.2079c-3.42854,0 -6.2079,2.77936 -6.2079,6.2079c0,3.42854 2.77936,6.2079 6.2079,6.2079z"/><g><path d="M236.04147,160.51829c0,-2.43805 1.97645,-4.41452 4.41452,-4.41452c2.43805,0 4.41452,1.97645 4.41452,4.41452c0,2.43805 -1.97645,4.41452 -4.41452,4.41452c-2.43805,0 -4.41452,-1.97645 -4.41452,-4.41452z"/><path d="M236.04147,167.06886v-6.26576h8.82902v6.26576z"/></g><path d="M240.04657,160.10887c7.31421,0 13.24353,5.92933 13.24353,13.24353c0,7.31421 -5.92933,13.24353 -13.24353,13.24353c-7.31421,0 -13.24354,-5.92933 -13.24354,-13.24353c0,-7.31421 5.92935,-13.24353 13.24354,-13.24353zM234.12347,173.0676c0,3.42854 2.77936,6.2079 6.2079,6.2079c3.42854,0 6.2079,-2.77936 6.2079,-6.2079c0,-3.42854 -2.77936,-6.2079 -6.2079,-6.2079c-3.42854,0 -6.2079,2.77936 -6.2079,6.2079z" data-paper-data="{&quot;index&quot;:null}"/><g data-paper-data="{&quot;index&quot;:null}"><path d="M240.4738,181.61181c2.43805,0 4.41449,1.97645 4.41449,4.41452c0,2.43805 -1.97645,4.41449 -4.41449,4.41449c-2.43805,0 -4.41452,-1.97645 -4.41452,-4.41449c0,-2.43805 1.97645,-4.41452 4.41452,-4.41452z"/><path d="M244.88829,179.47576v6.26574h-8.82904v-6.26574z"/></g><path d="M253.3613,172.9964c0,7.31421 -5.92933,13.24353 -13.24353,13.24353c-7.31421,0 -13.24353,-5.92933 -13.24353,-13.24353c0,-7.31421 5.92933,-13.24353 13.24353,-13.24353c7.31421,0 13.24353,5.92933 13.24353,13.24353zM240.4026,167.0733c-3.42854,0 -6.2079,2.77936 -6.2079,6.2079c0,3.42854 2.77936,6.2079 6.2079,6.2079c3.42854,0 6.20792,-2.77936 6.20792,-6.2079c0,-3.42854 -2.77938,-6.2079 -6.20792,-6.2079z" data-paper-data="{&quot;index&quot;:null}"/><g data-paper-data="{&quot;index&quot;:null}"><path d="M231.85837,173.42359c0,2.43805 -1.97645,4.41452 -4.41452,4.41452c-2.43805,0 -4.41452,-1.97645 -4.41452,-4.41452c0,-2.43805 1.97645,-4.41452 4.41452,-4.41452c2.43805,0 4.41452,1.97645 4.41452,4.41452z"/><path d="M233.99443,177.83811h-6.26574v-8.82904h6.26574z"/></g><path d="M240.27799,159.77067c7.31421,0 13.24353,5.92933 13.24353,13.24353c0,7.31421 -5.92933,13.24353 -13.24353,13.24353c-7.31421,0 -13.24353,-5.92933 -13.24353,-13.24353c0,-7.31421 5.92933,-13.24353 13.24353,-13.24353zM233.78526,173.29899c0,3.42854 2.77936,6.2079 6.2079,6.2079c3.42854,0 6.2079,-2.77936 6.2079,-6.2079c0,-3.42854 -2.77936,-6.2079 -6.2079,-6.2079c-3.42854,0 -6.2079,2.77936 -6.2079,6.2079z" data-paper-data="{&quot;index&quot;:null}"/><g data-paper-data="{&quot;index&quot;:null}"><path d="M252.95189,169.0269c2.43805,0 4.41449,1.97645 4.41452,4.41452c0,2.43805 -1.97645,4.4145 -4.41452,4.41452c-2.43805,0 -4.41452,-1.97645 -4.41452,-4.41452c0,-2.43805 1.97645,-4.41452 4.41452,-4.41452z"/><path d="M246.40134,169.0269h6.26574v8.82902h-6.26576z"/></g><path d="M230.50334,163.89171c5.17193,-5.17193 13.55727,-5.17193 18.72918,0c5.17193,5.17193 5.17193,13.55725 0,18.72918c-5.17193,5.17193 -13.55727,5.17193 -18.72918,0c-5.17193,-5.17193 -5.17193,-13.55725 0,-18.72918zM235.47828,178.04872c2.42435,2.42435 6.35496,2.42435 8.77929,0c2.42435,-2.42435 2.42435,-6.35496 0,-8.77929c-2.42435,-2.42435 -6.35496,-2.42435 -8.77929,0c-2.42435,2.42435 -2.42435,6.35496 0,8.77929z"/><g><path d="M246.0103,161.47502c1.72399,-1.72399 4.51908,-1.72399 6.24307,0c1.72399,1.72399 1.72399,4.51908 0,6.24304c-1.72399,1.72399 -4.51908,1.72399 -6.24307,0c-1.72399,-1.72399 -1.72399,-4.51908 0,-6.24306z"/><path d="M241.37835,166.10697l4.43055,-4.43055l6.24306,6.24307l-4.43055,4.43055z"/></g><path d="M249.13183,164.01756c5.17193,5.17193 5.17193,13.55727 0,18.72918c-5.17193,5.17193 -13.55725,5.17193 -18.72918,0c-5.17193,-5.17193 -5.17193,-13.55727 0,-18.72918c5.17193,-5.17193 13.55725,-5.17193 18.72918,0zM235.78036,168.9925c-2.42435,2.42435 -2.42435,6.35496 0,8.77929c2.42435,2.42435 6.35496,2.42435 8.77929,0c2.42435,-2.42435 2.42435,-6.35496 0,-8.77929c-2.42435,-2.42435 -6.35496,-2.42435 -8.77929,0z" data-paper-data="{&quot;index&quot;:null}"/><g data-paper-data="{&quot;index&quot;:null}"><path d="M234.22905,179.52452c1.72399,1.72399 1.72399,4.51908 0,6.24307c-1.72399,1.72399 -4.51908,1.72399 -6.24306,0c-1.72399,-1.72399 -1.72399,-4.51908 0,-6.24307c1.72399,-1.72399 4.51908,-1.72399 6.24307,0z"/><path d="M238.861,181.13564l-4.43055,4.43055l-6.24306,-6.24307l4.43055,-4.43055z"/></g><path d="M249.43392,182.54537c-5.17193,5.17193 -13.55725,5.17193 -18.72918,0c-5.17193,-5.17193 -5.17193,-13.55727 0,-18.72918c5.17193,-5.17193 13.55725,-5.17193 18.72918,0c5.17193,5.17193 5.17193,13.55727 0,18.72918zM244.45898,169.19388c-2.42435,-2.42435 -6.35496,-2.42435 -8.77931,0c-2.42435,2.42435 -2.42435,6.35496 0,8.77929c2.42435,2.42435 6.35496,2.42435 8.77931,0c2.42435,-2.42435 2.42435,-6.35496 0,-8.77929z" data-paper-data="{&quot;index&quot;:null}"/><g data-paper-data="{&quot;index&quot;:null}"><path d="M233.92697,167.64257c-1.72399,1.72399 -4.51908,1.72399 -6.24307,0c-1.72399,-1.72399 -1.72399,-4.51908 0,-6.24304c1.72399,-1.72399 4.51908,-1.72399 6.24307,0c1.72399,1.72399 1.72399,4.5191 0,6.24307z"/><path d="M232.31586,172.27452l-4.43055,-4.43055l6.24306,-6.24307l4.43055,4.43055z"/></g><path d="M249.53462,163.94206c5.17193,5.17193 5.17193,13.55727 0,18.72918c-5.17193,5.17193 -13.55727,5.17193 -18.72918,0c-5.17193,-5.17193 -5.17193,-13.55727 0,-18.72918c5.17193,-5.17193 13.55727,-5.17193 18.72918,0zM235.3776,168.91699c-2.42435,2.42435 -2.42435,6.35496 0,8.77931c2.42435,2.42435 6.35496,2.42435 8.77929,0c2.42435,-2.42435 2.42435,-6.35496 0,-8.77931c-2.42435,-2.42435 -6.35496,-2.42435 -8.77929,0z" data-paper-data="{&quot;index&quot;:null}"/><g data-paper-data="{&quot;index&quot;:null}"><path d="M251.95129,179.44901c1.72399,1.72399 1.72399,4.51908 0,6.24307c-1.72399,1.72399 -4.5191,1.72399 -6.24306,0c-1.72399,-1.72399 -1.72399,-4.51908 0,-6.24307c1.72399,-1.72399 4.5191,-1.72399 6.24307,0z"/><path d="M247.31934,174.81705l4.43055,4.43055l-6.24307,6.24306l-4.43055,-4.43055z"/></g></g><text transform="translate(221.37179,197.6772) scale(0.22967,0.22967)" font-size="40" xml:space="preserve" fill="#ffffff" fill-rule="nonzero" stroke="none" stroke-width="1" stroke-linecap="butt" stroke-linejoin="miter" stroke-miterlimit="10" stroke-dasharray="" stroke-dashoffset="0" font-family="Sans Serif" font-weight="normal" text-anchor="start" style="mix-blend-mode: normal"><tspan x="0" dy="0">Settings</tspan></text></g></g></svg>