<svg version="1.1" xmlns="http://www.w3.org/2000/svg" xmlns:xlink="http://www.w3.org/1999/xlink" width="69.87997" height="94.43236" viewBox="0,0,69.87997,94.43236"><g transform="translate(-205.06001,-132.78382)"><g data-paper-data="{&quot;isPaintingLayer&quot;:true}" fill-rule="nonzero" stroke="none" stroke-linecap="butt" stroke-linejoin="miter" stroke-miterlimit="10" stroke-dasharray="" stroke-dashoffset="0" style="mix-blend-mode: normal"><path d="M205.06002,132.78382h69.87997v94.43236h-69.87997z" fill="#ffffff" stroke-width="0.87838"/><path d="M207.5,136.0811h65v87.8378h-65z" fill="#cccccc" stroke-width="0.87838"/><text transform="translate(210.82005,212.41775) scale(0.65392,0.65392)" font-size="22" xml:space="preserve" fill="#ffffff" fill-rule="nonzero" stroke="none" stroke-width="1" stroke-linecap="butt" stroke-linejoin="miter" stroke-miterlimit="10" stroke-dasharray="" stroke-dashoffset="0" font-family="Sans Serif" font-weight="400" text-anchor="start" style="mix-blend-mode: normal"><tspan x="0" dy="0">Installed</tspan></text><path d="M262.15871,166.89869c0,12.1584 -9.33756,22.01472 -20.85605,22.01472c-11.51848,0 -20.85605,-9.85632 -20.85605,-22.01472c0,-12.1584 9.33757,-22.01473 20.85605,-22.01473c11.51848,0 20.85605,9.85633 20.85605,22.01473z" fill="#d4aa00" stroke-width="0"/><path d="M262.25903,165.84033c0,11.88415 -9.41168,21.51815 -21.02158,21.51815c-11.6099,0 -21.02158,-9.634 -21.02158,-21.51815c0,-11.88415 9.41168,-21.51815 21.02158,-21.51815c11.6099,0 21.02158,9.634 21.02158,21.51815z" fill="#ffd42a" stroke-width="0"/><path d="M257.19299,164.9124c0,8.8674 -7.04024,16.05585 -15.72481,16.05585c-8.68457,0 -15.7248,-7.18845 -15.7248,-16.05585c0,-8.8674 7.04023,-16.05585 15.7248,-16.05585c8.68457,0 15.72481,7.18845 15.72481,16.05585z" fill="#aa8800" stroke-width="0"/><path d="M256.96226,166.17138c0,8.95881 -7.04024,16.22138 -15.72481,16.22138c-8.68457,0 -15.7248,-7.26257 -15.7248,-16.22138c0,-8.95881 7.04023,-16.22138 15.7248,-16.22138c8.68457,0 15.72481,7.26256 15.72481,16.22138z" fill="#d4aa00" stroke-width="0"/><text transform="translate(229.71597,176.99567) scale(0.71828,0.71828)" font-size="40" xml:space="preserve" fill="#806600" fill-rule="nonzero" stroke="none" stroke-width="1" stroke-linecap="butt" stroke-linejoin="miter" stroke-miterlimit="10" stroke-dasharray="" stroke-dashoffset="0" font-family="Sans Serif" font-weight="normal" text-anchor="start" style="mix-blend-mode: normal"><tspan x="0" dy="0">C</tspan></text><text transform="translate(230.14733,176.43389) scale(0.71828,0.71828)" font-size="40" xml:space="preserve" fill="#ffd42a" fill-rule="nonzero" stroke="none" stroke-width="1" stroke-linecap="butt" stroke-linejoin="miter" stroke-miterlimit="10" stroke-dasharray="" stroke-dashoffset="0" font-family="Sans Serif" font-weight="normal" text-anchor="start" style="mix-blend-mode: normal"><tspan x="0" dy="0">C</tspan></text></g></g></svg>