<svg version="1.1" xmlns="http://www.w3.org/2000/svg" xmlns:xlink="http://www.w3.org/1999/xlink" width="69.87997" height="94.43236" viewBox="0,0,69.87997,94.43236"><g transform="translate(-205.06001,-132.78382)"><g data-paper-data="{&quot;isPaintingLayer&quot;:true}" fill-rule="nonzero" stroke-linejoin="miter" stroke-miterlimit="10" stroke-dasharray="" stroke-dashoffset="0" style="mix-blend-mode: normal"><path d="M205.06002,132.78382h69.87997v94.43236h-69.87997z" fill="#ffffff" stroke="none" stroke-width="0.87838" stroke-linecap="butt"/><path d="M207.5,136.0811h65v87.8378h-65z" fill="#cccccc" stroke="none" stroke-width="0.87838" stroke-linecap="butt"/><text transform="translate(209.54469,218.98867) scale(0.65338,0.65338)" font-size="22" xml:space="preserve" fill="#ffffff" fill-rule="nonzero" stroke="none" stroke-width="1" stroke-linecap="butt" stroke-linejoin="miter" stroke-miterlimit="10" stroke-dasharray="" stroke-dashoffset="0" font-family="Sans Serif" font-weight="400" text-anchor="start" style="mix-blend-mode: normal"><tspan x="0" dy="0">Installed</tspan></text><path d="M219.0156,195.0555v-43.5659h43.5659v43.5659z" fill="#000000" stroke="#ffffff" stroke-width="0.5" stroke-linecap="butt"/><path d="M236.0991,163.8794l-1.054,-3.5133" fill="none" stroke="#000000" stroke-width="0.5" stroke-linecap="round"/><path d="M226.8669,161.0059h-6.8569" fill="none" stroke="#ffffff" stroke-width="0.5" stroke-linecap="round"/><path d="M260.8532,158.3228l-2.6831,-0.5963l-7.7513,0.2981l-4.4719,4.4719l0.2982,7.7513l-8.0494,-0.2981v-9.2419v-6.8569" fill="none" stroke="#ffffff" stroke-width="0.5" stroke-linecap="round"/><path d="M228.6557,170.2478v8.6456h9.2419h11.0306v7.4532l4.4719,7.155" fill="none" stroke="#ffffff" stroke-width="0.5" stroke-linecap="round"/><path d="M232.8294,186.3466l0.2981,-6.5588" fill="none" stroke="#ffffff" stroke-width="0.5" stroke-linecap="round"/><path d="M242.6676,188.7316v6.2606" fill="none" stroke="#ffffff" stroke-width="0.5" stroke-linecap="round"/><path d="M249.8226,179.1916l5.9625,-4.1738" fill="none" stroke="#ffffff" stroke-width="0.5" stroke-linecap="round"/><path d="M245.94695,193.50159v-3.57752h3.57752v3.57752z" fill="#31ff00" stroke="#ffffff" stroke-width="0" stroke-linecap="butt"/></g></g></svg>