<svg xmlns="http://www.w3.org/2000/svg" xmlns:xlink="http://www.w3.org/1999/xlink" version="1.1" width="18.64148" height="18.70453" viewBox="0,0,18.64148,18.70453"><defs><linearGradient x1="247.63877" y1="99.13289" x2="247.63877" y2="251.04129" gradientUnits="userSpaceOnUse" id="color-1"><stop offset="0" stop-color="#808080"/><stop offset="1" stop-color="#808080" stop-opacity="0"/></linearGradient></defs><g><g data-paper-data="{&quot;isPaintingLayer&quot;:true}" fill-rule="nonzero" stroke-linecap="butt" stroke-linejoin="miter" stroke-miterlimit="10" stroke-dasharray="" stroke-dashoffset="0" style="mix-blend-mode: normal"><path d="M239.89865,170.64779c3.59953,-0.0147 9.43849,3.01364 9.42206,9.74441c-0.00252,1.4459 -1.70746,8.81888 -8.64063,8.92246c-3.62491,0.34697 -6.75941,-1.75571 -8.42223,-4.29091c-1.47316,-2.24605 -1.57817,-4.94199 -1.57829,-4.94488c-0.03563,-3.69433 3.15713,-9.40591 9.21909,-9.43108z" fill="url(#color-1)" stroke-width="0" stroke="none" transform="matrix(1,0,0,1,-230.67926,-170.64773)"/><path d="M235.83627,180.64773v-1.2318h8.31465v1.2318z" fill="#ffffff" stroke-width="0" stroke="none" transform="matrix(1,0,0,1,-230.67926,-170.64773)"/><path d="M239.25383,175.82313l0.63194,-0.63377l4.27795,4.2656l-0.63194,0.63377z" fill="#ffffff" stroke-width="0" stroke="none" transform="matrix(1,0,0,1,-230.67926,-170.64773)"/><path d="M239.88578,184.81064l-0.63195,-0.63377l4.27796,-4.26561l0.63194,0.63377z" data-paper-data="{&quot;index&quot;:null}" fill="#ffffff" stroke-width="0" stroke="none" transform="matrix(1,0,0,1,-230.67926,-170.64773)"/></g></g></svg>