<svg xmlns="http://www.w3.org/2000/svg" xmlns:xlink="http://www.w3.org/1999/xlink" version="1.1" width="92.28167" height="19.33919" viewBox="0,0,92.28167,19.33919"><g><g data-paper-data="{&quot;isPaintingLayer&quot;:true}" fill-rule="nonzero" stroke-linejoin="miter" stroke-miterlimit="10" stroke-dasharray="" stroke-dashoffset="0" style="mix-blend-mode: normal"><path d="M213.14183,179.37174c0,-5.33978 4.32875,-9.66853 9.66853,-9.66853c5.33978,0 9.66853,4.32875 9.66853,9.66853c0,5.33978 -4.32875,9.66853 -9.66853,9.66853c-5.33978,0 -9.66853,-4.32875 -9.66853,-9.66853z" fill="#403e3e" stroke="none" stroke-width="0" stroke-linecap="butt" transform="matrix(1,0,0,1,-213.14183,-169.70108)"/><path d="M222.93189,189.04027v-19.33706h73.20633v19.33706z" fill="#403e3e" stroke="none" stroke-width="0" stroke-linecap="butt" transform="matrix(1,0,0,1,-213.14183,-169.70108)"/><path d="M286.08644,179.36962c0,-5.33978 4.32875,-9.66854 9.66853,-9.66854c5.33978,0 9.66853,4.32876 9.66853,9.66854c0,5.33978 -4.32875,9.66853 -9.66853,9.66853c-5.33978,0 -9.66853,-4.32875 -9.66853,-9.66853z" fill="#403e3e" stroke="none" stroke-width="0" stroke-linecap="butt" transform="matrix(1,0,0,1,-213.14183,-169.70108)"/><text transform="matrix(0.29473,0,0,0.29473,25.75121999999999,13.55298000000002)" font-size="40" xml:space="preserve" fill="#ffffff" fill-rule="nonzero" stroke="none" stroke-width="1" stroke-linecap="butt" stroke-linejoin="miter" stroke-miterlimit="10" stroke-dasharray="" stroke-dashoffset="0" font-family="Sans Serif" font-weight="normal" text-anchor="start" style="mix-blend-mode: normal"><tspan x="0" dy="0">shutdown</tspan></text><path d="M 4.6014 9.4608 C 4.6014 5.1386 8.1052 1.6348 12.4273 1.6348 C 16.7495 1.6348 20.2533 5.1386 20.2533 9.4608 C 20.2533 13.7829 16.7495 17.2867 12.4273 17.2867 C 8.1052 17.2867 4.6014 13.7829 4.6014 9.4608 Z " fill="#ffffff" stroke="none" stroke-width="1" stroke-linecap="butt"/><path d="M 5.0669 9.4608 C 5.0669 5.3957 8.3623 2.1004 12.4273 2.1004 C 16.4924 2.1004 19.7877 5.3957 19.7877 9.4608 C 19.7877 13.5258 16.4924 16.8212 12.4273 16.8212 C 8.3623 16.8212 5.0669 13.5258 5.0669 9.4608 Z " fill="none" stroke="#000000" stroke-width="1" stroke-linecap="butt"/><g><path d="M 15.674 6.7997 C 16.3694 7.5729 16.7925 8.5958 16.7925 9.7176 C 16.7925 12.1284 14.8381 14.0827 12.4273 14.0827 C 10.0165 14.0827 8.0621 12.1284 8.0621 9.7176 C 8.0621 8.6446 8.4492 7.6621 9.0913 6.9021 " stroke-linecap="butt" stroke-width="1" fill="none" stroke="#000000"/><path d="M 12.4273 4.8389 L 12.4273 10.7447 " stroke-linecap="round" stroke-width="1" fill="none" stroke="#000000"/></g></g></g></svg>