<svg xmlns="http://www.w3.org/2000/svg" xmlns:xlink="http://www.w3.org/1999/xlink" version="1.1" width="172.82559" height="202.8353" viewBox="0,0,172.82559,202.8353"><g><g data-paper-data="{&quot;isPaintingLayer&quot;:true}" fill-rule="nonzero" stroke-linecap="butt" stroke-linejoin="miter" stroke-miterlimit="10" stroke-dasharray="" stroke-dashoffset="0" style="mix-blend-mode: normal"><path d="M152.78755,205.95608v-163.97055h172.40963v163.97055z" fill="#403e3e" stroke-width="0" stroke="none" transform="matrix(1,0,0,1,-152.65145,-24.63974)"/><g><path d="M152.82862,45.43635c0,-11.48313 9.30892,-20.79204 20.79205,-20.79204c11.48314,0 20.79205,9.30892 20.79205,20.79204c0,11.48313 -9.30893,20.79206 -20.79205,20.79206c-11.48314,0 -20.79205,-9.30893 -20.79205,-20.79206z" stroke-width="0" fill="#403e3e" stroke="none" transform="matrix(1,0,0,1,-152.65145,-24.63974)"/><path d="M173.35748,66.22841v-41.58409h131.59526v41.58411z" stroke-width="0" fill="#403e3e" stroke="none" transform="matrix(1,0,0,1,-152.65145,-24.63974)"/><path d="M283.89294,45.43182c0,-11.48314 9.30891,-20.79207 20.79204,-20.79207c11.48314,0 20.79206,9.30893 20.79206,20.79207c0,11.48314 -9.30892,20.79205 -20.79206,20.79205c-11.48314,0 -20.79204,-9.30891 -20.79204,-20.79205z" stroke-width="0" fill="#403e3e" stroke="none" transform="matrix(1,0,0,1,-152.65145,-24.63974)"/></g><g><path d="M152.65146,206.68298c0,-11.48314 9.30892,-20.79205 20.79206,-20.79205c11.48314,0 20.79205,9.30892 20.79205,20.79205c0,11.48314 -9.30892,20.79206 -20.79205,20.79206c-11.48314,0 -20.79206,-9.30892 -20.79206,-20.79206z" stroke-width="0" fill="#403e3e" stroke="none" transform="matrix(1,0,0,1,-152.65145,-24.63974)"/><path d="M173.18033,227.47504v-41.58409h131.59527v41.5841z" stroke-width="0" fill="#403e3e" stroke="none" transform="matrix(1,0,0,1,-152.65145,-24.63974)"/><path d="M283.71578,206.67844c0,-11.48314 9.30892,-20.79207 20.79205,-20.79207c11.48314,0 20.79206,9.30893 20.79206,20.79207c0,11.48314 -9.30892,20.79205 -20.79206,20.79205c-11.48314,0 -20.79205,-9.30892 -20.79205,-20.79205z" stroke-width="0" fill="#403e3e" stroke="none" transform="matrix(1,0,0,1,-152.65145,-24.63974)"/></g><text transform="matrix(0.76589,0,0,0.76589,78.66391999999999,76.71974)" font-size="22" xml:space="preserve" fill="#ffffff" fill-rule="nonzero" stroke="none" stroke-width="1" stroke-linecap="butt" stroke-linejoin="miter" stroke-miterlimit="10" stroke-dasharray="" stroke-dashoffset="0" font-family="Sans Serif" font-weight="400" text-anchor="start" style="mix-blend-mode: normal"><tspan x="0" dy="0">Shut Down</tspan></text><text transform="matrix(1.03364,0,0,1.03364,99.33383999999998,131.29319)" font-size="22" xml:space="preserve" fill="#ffffff" fill-rule="nonzero" stroke="none" stroke-width="1" stroke-linecap="butt" stroke-linejoin="miter" stroke-miterlimit="10" stroke-dasharray="" stroke-dashoffset="0" font-family="Sans Serif" font-weight="400" text-anchor="start" style="mix-blend-mode: normal"><tspan x="0" dy="0">Wi-Fi</tspan></text><text transform="matrix(0.89405,0,0,0.89405,85.33964999999998,177.96912)" font-size="22" xml:space="preserve" fill="#ffffff" fill-rule="nonzero" stroke="none" stroke-width="1" stroke-linecap="butt" stroke-linejoin="miter" stroke-miterlimit="10" stroke-dasharray="" stroke-dashoffset="0" font-family="Sans Serif" font-weight="400" text-anchor="start" style="mix-blend-mode: normal"><tspan x="0" dy="0">Settings</tspan></text></g></g></svg>