<svg xmlns="http://www.w3.org/2000/svg" xmlns:xlink="http://www.w3.org/1999/xlink" version="1.1" width="22.20403" height="22.20403" viewBox="0,0,22.20403,22.20403"><g><g data-paper-data="{&quot;isPaintingLayer&quot;:true}" fill-rule="nonzero" stroke-linecap="butt" stroke-linejoin="miter" stroke-miterlimit="10" stroke-dasharray="" stroke-dashoffset="0" style="mix-blend-mode: normal"><path d="M228.89799,180c0,-6.13147 4.97054,-11.10201 11.10201,-11.10201c6.13147,0 11.10201,4.97054 11.10201,11.10201c0,6.13147 -4.97054,11.10201 -11.10201,11.10201c-6.13147,0 -11.10201,-4.97054 -11.10201,-11.10201z" fill="#4f8ef4" stroke-width="0" stroke="none" transform="matrix(1,0,0,1,-228.89799,-168.89799)"/><path d="M233.33879,185.49258v-8.64788h13.9457v8.64788z" fill="#fafafa" stroke-width="0" stroke="none" transform="matrix(1,0,0,1,-228.89799,-168.89799)"/><path d="M233.33446,178.7586c0,0 0,-3.18158 0,-3.82385c0,-0.21632 0.1996,-0.43376 0.53167,-0.43376c1.4843,0 5.6152,0 6.39696,0c0.24987,0 0.47271,0.21745 0.47271,0.43376c0,0.64227 0,3.82385 0,3.82385z" fill="#fafafa" stroke-width="0" stroke="none" transform="matrix(1,0,0,1,-228.89799,-168.89799)"/></g></g></svg>