<svg version="1.1" xmlns="http://www.w3.org/2000/svg" xmlns:xlink="http://www.w3.org/1999/xlink" width="480.79425" height="366.73498" viewBox="0,0,480.79425,366.73498"><g transform="translate(0.73729,5.49249)"><g data-paper-data="{&quot;isPaintingLayer&quot;:true}" fill="#000000" fill-rule="nonzero" stroke-linecap="butt" stroke-linejoin="miter" stroke-miterlimit="10" stroke-dasharray="" stroke-dashoffset="0" style="mix-blend-mode: normal"><path d="M-0.73729,361.24249v-354.31832h480.79425v354.31832z" stroke="none" stroke-width="0"/><path d="M382.73797,10.37506v-3h1v3z" stroke="none" stroke-width="0"/><path d="M296.63152,351.54767v-3h1v3z" stroke="none" stroke-width="0"/><path d="M296.06077,17.75752v-3h1v3z" stroke="none" stroke-width="0"/><path d="M11.81416,-5.24248c6.88126,0 12.4596,5.4531 12.4596,12.17983c0,6.72673 -5.57836,12.17983 -12.4596,12.17983c-6.88126,0 -12.4596,-5.4531 -12.4596,-12.17983c0,-6.72673 5.57836,-12.17983 12.4596,-12.17983z" stroke="none" stroke-width="0"/><path d="M11.72742,24.75751v-30h455.77437v30z" stroke="#000000" stroke-width="0.5"/><path d="M467.48082,-5.24248c6.88126,0 12.45961,5.4531 12.45961,12.17983c0,6.72673 -5.57836,12.17983 -12.45961,12.17983c-6.88126,0 -12.4596,-5.4531 -12.4596,-12.17983c0,-6.72673 5.57835,-12.17983 12.4596,-12.17983z" stroke="none" stroke-width="0"/></g></g></svg>