<svg version="1.1" xmlns="http://www.w3.org/2000/svg" xmlns:xlink="http://www.w3.org/1999/xlink" width="22.32807" height="18.48695" viewBox="0,0,22.32807,18.48695"><g transform="translate(-228.83596,-170.75653)"><g data-paper-data="{&quot;isPaintingLayer&quot;:true}" fill-rule="nonzero" stroke="none" stroke-width="0" stroke-linecap="butt" stroke-linejoin="miter" stroke-miterlimit="10" stroke-dasharray="" stroke-dashoffset="0" style="mix-blend-mode: normal"><path d="M240.35179,170.75653c2.07419,0 9.84078,0.93505 10.78387,3.9143c0.24447,0.77229 -1.15039,1.69202 -1.89289,2.6894c-3.58659,4.81778 -8.6994,11.80345 -8.6994,11.80345c0,0 -6.69936,-6.97277 -10.30211,-11.15349c-0.48357,-0.89404 -1.52932,-1.55845 -1.39318,-2.22025c0.84294,-4.09774 8.96113,-5.03341 11.50371,-5.03341z" fill="#6d7272"/><path d="M240.41336,175.2678c1.57483,0 7.43056,0.54564 8.1466,2.80764c0.18562,0.58636 -0.83236,1.44898 -1.3961,2.20624c-2.72313,3.65791 -6.60505,8.9618 -6.60505,8.9618c0,0 -5.08651,-5.29409 -7.8219,-8.46832c-0.36715,-0.6788 -1.37755,-1.12915 -1.27418,-1.63163c0.64001,-3.11122 7.02017,-3.87573 8.95063,-3.87573z" fill="#9966ff"/></g></g></svg>