<svg version="1.1" xmlns="http://www.w3.org/2000/svg" xmlns:xlink="http://www.w3.org/1999/xlink" width="587" height="459.03648" viewBox="0,0,587,459.03648"><g transform="translate(62.75945,-17.76353)"><g data-paper-data="{&quot;isPaintingLayer&quot;:true}" fill-rule="nonzero" stroke-linecap="butt" stroke-linejoin="miter" stroke-miterlimit="10" stroke-dasharray="" stroke-dashoffset="0" style="mix-blend-mode: normal"><path d="M123,321.21666v-72h15v72z" data-paper-data="{&quot;origPos&quot;:null}" fill="#cccccc" stroke="#000000" stroke-width="1.5"/><path d="M133,321.21666v-18h60v18z" data-paper-data="{&quot;origPos&quot;:null}" fill="#cccccc" stroke="#000000" stroke-width="1.5"/><path d="M185,321.21666v-58.77232h17v58.77232z" data-paper-data="{&quot;origPos&quot;:null}" fill="#cccccc" stroke="#000000" stroke-width="1.5"/><path d="M129,320.21666v-21h8v21z" data-paper-data="{&quot;origPos&quot;:null}" fill="#cccccc" stroke="none" stroke-width="0"/><path d="M181,320.21666v-16h19v16z" data-paper-data="{&quot;origPos&quot;:null}" fill="#cccccc" stroke="none" stroke-width="0"/><path d="M139,303.21666v-41h45v41z" data-paper-data="{&quot;origPos&quot;:null}" fill="#b2ddff" stroke="none" stroke-width="0"/><path d="M1,342.21666v-72h15v72z" data-paper-data="{&quot;origPos&quot;:null}" fill="#cccccc" stroke="#000000" stroke-width="1.5"/><path d="M14,342.21666v-18h60v18z" data-paper-data="{&quot;origPos&quot;:null}" fill="#cccccc" stroke="#000000" stroke-width="1.5"/><path d="M69,342.21666v-57.97086h17v57.97086z" fill="#cccccc" stroke="#000000" stroke-width="1.5"/><path d="M13,341.21666v-21h8v21z" data-paper-data="{&quot;origPos&quot;:null}" fill="#cccccc" stroke="none" stroke-width="0"/><path d="M65,341.21666v-16h19v16z" fill="#cccccc" stroke="none" stroke-width="0"/><path d="M17,324.21666v-41h51v41z" data-paper-data="{&quot;origPos&quot;:null}" fill="#b2ddff" stroke="none" stroke-width="0"/><path d="M381.6221,278.21666v-72h14.4715v72z" data-paper-data="{&quot;origPos&quot;:null}" fill="#cccccc" stroke="#000000" stroke-width="1.5"/><path d="M391.2697,278.21666v-18h57.8858v18z" data-paper-data="{&quot;origPos&quot;:null}" fill="#cccccc" stroke="#000000" stroke-width="1.5"/><path d="M441.4374,278.21666v-60.37523h16.401v60.37523z" data-paper-data="{&quot;origPos&quot;:null}" fill="#cccccc" stroke="#000000" stroke-width="1.5"/><path d="M387.41069,277.21666v-21h7.7181v21z" data-paper-data="{&quot;origPos&quot;:null}" fill="#cccccc" stroke="none" stroke-width="0"/><path d="M437.57837,277.21666v-16h18.3305v16z" data-paper-data="{&quot;origPos&quot;:null}" fill="#cccccc" stroke="none" stroke-width="0"/><path d="M397.05832,260.21666v-41h43.41434v41z" data-paper-data="{&quot;origPos&quot;:null}" fill="#b2ddff" stroke="none" stroke-width="0"/><path d="M269.7096,299.21666v-72h14.4715v72z" data-paper-data="{&quot;origPos&quot;:null}" fill="#cccccc" stroke="#000000" stroke-width="1.5"/><path d="M279.3572,299.21666v-18h57.8858v18z" data-paper-data="{&quot;origPos&quot;:null}" fill="#cccccc" stroke="#000000" stroke-width="1.5"/><path d="M329.5249,299.21666v-61.17669h16.401v61.17669z" data-paper-data="{&quot;origPos&quot;:null}" fill="#cccccc" stroke="#000000" stroke-width="1.5"/><path d="M275.49818,298.21666v-21h7.7181v21z" data-paper-data="{&quot;origPos&quot;:null}" fill="#cccccc" stroke="none" stroke-width="0"/><path d="M325.66586,298.21666v-16h18.3305v16z" data-paper-data="{&quot;origPos&quot;:null}" fill="#cccccc" stroke="none" stroke-width="0"/><path d="M285.14581,281.21666v-41h43.41434v41z" data-paper-data="{&quot;origPos&quot;:null}" fill="#b2ddff" stroke="none" stroke-width="0"/><text transform="translate(15,39.21666) scale(0.5,0.5)" font-size="40" xml:space="preserve" data-paper-data="{&quot;origPos&quot;:null}" fill="#000000" fill-rule="nonzero" stroke="none" stroke-width="1" stroke-linecap="butt" stroke-linejoin="miter" stroke-miterlimit="10" stroke-dasharray="" stroke-dashoffset="0" font-family="Sans Serif" font-weight="normal" text-anchor="start" style="mix-blend-mode: normal"><tspan x="0" dy="0">Nice! Multiple Pools!</tspan></text><path d="M-62.75945,476.80001v-141h587v141z" fill="#00ff6b" stroke="none" stroke-width="0"/></g></g></svg>