<svg version="1.1" xmlns="http://www.w3.org/2000/svg" xmlns:xlink="http://www.w3.org/1999/xlink" width="33.10454" height="42.52867" viewBox="0,0,33.10454,42.52867"><g transform="translate(-223.64302,-159.86923)"><g data-paper-data="{&quot;isPaintingLayer&quot;:true}" fill-rule="nonzero" stroke="none" stroke-linecap="butt" stroke-linejoin="miter" stroke-miterlimit="10" stroke-dasharray="" stroke-dashoffset="0" style="mix-blend-mode: normal"><path d="M254.20394,175.58501c0,8.4636 -6.5,15.32471 -14.51815,15.32471c-8.01816,0 -14.51815,-6.86111 -14.51815,-15.32471c0,-8.4636 6.5,-15.32472 14.51815,-15.32472c8.01816,0 14.51815,6.86112 14.51815,15.32472z" fill="#d4aa00" stroke-width="0"/><text transform="translate(223.87006,199.44644) scale(0.45407,0.45407)" font-size="22" xml:space="preserve" fill="#ffffff" fill-rule="nonzero" stroke="none" stroke-width="1" stroke-linecap="butt" stroke-linejoin="miter" stroke-miterlimit="10" stroke-dasharray="" stroke-dashoffset="0" font-family="Sans Serif" font-weight="400" text-anchor="start" style="mix-blend-mode: normal"><tspan x="0" dy="0">Clicker</tspan></text><path d="M254.27378,174.84827c0,8.2727 -6.55158,14.97904 -14.63337,14.97904c-8.08179,0 -14.63337,-6.70634 -14.63337,-14.97904c0,-8.2727 6.55158,-14.97905 14.63338,-14.97905c8.08179,0 14.63338,6.70635 14.63338,14.97905z" fill="#ffd42a" stroke-width="0"/><path d="M250.74724,174.20233c0,6.1727 -4.90079,11.17667 -10.94622,11.17667c-6.04543,0 -10.94622,-5.00397 -10.94622,-11.17667c0,-6.1727 4.90079,-11.17668 10.94622,-11.17668c6.04543,0 10.94622,5.00397 10.94622,11.17668z" fill="#aa8800" stroke-width="0"/><path d="M250.58662,175.07872c0,6.23634 -4.90079,11.2919 -10.94622,11.2919c-6.04543,0 -10.94622,-5.05555 -10.94622,-11.2919c0,-6.23634 4.90079,-11.2919 10.94622,-11.2919c6.04543,0 10.94622,5.05555 10.94622,11.2919z" fill="#d4aa00" stroke-width="0"/><text transform="translate(231.62015,182.61364) scale(0.5,0.5)" font-size="40" xml:space="preserve" fill="#806600" fill-rule="nonzero" stroke="none" stroke-width="1" stroke-linecap="butt" stroke-linejoin="miter" stroke-miterlimit="10" stroke-dasharray="" stroke-dashoffset="0" font-family="Sans Serif" font-weight="normal" text-anchor="start" style="mix-blend-mode: normal"><tspan x="0" dy="0">C</tspan></text><text transform="translate(231.92043,182.22257) scale(0.5,0.5)" font-size="40" xml:space="preserve" fill="#ffd42a" fill-rule="nonzero" stroke="none" stroke-width="1" stroke-linecap="butt" stroke-linejoin="miter" stroke-miterlimit="10" stroke-dasharray="" stroke-dashoffset="0" font-family="Sans Serif" font-weight="normal" text-anchor="start" style="mix-blend-mode: normal"><tspan x="0" dy="0">C</tspan></text></g></g></svg>