<svg version="1.1" xmlns="http://www.w3.org/2000/svg" xmlns:xlink="http://www.w3.org/1999/xlink" width="82.55202" height="22.89698" viewBox="0,0,82.55202,22.89698"><g transform="translate(-198.72399,-168.55151)"><g data-paper-data="{&quot;isPaintingLayer&quot;:true}" fill-rule="nonzero" stroke="none" stroke-linecap="butt" stroke-linejoin="miter" stroke-miterlimit="10" stroke-dasharray="" stroke-dashoffset="0" style="mix-blend-mode: normal"><g><g fill="#000000" stroke-width="0"><path d="M198.72399,180.00125c0,-6.32214 5.1251,-11.44723 11.44723,-11.44723c6.32214,0 11.44723,5.1251 11.44723,11.44723c0,6.32214 -5.1251,11.44723 -11.44723,11.44723c-6.32214,0 -11.44723,-5.1251 -11.44723,-11.44723z"/><path d="M210.02633,191.44849v-22.89447h60.38799v22.89447z"/><path d="M258.38155,179.99874c0,-6.32213 5.1251,-11.44723 11.44723,-11.44723c6.32213,0 11.44723,5.12511 11.44723,11.44723c0,6.32213 -5.12511,11.44723 -11.44723,11.44723c-6.32213,0 -11.44723,-5.1251 -11.44723,-11.44723z"/></g><text transform="translate(230.72105,182.46356) scale(0.36437,0.36437)" font-size="22" xml:space="preserve" fill="#ffffff" fill-rule="nonzero" stroke="none" stroke-width="1" stroke-linecap="butt" stroke-linejoin="miter" stroke-miterlimit="10" stroke-dasharray="" stroke-dashoffset="0" font-family="Sans Serif" font-weight="400" text-anchor="start" style="mix-blend-mode: normal"><tspan x="0" dy="0">Play  store</tspan></text></g><g stroke-width="0"><path d="M209.1595,188.90664v-18.35189l16.04968,8.81417l-0.01609,1.76724z" fill="#00d2ff"/><path d="M217.55771,180.79472l-8.35373,-10.12972l13.15548,7.03819l-3.42042,3.09154z" fill="#00ef76"/><path d="M225.20437,181.10764l-2.80663,1.44876l-3.39482,-1.92339l3.31994,-2.98698l2.91022,1.72339z" fill="#ffca00"/><path d="M219.24662,180.70763l3.02576,1.71021l-12.95814,6.44619l8.09062,-7.95906z" data-paper-data="{&quot;index&quot;:null}" fill="#f73448"/></g></g></g></svg>