<svg xmlns="http://www.w3.org/2000/svg" xmlns:xlink="http://www.w3.org/1999/xlink" version="1.1" width="136.65844" height="32.91916" viewBox="0,0,136.65844,32.91916"><g><g data-paper-data="{&quot;isPaintingLayer&quot;:true}" fill-rule="nonzero" stroke-linecap="butt" stroke-linejoin="miter" stroke-miterlimit="10" stroke-dasharray="" stroke-dashoffset="0" style="mix-blend-mode: normal"><path d="M171.67078,180.0018c0,-9.08938 7.3684,-16.45778 16.45778,-16.45778c9.08938,0 16.45778,7.3684 16.45778,16.45778c0,9.08938 -7.3684,16.45778 -16.45778,16.45778c-9.08938,0 -16.45778,-7.3684 -16.45778,-16.45778z" fill="#403e3e" stroke-width="0" stroke="none" transform="matrix(1,0,0,1,-171.67078,-163.54042)"/><path d="M187.92024,196.45958v-32.91555h104.16314v32.91555z" fill="#403e3e" stroke-width="0" stroke="none" transform="matrix(1,0,0,1,-171.67078,-163.54042)"/><path d="M275.41366,179.99821c0,-9.08938 7.3684,-16.45779 16.45778,-16.45779c9.08938,0 16.45778,7.36841 16.45778,16.45779c0,9.08938 -7.3684,16.45777 -16.45778,16.45777c-9.08938,0 -16.45778,-7.36839 -16.45778,-16.45777z" fill="#403e3e" stroke-width="0" stroke="none" transform="matrix(1,0,0,1,-171.67078,-163.54042)"/><text transform="matrix(0.5,0,0,0.5,40.36922999999999,22.22833)" font-size="40" xml:space="preserve" fill="#ffffff" fill-rule="nonzero" stroke="none" stroke-width="1" stroke-linecap="butt" stroke-linejoin="miter" stroke-miterlimit="10" stroke-dasharray="" stroke-dashoffset="0" font-family="Sans Serif" font-weight="normal" text-anchor="start" style="mix-blend-mode: normal"><tspan x="0" dy="0">Guest</tspan></text></g></g></svg>