<svg version="1.1" xmlns="http://www.w3.org/2000/svg" xmlns:xlink="http://www.w3.org/1999/xlink" width="69.87997" height="94.43236" viewBox="0,0,69.87997,94.43236"><g transform="translate(-205.06001,-132.78382)"><g data-paper-data="{&quot;isPaintingLayer&quot;:true}" fill-rule="nonzero" stroke-linejoin="miter" stroke-miterlimit="10" stroke-dasharray="" stroke-dashoffset="0" style="mix-blend-mode: normal"><path d="M205.06001,132.78382h69.87997v94.43236h-69.87997z" fill="#ffffff" stroke="none" stroke-width="0.87838" stroke-linecap="butt"/><path d="M207.5,136.0811h65v87.8378h-65z" fill="#cccccc" stroke="none" stroke-width="0.87838" stroke-linecap="butt"/><path d="M214.24755,220.32554v-14.77272h46.31448v14.77272z" fill="#03c300" stroke="none" stroke-width="0" stroke-linecap="butt"/><text transform="translate(215.42814,217.91229) scale(0.3759,0.3759)" font-size="40" xml:space="preserve" fill="#ffffff" fill-rule="nonzero" stroke="none" stroke-width="1" stroke-linecap="butt" stroke-linejoin="miter" stroke-miterlimit="10" stroke-dasharray="" stroke-dashoffset="0" font-family="Sans Serif" font-weight="normal" text-anchor="start" style="mix-blend-mode: normal"><tspan x="0" dy="0">Install</tspan></text><text transform="translate(219.08228,192.19353) scale(0.19347,0.19347)" font-size="40" xml:space="preserve" fill="#ffffff" fill-rule="nonzero" stroke="none" stroke-width="1" stroke-linecap="butt" stroke-linejoin="miter" stroke-miterlimit="10" stroke-dasharray="" stroke-dashoffset="0" font-family="Sans Serif" font-weight="normal" text-anchor="start" style="mix-blend-mode: normal"><tspan x="0" dy="0">  Scrolling </tspan><tspan x="0" dy="48px">platformer</tspan></text><path d="M216.2989,183.22417v-43.59054h47.11301v43.59054z" fill="#ffffff" stroke="none" stroke-width="0" stroke-linecap="butt"/><path d="M216.2989,183.55254v-5.98894h47.11301v5.98894z" fill="#000000" stroke="none" stroke-width="0" stroke-linecap="butt"/><path d="M224.5502,167.06456v-5.98894h5.58968v5.98894z" fill="#000000" stroke="none" stroke-width="0" stroke-linecap="butt"/><path d="M226.7545,178.7393v-5.20506h5.20506v5.20506z" fill="#ff0000" stroke="none" stroke-width="0" stroke-linecap="butt"/><path d="M222.4958,167.856l-3.7855,2.3659" fill="none" stroke="#6a6a6a" stroke-width="0.5" stroke-linecap="round"/><path d="M221.5494,164.5437l-3.7855,1.8927" fill="none" stroke="#6a6a6a" stroke-width="0.5" stroke-linecap="round"/><path d="M223.9154,170.6951l-3.3123,3.3123" fill="none" stroke="#6a6a6a" stroke-width="0.5" stroke-linecap="round"/><path d="M252.30663,179.21248v-19.40068h6.15144v19.40068z" fill="#ff0000" stroke="#000000" stroke-width="0" stroke-linecap="butt"/></g></g></svg>