<svg version="1.1" xmlns="http://www.w3.org/2000/svg" xmlns:xlink="http://www.w3.org/1999/xlink" width="480.79425" height="59.86089" viewBox="0,0,480.79425,59.86089"><g transform="translate(0.73729,-305.3816)"><g data-paper-data="{&quot;isPaintingLayer&quot;:true}" fill-rule="nonzero" stroke-linecap="butt" stroke-linejoin="miter" stroke-miterlimit="10" stroke-dasharray="" stroke-dashoffset="0" style="mix-blend-mode: normal"><path d="M300.08757,306.42642c-0.31737,0 -0.57465,-0.23389 -0.57465,-0.52241c0,-0.28852 0.25728,-0.52241 0.57465,-0.52241c0.31737,0 0.57465,0.23389 0.57465,0.52241c0,0.28852 -0.25728,0.52241 -0.57465,0.52241z" fill="#ffffff" stroke="#000000" stroke-width="0"/><path d="M382.73797,348.37507v-3h1v3z" fill="#000000" stroke="none" stroke-width="0"/><path d="M-0.73729,365.24249v-20.31832h480.79425v20.31832z" fill="#000000" stroke="none" stroke-width="0"/><path d="M11.81416,332.75752c6.88126,0 12.4596,5.4531 12.4596,12.17983c0,6.72673 -5.57836,12.17983 -12.4596,12.17983c-6.88126,0 -12.4596,-5.4531 -12.4596,-12.17983c0,-6.72673 5.57836,-12.17983 12.4596,-12.17983z" fill="#000000" stroke="none" stroke-width="0"/><path d="M11.72742,362.75751v-30h455.77437v30z" fill="#000000" stroke="#000000" stroke-width="0.5"/><path d="M467.48083,332.75752c6.88126,0 12.45961,5.4531 12.45961,12.17983c0,6.72673 -5.57836,12.17983 -12.45961,12.17983c-6.88126,0 -12.4596,-5.4531 -12.4596,-12.17983c0,-6.72673 5.57835,-12.17983 12.4596,-12.17983z" fill="#000000" stroke="none" stroke-width="0"/></g></g></svg>