<svg version="1.1" xmlns="http://www.w3.org/2000/svg" xmlns:xlink="http://www.w3.org/1999/xlink" width="19.46926" height="19.5047" viewBox="0,0,19.46926,19.5047"><g transform="translate(-230.82684,-170.81016)"><g data-paper-data="{&quot;isPaintingLayer&quot;:true}" fill-rule="nonzero" stroke-linecap="butt" stroke-linejoin="miter" stroke-miterlimit="10" stroke-dasharray="" stroke-dashoffset="0" style="mix-blend-mode: normal"><path d="M240.56152,170.81016c2.6856,0 5.11927,1.09273 6.88141,2.85837c1.76256,1.76532 2.85317,4.20345 2.85317,6.89393c0,2.69048 -1.0906,5.12861 -2.85317,6.89393c-1.76214,1.76575 -4.19581,2.85847 -6.88141,2.85847c-2.68581,0 -5.11948,-1.09273 -6.88162,-2.85847c-1.76246,-1.76532 -2.85306,-4.20345 -2.85306,-6.89393c0,-2.69048 1.0906,-5.12861 2.85306,-6.89393c1.76214,-1.76575 4.19581,-2.85837 6.88162,-2.85837z" fill="#535751" stroke="none" stroke-width="0.30307"/><path d="M240.56142,176.49538c1.16351,0 2.21793,0.4559 2.98168,1.19227c0.76333,0.73584 1.2361,1.75269 1.2361,2.87481c0,1.12223 -0.47277,2.13897 -1.2361,2.87503c-0.76375,0.73616 -1.81817,1.19206 -2.98168,1.19206c-1.1634,0 -2.21782,-0.4559 -2.98157,-1.19206c-0.76333,-0.73605 -1.2361,-1.7528 -1.2361,-2.87503c0,-1.12212 0.47277,-2.13897 1.2361,-2.87481c0.76375,-0.73637 1.81817,-1.19227 2.98157,-1.19227z" fill="none" stroke="#ffffff" stroke-width="1"/><path d="M243.3004,180.5625c0,1.51266 -1.22626,2.73892 -2.73892,2.73892c-1.51266,0 -2.73892,-1.22626 -2.73892,-2.73892c0,-1.51266 1.22626,-2.73892 2.73892,-2.73892c1.51266,0 2.73892,1.22626 2.73892,2.73892z" fill="#ffffff" stroke="none" stroke-width="0"/></g></g></svg>