<svg version="1.1" xmlns="http://www.w3.org/2000/svg" xmlns:xlink="http://www.w3.org/1999/xlink" width="885.5" height="399.5" viewBox="0,0,885.5,399.5"><g transform="translate(24.75,-33.46666)"><g data-paper-data="{&quot;isPaintingLayer&quot;:true}" fill-rule="nonzero" stroke-linecap="butt" stroke-linejoin="miter" stroke-miterlimit="10" stroke-dasharray="" stroke-dashoffset="0" style="mix-blend-mode: normal"><path d="M-24,432.21666v-109h884v109z" data-paper-data="{&quot;origPos&quot;:null}" fill="#cccccc" stroke="#000000" stroke-width="1.5"/><path d="M116,340.21666v-129h26v129z" data-paper-data="{&quot;origPos&quot;:null}" fill="#cccccc" stroke="#000000" stroke-width="1.5"/><path d="M144,326.21666v-20h84v20z" data-paper-data="{&quot;origPos&quot;:null}" fill="#cccccc" stroke="#000000" stroke-width="1.5"/><path d="M143,306.21666v-62h85v62z" fill="#00ff6b" stroke="none" stroke-width="0"/><path d="M223,342.21666v-129h29v129z" fill="#cccccc" stroke="#000000" stroke-width="1.5"/><path d="M140,325.21666v-17h47v17z" fill="#cccccc" stroke="none" stroke-width="0"/><path d="M219,326.21666v-19h32v19z" data-paper-data="{&quot;origPos&quot;:null}" fill="#cccccc" stroke="none" stroke-width="0"/><text transform="translate(155,55.21666) scale(0.5,0.5)" font-size="40" xml:space="preserve" data-paper-data="{&quot;origPos&quot;:null}" fill="#000000" fill-rule="nonzero" stroke="none" stroke-width="1" stroke-linecap="butt" stroke-linejoin="miter" stroke-miterlimit="10" stroke-dasharray="" stroke-dashoffset="0" font-family="Sans Serif" font-weight="normal" text-anchor="start" style="mix-blend-mode: normal"><tspan x="0" dy="0">Don't Swim In That!</tspan></text><path d="M109,344.21666v-20h169v20z" fill="#cccccc" stroke="none" stroke-width="0"/><path d="M312,331.21666v-117h35v117z" data-paper-data="{&quot;origPos&quot;:null}" fill="#cccccc" stroke="#000000" stroke-width="1.5"/><path d="M417,329.21666v-117h37v117z" data-paper-data="{&quot;origPos&quot;:null}" fill="#cccccc" stroke="#000000" stroke-width="1.5"/><path d="M343,333.21666v-32h97v32z" fill="#cccccc" stroke="#000000" stroke-width="1.5"/><path d="M347,300.21666v-69h70v69z" fill="#b2ddff" stroke="none" stroke-width="0"/><path d="M335,356.21666v-47h118v47z" fill="#cccccc" stroke="none" stroke-width="0"/><path d="M310,351.21666v-28h30v28z" fill="#cccccc" stroke="none" stroke-width="0"/><path d="M338,319.21666v-17h109v17z" fill="#cccccc" stroke="none" stroke-width="0"/><path d="M419,331.21666v-34h26v34z" fill="#cccccc" stroke="none" stroke-width="0"/><path d="M339,310.21666v-15h7v15z" fill="#cccccc" stroke="none" stroke-width="0"/><path d="M445,347.21666v-23h49v23z" fill="#cccccc" stroke="none" stroke-width="0"/><path d="M70,331.21666v-66h22v66z" data-paper-data="{&quot;origPos&quot;:null}" fill="#cccccc" stroke="#000000" stroke-width="1.5"/><path d="M63,343.21666v-19h60v19z" data-paper-data="{&quot;origPos&quot;:null}" fill="#cccccc" stroke="none" stroke-width="0"/></g></g></svg>