<svg xmlns="http://www.w3.org/2000/svg" xmlns:xlink="http://www.w3.org/1999/xlink" version="1.1" width="18.84143" height="18.84144" viewBox="0,0,18.84143,18.84144"><g><g data-paper-data="{&quot;isPaintingLayer&quot;:true}" fill-rule="nonzero" stroke-linejoin="miter" stroke-miterlimit="10" stroke-dasharray="" stroke-dashoffset="0" style="mix-blend-mode: normal"><path d="M 0.4674 9.4207 C 0.4674 4.476 4.4759 0.4674 9.4207 0.4674 C 14.3655 0.4674 18.374 4.476 18.374 9.4207 C 18.374 14.3655 14.3655 18.374 9.4207 18.374 C 4.4759 18.374 0.4674 14.3655 0.4674 9.4207 Z " fill="#ffffff" stroke="none" stroke-linecap="butt" stroke-width="2"/><path d="M 1 9.4207 C 1 4.7701 4.7701 1 9.4207 1 C 14.0713 1 17.8414 4.7701 17.8414 9.4207 C 17.8414 14.0714 14.0713 17.8415 9.4207 17.8415 C 4.7701 17.8415 1 14.0714 1 9.4207 Z " fill="none" stroke="#000000" stroke-linecap="butt" stroke-width="2"/><g><path d="M 13.1351 6.3763 C 13.9306 7.2609 14.4147 8.4312 14.4147 9.7145 C 14.4147 12.4726 12.1788 14.7085 9.4207 14.7085 C 6.6626 14.7085 4.4267 12.4726 4.4267 9.7145 C 4.4267 8.487 4.8696 7.363 5.6042 6.4934 " stroke-linecap="butt" stroke-width="2" fill="none" stroke="#000000"/><path d="M 9.4207 4.133 L 9.4207 10.8896 " stroke-linecap="round" stroke-width="2" fill="none" stroke="#000000"/></g></g></g></svg>