<svg version="1.1" xmlns="http://www.w3.org/2000/svg" xmlns:xlink="http://www.w3.org/1999/xlink" width="77.9033" height="77.9033" viewBox="0,0,77.9033,77.9033"><g transform="translate(-206.11203,-122.84881)"><g data-paper-data="{&quot;isPaintingLayer&quot;:true}" fill-rule="nonzero" stroke-linejoin="miter" stroke-miterlimit="10" stroke-dasharray="" stroke-dashoffset="0" style="mix-blend-mode: normal"><g><path d="M206.11203,161.80046c0,-21.5124 17.43925,-38.95165 38.95165,-38.95165c21.5124,0 38.95165,17.43925 38.95165,38.95165c0,21.5124 -17.43925,38.95165 -38.95165,38.95165c-21.5124,0 -38.95165,-17.43925 -38.95165,-38.95165z" fill="#000000" stroke="none" stroke-width="0" stroke-linecap="butt"/><path d="M210.57345,161.80046c0,-19.04843 15.4418,-34.49023 34.49023,-34.49023c19.04843,0 34.49023,15.4418 34.49023,34.49023c0,19.04843 -15.4418,34.49023 -34.49023,34.49023c-19.04843,0 -34.49023,-15.4418 -34.49023,-34.49023z" fill="#ffffff" stroke="none" stroke-width="0" stroke-linecap="butt"/><path d="M231.50782,156.13788c0,-7.58146 6.14599,-13.72745 13.72745,-13.72745c7.58146,0 13.72745,6.14599 13.72745,13.72745c0,7.58146 -6.14599,13.72745 -13.72745,13.72745c-7.58146,0 -13.72745,-6.14599 -13.72745,-13.72745z" fill="#ffffff" stroke="#000000" stroke-width="3.5" stroke-linecap="butt"/><path d="M217.43718,186.68147c0,0 4.16686,-9.84679 7.17976,-13.01767c4.35154,-4.57971 11.00912,-7.57351 11.00912,-7.57351" fill="none" stroke="#000000" stroke-width="3.5" stroke-linecap="round"/><path d="M255.38307,165.5993c0,0 6.65758,2.9938 11.00912,7.57351c3.0129,3.17088 7.17976,13.01767 7.17976,13.01767" data-paper-data="{&quot;index&quot;:null}" fill="none" stroke="#000000" stroke-width="3.5" stroke-linecap="round"/></g></g></g></svg>