<svg xmlns="http://www.w3.org/2000/svg" xmlns:xlink="http://www.w3.org/1999/xlink" version="1.1" width="277.6547459205112" height="255.30893598398777" viewBox="0.593830176188491 0.42813021738722146 277.6547459205112 255.30893598398777">
  <!-- Exported by Scratch - http://scratch.mit.edu/ -->
  <path id="ID0.35631169052794576" fill="none" stroke="#000000" stroke-width="8.213339670511202" d="M 4.7005 4.5348 L 274.1419 4.5348 L 274.1419 251.6304 L 4.7005 251.6304 L 4.7005 4.5348 Z "/>
  <path id="ID0.620006671641022" fill="none" stroke="#000000" stroke-width="3.6666667461395264" d="M 78.2 46.1833 L 109 46.1833 L 109 75.5167 L 78.2 75.5167 L 78.2 46.1833 Z "/>
  <text id="ID0.6498158969916403" fill="#000000" text-anchor="start" font-family="Sans Serif" font-size="22" transform="matrix(1,0,0,1,181,40.15)" stroke-width="1" alignment-baseline="text-before-edge" xml:space="preserve"><tspan x="0" style="white-space: pre" dy="1.13em">=</tspan></text>
  <path id="ID0.771618727594614" fill="none" stroke="#000000" stroke-width="3.999999984848003" stroke-linecap="round" d="M 100.0083 60.71 L 85.3271 60.5515 "/>
  <path id="ID0.018074522260576487" fill="#000000" stroke="none" d="M 92.625 51.25 C 93.418 51.25 94.137 51.558 94.657 52.056 C 95.178 52.554 95.5 53.241 95.5 54 C 95.5 54.759 95.178 55.446 94.657 55.944 C 94.137 56.442 93.418 56.75 92.625 56.75 C 91.832 56.75 91.113 56.442 90.593 55.944 C 90.072 55.446 89.75 54.759 89.75 54 C 89.75 53.241 90.072 52.554 90.593 52.056 C 91.113 51.558 91.832 51.25 92.625 51.25 Z " stroke-width="1"/>
  <path id="ID0.08277909085154533" fill="#000000" stroke="none" d="M 92.25 64.75 C 93.078 64.75 93.828 65.058 94.371 65.556 C 94.914 66.054 95.25 66.741 95.25 67.5 C 95.25 68.259 94.914 68.946 94.371 69.444 C 93.828 69.942 93.078 70.25 92.25 70.25 C 91.422 70.25 90.672 69.942 90.129 69.444 C 89.586 68.946 89.25 68.259 89.25 67.5 C 89.25 66.741 89.586 66.054 90.129 65.556 C 90.672 65.058 91.422 64.75 92.25 64.75 Z " stroke-width="1"/>
</svg>