<svg xmlns="http://www.w3.org/2000/svg" xmlns:xlink="http://www.w3.org/1999/xlink" version="1.1" width="256.18737" height="67.63495" viewBox="0,0,256.18737,67.63495"><g><g data-paper-data="{&quot;isPaintingLayer&quot;:true}" fill-rule="nonzero" stroke-linecap="butt" stroke-linejoin="miter" stroke-miterlimit="10" stroke-dasharray="" stroke-dashoffset="0" style="mix-blend-mode: normal"><path d="M180.22778,179.28855c0,-18.67551 15.13947,-33.81498 33.81498,-33.81498c18.67551,0 33.81498,15.13947 33.81498,33.81498c0,18.67551 -15.13947,33.81498 -33.81498,33.81498c-18.67551,0 -33.81498,-15.13947 -33.81498,-33.81498z" stroke-width="0" fill="#403e3e" stroke="none" transform="matrix(1,0,0,1,-180.22778,-145.46858)"/><path d="M216.34578,213.10353v-67.62996h187.37259v67.62996z" stroke-width="0" fill="#403e3e" stroke="none" transform="matrix(1,0,0,1,-180.22778,-145.46858)"/><path d="M368.78519,179.28355c0,-18.67547 15.13947,-33.81498 33.81498,-33.81498c18.67547,0 33.81498,15.13951 33.81498,33.81498c0,18.67547 -15.13951,33.81498 -33.81498,33.81498c-18.67547,0 -33.81498,-15.13947 -33.81498,-33.81498z" stroke-width="0" fill="#403e3e" stroke="none" transform="matrix(1,0,0,1,-180.22778,-145.46858)"/></g></g></svg>