<svg version="1.1" xmlns="http://www.w3.org/2000/svg" xmlns:xlink="http://www.w3.org/1999/xlink" width="256.76981" height="29.72181" viewBox="0,0,256.76981,29.72181"><g transform="translate(-111.42392,-165.12604)"><g data-paper-data="{&quot;isPaintingLayer&quot;:true}" fill="#ffffff" fill-rule="nonzero" stroke="#000000" stroke-width="0" stroke-linecap="butt" stroke-linejoin="miter" stroke-miterlimit="10" stroke-dasharray="" stroke-dashoffset="0" style="mix-blend-mode: normal"><path d="M126.35714,194.83173v-29.66347h227.28571v29.66347z"/><path d="M338.47192,179.98694c0,-8.20745 6.65346,-14.86091 14.86091,-14.86091c8.20745,0 14.86091,6.65346 14.86091,14.86091c0,8.20745 -6.65346,14.86091 -14.86091,14.86091c-8.20745,0 -14.86091,-6.65346 -14.86091,-14.86091z"/><path d="M111.42392,179.98694c0,-8.20745 6.65345,-14.8609 14.8609,-14.8609c8.20745,0 14.86091,6.65345 14.86091,14.8609c0,8.20745 -6.65346,14.86091 -14.86091,14.86091c-8.20745,0 -14.8609,-6.65346 -14.8609,-14.86091z"/></g></g></svg>