<svg version="1.1" xmlns="http://www.w3.org/2000/svg" xmlns:xlink="http://www.w3.org/1999/xlink" width="658.5" height="582.5" viewBox="0,0,658.5,582.5"><g transform="translate(87.75,111.53334)"><g data-paper-data="{&quot;isPaintingLayer&quot;:true}" fill-rule="nonzero" stroke-linecap="butt" stroke-linejoin="miter" stroke-miterlimit="10" stroke-dasharray="" stroke-dashoffset="0" style="mix-blend-mode: normal"><path d="M-87,470.21666v-144h657v144z" data-paper-data="{&quot;origPos&quot;:null}" fill="#cccccc" stroke="#000000" stroke-width="1.5"/><path d="M119,344.21666v-145h25v145z" fill="#cccccc" stroke="#000000" stroke-width="1.5"/><path d="M70,300.21666v-14h58v14z" data-paper-data="{&quot;origPos&quot;:null}" fill="#cccccc" stroke="#000000" stroke-width="1.5"/><path d="M94,251.21666v-11h37v11z" fill="#cccccc" stroke="#000000" stroke-width="1.5"/><path d="M208,234.21666v-264h24v264z" data-paper-data="{&quot;origPos&quot;:null}" fill="#cccccc" stroke="#000000" stroke-width="1.5"/><path d="M-30,31.21666v-142h532v142z" data-paper-data="{&quot;origPos&quot;:null}" fill="#cccccc" stroke="#000000" stroke-width="1.5"/><path d="M325,345.21666v-161h20v161z" fill="#cccccc" stroke="#000000" stroke-width="1.5"/><path d="M269,296.21666v-17h59v17z" fill="#cccccc" stroke="#000000" stroke-width="1.5"/><path d="M292,241.21666v-16h35v16z" fill="#cccccc" stroke="#000000" stroke-width="1.5"/><path d="M340,237.21666v-14h141v14z" data-paper-data="{&quot;origPos&quot;:null}" fill="#cccccc" stroke="#000000" stroke-width="1.5"/><path d="M209,36.21666v-42h22v42z" fill="#cccccc" stroke="none" stroke-width="0"/><path d="M326,265.21666v-43h11v43z" fill="#cccccc" stroke="none" stroke-width="0"/><path d="M337,259.21666v-38h7v38z" fill="#cccccc" stroke="none" stroke-width="0"/><path d="M327,315.21666v-37h11v37z" fill="#cccccc" stroke="none" stroke-width="0"/><path d="M120,319.21666v-37h21v37z" fill="#cccccc" stroke="none" stroke-width="0"/><path d="M121,271.21666v-42h18v42z" fill="#cccccc" stroke="none" stroke-width="0"/><path d="M113,384.21666v-57h298v57z" fill="#cccccc" stroke="none" stroke-width="0"/><path d="M342,328.21666v-92h199v92z" fill="#cccccc" stroke="none" stroke-width="0"/><text transform="translate(15,55.21666) scale(0.5,0.5)" font-size="40" xml:space="preserve" fill="#000000" fill-rule="nonzero" stroke="none" stroke-width="1" stroke-linecap="butt" stroke-linejoin="miter" stroke-miterlimit="10" stroke-dasharray="" stroke-dashoffset="0" font-family="Sans Serif" font-weight="normal" text-anchor="start" style="mix-blend-mode: normal"><tspan x="0" dy="0">Now This Is Easy...</tspan></text></g></g></svg>