<svg version="1.1" xmlns="http://www.w3.org/2000/svg" xmlns:xlink="http://www.w3.org/1999/xlink" width="69.87997" height="94.43236" viewBox="0,0,69.87997,94.43236"><defs><linearGradient x1="233.0617" y1="179.15165" x2="234.8264" y2="184.0817" gradientUnits="userSpaceOnUse" id="color-1"><stop offset="0" stop-color="#43a1ff" stop-opacity="0"/><stop offset="1" stop-color="#43a1ff"/></linearGradient><linearGradient x1="233.0617" y1="179.15165" x2="234.8264" y2="184.0817" gradientUnits="userSpaceOnUse" id="color-2"><stop offset="0" stop-color="#43a1ff" stop-opacity="0"/><stop offset="1" stop-color="#43a1ff"/></linearGradient><linearGradient x1="233.04727" y1="178.97847" x2="234.81197" y2="183.90853" gradientUnits="userSpaceOnUse" id="color-3"><stop offset="0" stop-color="#43a1ff"/><stop offset="1" stop-color="#43a1ff" stop-opacity="0"/></linearGradient><linearGradient x1="233.04727" y1="178.97847" x2="234.81197" y2="183.90853" gradientUnits="userSpaceOnUse" id="color-4"><stop offset="0" stop-color="#43a1ff" stop-opacity="0"/><stop offset="1" stop-color="#43a1ff"/></linearGradient><linearGradient x1="224.25177" y1="151.85278" x2="225.49045" y2="155.31323" gradientUnits="userSpaceOnUse" id="color-5"><stop offset="0" stop-color="#43a1ff"/><stop offset="1" stop-color="#43a1ff" stop-opacity="0"/></linearGradient><linearGradient x1="224.25177" y1="151.85278" x2="225.49045" y2="155.31323" gradientUnits="userSpaceOnUse" id="color-6"><stop offset="0" stop-color="#43a1ff"/><stop offset="1" stop-color="#43a1ff" stop-opacity="0"/></linearGradient><linearGradient x1="224.91608" y1="160.06543" x2="226.01883" y2="159.67068" gradientUnits="userSpaceOnUse" id="color-7"><stop offset="0" stop-color="#43a1ff" stop-opacity="0"/><stop offset="1" stop-color="#43a1ff"/></linearGradient><linearGradient x1="224.91608" y1="160.06543" x2="226.01883" y2="159.67068" gradientUnits="userSpaceOnUse" id="color-8"><stop offset="0" stop-color="#43a1ff" stop-opacity="0"/><stop offset="1" stop-color="#43a1ff"/></linearGradient><linearGradient x1="224.39608" y1="151.80949" x2="225.63476" y2="155.26994" gradientUnits="userSpaceOnUse" id="color-9"><stop offset="0" stop-color="#43a1ff" stop-opacity="0"/><stop offset="1" stop-color="#43a1ff"/></linearGradient><linearGradient x1="224.39608" y1="151.80949" x2="225.63476" y2="155.26994" gradientUnits="userSpaceOnUse" id="color-10"><stop offset="0" stop-color="#43a1ff"/><stop offset="1" stop-color="#43a1ff" stop-opacity="0"/></linearGradient><linearGradient x1="224.82949" y1="160.07987" x2="225.93224" y2="159.68511" gradientUnits="userSpaceOnUse" id="color-11"><stop offset="0" stop-color="#43a1ff"/><stop offset="1" stop-color="#43a1ff" stop-opacity="0"/></linearGradient><linearGradient x1="224.82949" y1="160.07987" x2="225.93224" y2="159.68511" gradientUnits="userSpaceOnUse" id="color-12"><stop offset="0" stop-color="#43a1ff" stop-opacity="0"/><stop offset="1" stop-color="#43a1ff"/></linearGradient></defs><g transform="translate(-205.06001,-132.78382)"><g data-paper-data="{&quot;isPaintingLayer&quot;:true}" fill-rule="nonzero" stroke-miterlimit="10" stroke-dasharray="" stroke-dashoffset="0" style="mix-blend-mode: normal"><path d="M205.06002,132.78382h69.87997v94.43236h-69.87997z" fill="#ffffff" stroke="none" stroke-width="0.87838" stroke-linecap="butt" stroke-linejoin="miter"/><path d="M207.5,136.0811h65v87.8378h-65z" fill="#cccccc" stroke="none" stroke-width="0.87838" stroke-linecap="butt" stroke-linejoin="miter"/><text transform="translate(215.57267,203.41507) scale(0.85038,0.85038)" font-size="22" xml:space="preserve" fill="#ffffff" fill-rule="nonzero" stroke="none" stroke-width="1" stroke-linecap="butt" stroke-linejoin="miter" stroke-miterlimit="10" stroke-dasharray="" stroke-dashoffset="0" font-family="Sans Serif" font-weight="400" text-anchor="start" style="mix-blend-mode: normal"><tspan x="0" dy="0">Paint</tspan></text><path d="M214.24756,220.32554v-14.77272h46.31447v14.77272z" fill="#03c300" stroke="none" stroke-width="0" stroke-linecap="butt" stroke-linejoin="miter"/><text transform="translate(215.42814,217.91229) scale(0.3759,0.3759)" font-size="40" xml:space="preserve" fill="#ffffff" fill-rule="nonzero" stroke="none" stroke-width="1" stroke-linecap="butt" stroke-linejoin="miter" stroke-miterlimit="10" stroke-dasharray="" stroke-dashoffset="0" font-family="Sans Serif" font-weight="normal" text-anchor="start" style="mix-blend-mode: normal"><tspan x="0" dy="0">Install</tspan></text><g><path d="M239.72601,141.16345c6.44997,0 12.29468,2.61959 16.52684,6.85203c4.23244,4.23215 6.85202,10.07687 6.85202,16.52684c0,6.44997 -2.61958,12.29468 -6.85202,16.52684c-4.23215,4.23244 -10.07687,6.85202 -16.52684,6.85202c-6.44997,0 -12.29468,-2.61958 -16.52684,-6.85202c-4.23244,-4.23215 -6.85203,-10.07687 -6.85203,-16.52684c0,-6.44997 2.61959,-12.29468 6.85203,-16.52684c4.23215,-4.23244 10.07687,-6.85203 16.52684,-6.85203z" fill="#000000" stroke="#c8d2d6" stroke-width="1.5" stroke-linecap="butt" stroke-linejoin="miter"/><path d="M237.59896,182.11933c0.03992,-1.3879 -0.08168,-2.78878 0.35466,-4.15477c0.30422,-0.94811 -0.11269,-1.2422 1.87472,-2.33073c0.85102,0.09989 1.65563,0.41222 1.77336,2.22939c0.08208,1.37147 0.34821,2.77782 0.20268,4.15477c-0.07478,0.69008 -0.50201,1.35606 -0.86135,1.97603c-0.09383,0.15933 -0.00202,0.05839 -0.20268,0.05069c-0.92884,-0.03123 -1.86617,-0.05961 -2.73604,-0.15202c-0.21748,-0.02309 -0.15852,-0.00727 -0.20268,-0.15199c-0.1498,-0.52167 -0.21809,-1.09078 -0.20267,-1.62137z" fill="#4c2508" stroke="none" stroke-width="0.70219" stroke-linecap="round" stroke-linejoin="miter"/><path d="M238.81192,173.81662c-0.11833,-0.53648 -0.23466,-0.6674 -0.20268,-1.62137c0.00514,-3.81569 0.1871,-7.64033 0.30402,-11.45097c0.14498,-4.72366 0.14201,-9.47185 0.40532,-14.18702c0.06581,-1.17876 0.19566,-1.18828 0.45993,-1.21604c0.24242,-0.07357 0.48001,-0.08004 0.55344,1.01337c0.29371,4.37366 0.26643,8.78704 0.40535,13.17367c0.12971,4.09214 0.22559,8.17801 0.30401,12.26163c0.02696,1.02108 -0.01373,0.74157 -0.10133,1.2667c-0.23324,2.11631 -0.41098,6.2034 -0.8185,6.33351c-0.40737,0.13012 -0.89705,-3.71176 -1.30956,-5.5735z" fill="#ffa22b" stroke="#ffa22b" stroke-width="1.25286" stroke-linecap="round" stroke-linejoin="miter"/><path d="M238.07826,179.28843c-0.36018,-0.35406 -0.04173,-1.05063 -0.04477,-1.62137c-0.00037,-0.14246 0.05014,-0.23996 0.08954,-0.35466c0.14581,-0.42339 0.38777,-0.87313 0.51047,-1.36804c0.05891,-0.24158 0.01861,-0.50264 0.02687,-0.8107c0.01576,-0.67449 -0.26545,-1.42195 0,-2.02672c0.22351,-0.51682 0.78625,-0.71299 1.25371,-0.70936c0.39709,-0.07903 0.90467,0.09182 1.07465,0.50669c0.2656,0.64309 0.05533,1.42013 0.08956,2.12805c0.02185,0.41 -0.07918,0.76672 -0.01793,1.11472c0.19147,0.65118 0.61469,1.17324 0.7612,1.82404c0.10745,0.47809 0.31899,1.11694 0,1.4187c-0.44813,0.43311 -1.14036,0.34514 -1.71941,0.35466c-0.68739,-0.04396 -1.51503,0.04439 -2.02389,-0.456z" fill="#7f7f7f" stroke="#7f7f7f" stroke-width="1.32525" stroke-linecap="round" stroke-linejoin="miter"/><path d="M233.1734,175.65654l3.02379,8.44762" fill="none" stroke="#7f7f7f" stroke-width="1.49815" stroke-linecap="round" stroke-linejoin="miter"/><path d="M224.78495,155.62008l2.40606,-0.86124l8.59779,24.01967l-2.40605,0.86127z" fill="#43a1ff" stroke="#43a1ff" stroke-width="1.26735" stroke-linecap="butt" stroke-linejoin="miter"/><path d="M234.34422,178.95469c0.37233,-0.20516 0.78862,-0.83434 1.20303,-0.43063c0.53884,0.52499 0.61651,1.56476 0.7711,2.36484c0.0678,0.34408 -0.01642,0.62863 -0.04274,0.93383c-0.0532,0.57685 0.12559,1.44955 -0.1887,1.78984c-0.20689,0.21575 -0.61761,-0.37137 -0.89299,-0.5989c-0.32964,-0.32863 -0.67409,-0.62191 -0.90502,-1.05387c-0.41805,-0.78498 -0.9867,-1.69496 -0.97761,-2.52056c0.00751,-0.53382 0.70379,-0.3045 1.03294,-0.48455z" fill="url(#color-1)" stroke="url(#color-2)" stroke-width="1.26735" stroke-linecap="round" stroke-linejoin="round"/><path d="M234.32979,178.78151c0.37233,-0.20516 0.78862,-0.83434 1.20304,-0.43063c0.53884,0.52499 0.61651,1.56476 0.7711,2.36484c0.0678,0.34408 -0.01642,0.62863 -0.04274,0.93383c-0.0532,0.57685 0.12558,1.44955 -0.18871,1.78984c-0.20689,0.21575 -0.61761,-0.37137 -0.89299,-0.5989c-0.32964,-0.32863 -0.67408,-0.62191 -0.90501,-1.05387c-0.41805,-0.78498 -0.98671,-1.69496 -0.97762,-2.52056c0.00751,-0.53382 0.70379,-0.3045 1.03294,-0.48455z" fill="url(#color-3)" stroke="url(#color-4)" stroke-width="1.26735" stroke-linecap="round" stroke-linejoin="round"/><path d="M224.25177,151.85278l1.00255,-0.35884l1.23865,3.46045l-1.00252,0.35884z" fill="url(#color-5)" stroke="url(#color-6)" stroke-width="1.26735" stroke-linecap="round" stroke-linejoin="round"/><path d="M224.91608,160.06543l0.90228,-0.32297l0.42197,1.2842l0.14284,-0.33819l0.60099,2.3109l2.93572,8.30691l-0.80202,0.28707z" fill="url(#color-7)" stroke="url(#color-8)" stroke-width="1.26735" stroke-linecap="round" stroke-linejoin="round"/><path d="M224.39608,151.80949l1.00255,-0.35885l1.23865,3.46045l-1.00252,0.35885z" fill="url(#color-9)" stroke="url(#color-10)" stroke-width="1.26735" stroke-linecap="round" stroke-linejoin="round"/><path d="M224.82949,160.07987l0.90228,-0.32298l0.42197,1.2842l0.14284,-0.33818l0.60099,2.31089l2.93572,8.30692l-0.80202,0.28707z" fill="url(#color-11)" stroke="url(#color-12)" stroke-width="1.26735" stroke-linecap="round" stroke-linejoin="round"/><path d="M253.07837,154.18819l3.35694,1.26032l-9.10223,24.24466l-3.35695,-1.26032z" fill="#ff9400" stroke="#ff9400" stroke-width="0.69019" stroke-linecap="butt" stroke-linejoin="miter"/><path d="M243.98774,178.54359l3.26372,1.22532l-3.65631,4.2129l0.29936,-5.47322z" fill="#ffd499" stroke="#ffd499" stroke-width="0.69019" stroke-linecap="round" stroke-linejoin="miter"/><path d="M243.65795,182.47575l1.03786,0.38964l-1.16268,1.33967l0.09519,-1.74045z" fill="#7f7f7f" stroke="#7f7f7f" stroke-width="0.43895" stroke-linecap="round" stroke-linejoin="miter"/><path d="M255.38121,153.13343c0.49526,0.18594 0.91657,0.42751 1.19717,0.66777c0.28049,0.24 0.42045,0.47872 0.35279,0.65888c-0.06763,0.18016 -0.33011,0.26782 -0.69923,0.26392c-0.36938,-0.00378 -0.8456,-0.09914 -1.34085,-0.2851c-0.49529,-0.18594 -0.91659,-0.42751 -1.1972,-0.66777c-0.28049,-0.24 -0.42042,-0.47873 -0.35279,-0.65889c0.06763,-0.18016 0.33011,-0.26778 0.69926,-0.26389c0.36936,0.00375 0.84556,0.09912 1.34085,0.28508z" fill="#ff8b64" stroke="none" stroke-width="0.63641" stroke-linecap="round" stroke-linejoin="miter"/><path d="M253.38763,152.99394l0.0839,0.32993l0.36685,0.29573l0.376,0.29914l0.98849,0.49398l0.50813,0.08547l0.48241,-0.01201l0.79912,-0.1915l-1.15529,3.0772l-3.55117,-1.33323z" fill="#a7ae9f" stroke="none" stroke-width="0.93571" stroke-linecap="round" stroke-linejoin="miter"/><path d="M255.48763,152.63098c0.42468,0.15944 0.78596,0.36659 1.02656,0.57261c0.24052,0.20579 0.36053,0.41049 0.30251,0.56496c-0.05799,0.15451 -0.28306,0.22967 -0.5996,0.22632c-0.31672,-0.00323 -0.72507,-0.085 -1.14975,-0.24447c-0.42468,-0.15944 -0.78596,-0.36659 -1.02656,-0.57258c-0.24052,-0.20582 -0.36049,-0.41052 -0.30251,-0.56499c0.05799,-0.15447 0.28306,-0.22963 0.5996,-0.22631c0.31672,0.00323 0.72507,0.08503 1.14975,0.24447z" fill="#f38662" stroke="none" stroke-width="0.54571" stroke-linecap="round" stroke-linejoin="miter"/><path d="M255.02583,153.59722c0.3994,0.17058 0.84363,0.23737 1.27643,0.26938c0.19298,0.00695 0.51494,-0.26355 0.55985,-0.15473c0.0564,0.13704 -0.11926,0.57578 -0.35311,0.62464c-0.52059,0.11089 -1.08949,-0.04026 -1.60933,-0.18455c-0.37256,-0.10356 -0.70321,-0.33917 -1.0394,-0.53618c-0.13684,-0.08751 -0.34797,-0.15161 -0.37476,-0.31403c-0.03631,-0.22164 0.12708,-0.43617 0.23717,-0.63169c0.02857,-0.05037 -0.06263,0.01666 0.03995,0.088c0.41054,0.28569 0.79875,0.64015 1.26321,0.83916z" fill="#f38662" stroke="#f38662" stroke-width="0.59183" stroke-linecap="round" stroke-linejoin="miter"/></g></g></g></svg>