<svg version="1.1" xmlns="http://www.w3.org/2000/svg" xmlns:xlink="http://www.w3.org/1999/xlink" width="74.0483" height="27.922" viewBox="0,0,74.0483,27.922"><g transform="translate(-202.97585,-163.23418)"><g data-paper-data="{&quot;isPaintingLayer&quot;:true}" fill-rule="nonzero" stroke="none" stroke-linecap="butt" stroke-linejoin="miter" stroke-miterlimit="10" stroke-dasharray="" stroke-dashoffset="0" style="mix-blend-mode: normal"><path d="M202.97585,180.00122c0,-6.16071 4.99424,-11.15495 11.15495,-11.15495c6.16071,0 11.15495,4.99424 11.15495,11.15495c0,6.16071 -4.99424,11.15495 -11.15495,11.15495c-6.16071,0 -11.15495,-4.99424 -11.15495,-11.15495z" fill="#000000" stroke-width="0"/><path d="M213.9896,191.15618v-22.30991h51.6507v22.30991z" fill="#000000" stroke-width="0"/><path d="M254.71425,179.99877c0,-6.16071 4.99424,-11.15495 11.15495,-11.15495c6.16071,0 11.15495,4.99425 11.15495,11.15495c0,6.16071 -4.99425,11.15495 -11.15495,11.15495c-6.16071,0 -11.15495,-4.99424 -11.15495,-11.15495z" fill="#000000" stroke-width="0"/><text transform="translate(235.42473,182.91305) scale(0.28362,0.26327)" font-size="22" xml:space="preserve" fill="#ffffff" fill-rule="nonzero" stroke="none" stroke-width="1" stroke-linecap="butt" stroke-linejoin="miter" stroke-miterlimit="10" stroke-dasharray="" stroke-dashoffset="0" font-family="Sans Serif" font-weight="400" text-anchor="start" style="mix-blend-mode: normal"><tspan x="0" dy="0">Calculator</tspan></text><path d="M209.94667,182.35223v-11.80597h10.90551v11.80597z" fill="#78909c" stroke-width="0"/><path d="M210.00793,188.37681v-8.56829h15.6639v8.56829z" fill="#607d8b" stroke-width="0"/><path d="M218.97786,188.37681v-17.80597h8.70216v17.80597z" fill="#3e505a" stroke-width="0"/><path d="M217.3425,184.13643c0,-3.39573 2.75278,-6.14851 6.14851,-6.14851c3.39573,0 6.14851,2.75277 6.14851,6.14851c0,3.39573 -2.75277,6.14851 -6.14851,6.14851c-3.39573,0 -6.14851,-2.75278 -6.14851,-6.14851z" fill="#04a5f5" stroke-width="0"/><text transform="translate(220.58442,187.70741) scale(0.25366,0.25366)" font-size="40" xml:space="preserve" fill="#ffffff" fill-rule="nonzero" stroke="none" stroke-width="1" stroke-linecap="butt" stroke-linejoin="miter" stroke-miterlimit="10" stroke-dasharray="" stroke-dashoffset="0" font-family="Sans Serif" font-weight="normal" text-anchor="start" style="mix-blend-mode: normal"><tspan x="0" dy="0">=</tspan></text><text transform="translate(211.04788,187.79695) scale(0.25366,0.25366)" font-size="40" xml:space="preserve" fill="#ffffff" fill-rule="nonzero" stroke="none" stroke-width="1" stroke-linecap="butt" stroke-linejoin="miter" stroke-miterlimit="10" stroke-dasharray="" stroke-dashoffset="0" font-family="Sans Serif" font-weight="normal" text-anchor="start" style="mix-blend-mode: normal"><tspan x="0" dy="0">+</tspan></text><text transform="translate(212.33753,174.11778) scale(0.25366,0.25366)" font-size="40" xml:space="preserve" fill="#ffffff" fill-rule="nonzero" stroke="none" stroke-width="1" stroke-linecap="butt" stroke-linejoin="miter" stroke-miterlimit="10" stroke-dasharray="" stroke-dashoffset="0" font-family="Sans Serif" font-weight="normal" text-anchor="start" style="mix-blend-mode: normal"><tspan x="0" dy="0">_</tspan></text><text transform="translate(221.77281,176.5273) scale(0.15425,0.15425)" font-size="40" xml:space="preserve" fill="#ffffff" fill-rule="nonzero" stroke="none" stroke-width="1" stroke-linecap="butt" stroke-linejoin="miter" stroke-miterlimit="10" stroke-dasharray="" stroke-dashoffset="0" font-family="Sans Serif" font-weight="normal" text-anchor="start" style="mix-blend-mode: normal"><tspan x="0" dy="0">x</tspan></text></g></g></svg>