<svg version="1.1" xmlns="http://www.w3.org/2000/svg" xmlns:xlink="http://www.w3.org/1999/xlink" width="646.5" height="432.5" viewBox="0,0,646.5,432.5"><g transform="translate(89.75,-19.46666)"><g data-paper-data="{&quot;isPaintingLayer&quot;:true}" fill-rule="nonzero" stroke-linecap="butt" stroke-linejoin="miter" stroke-miterlimit="10" stroke-dasharray="" stroke-dashoffset="0" style="mix-blend-mode: normal"><path d="M-27,451.21666v-121h583v121z" data-paper-data="{&quot;origPos&quot;:null}" fill="#cccccc" stroke="#000000" stroke-width="1.5"/><path d="M133,338.21666v-136h31v136z" data-paper-data="{&quot;origPos&quot;:null}" fill="#cccccc" stroke="#000000" stroke-width="1.5"/><path d="M84,277.21666v-18h67v18z" fill="#cccccc" stroke="#000000" stroke-width="1.5"/><path d="M-89,228.21666v-113h105v113z" data-paper-data="{&quot;origPos&quot;:null}" fill="#cccccc" stroke="#000000" stroke-width="1.5"/><path d="M8,205.21666v-18h57v18z" fill="#cccccc" stroke="#000000" stroke-width="1.5"/><path d="M-1,213.21666v-27h16v27z" fill="#cccccc" stroke="none" stroke-width="0"/><path d="M134,315.21666v-58h26v58z" data-paper-data="{&quot;origPos&quot;:null}" fill="#cccccc" stroke="none" stroke-width="0"/><path d="M-10,120.21666v-21h261v21z" data-paper-data="{&quot;origPos&quot;:null}" fill="#cccccc" stroke="#000000" stroke-width="1.5"/><path d="M219,280.21666v-172h32v172z" fill="#cccccc" stroke="#000000" stroke-width="1.5"/><path d="M-21,125.21666v-14h36v14z" fill="#cccccc" stroke="none" stroke-width="0"/><path d="M213,118.21666v-15h37v15z" fill="#cccccc" stroke="none" stroke-width="0"/><path d="M125,362.21666v-31h91v31z" fill="#cccccc" stroke="none" stroke-width="0"/><path d="M318,346.21666v-91h23v91z" fill="#cccccc" stroke="#000000" stroke-width="1.5"/><path d="M379,342.21666v-168h26v168z" fill="#cccccc" stroke="#000000" stroke-width="1.5"/><path d="M440,343.21666v-228h25v228z" fill="#cccccc" stroke="#000000" stroke-width="1.5"/><text transform="translate(17,41.21666) scale(0.5,0.5)" font-size="40" xml:space="preserve" data-paper-data="{&quot;origPos&quot;:null}" fill="#000000" fill-rule="nonzero" stroke="none" stroke-width="1" stroke-linecap="butt" stroke-linejoin="miter" stroke-miterlimit="10" stroke-dasharray="" stroke-dashoffset="0" font-family="Sans Serif" font-weight="normal" text-anchor="start" style="mix-blend-mode: normal"><tspan x="0" dy="0">I Guess Since You're A Ninja Master,</tspan><tspan x="0" dy="46.150000000000006px">You Can Do This!</tspan></text><path d="M309,374.21666v-43h197v43z" fill="#cccccc" stroke="none" stroke-width="0"/><path d="M342,329.21666v-59h36v59z" fill="#00ff6b" stroke="none" stroke-width="0"/><path d="M406,329.21666v-107h33v107z" fill="#00ff6b" stroke="none" stroke-width="0"/><path d="M466,329.21666v-162h39v162z" fill="#00ff6b" stroke="none" stroke-width="0"/></g></g></svg>