<svg version="1.1" xmlns="http://www.w3.org/2000/svg" xmlns:xlink="http://www.w3.org/1999/xlink" width="69.87997" height="94.43236" viewBox="0,0,69.87997,94.43236"><g transform="translate(-205.06001,-132.78382)"><g data-paper-data="{&quot;isPaintingLayer&quot;:true}" fill-rule="nonzero" stroke-linejoin="miter" stroke-miterlimit="10" stroke-dasharray="" stroke-dashoffset="0" style="mix-blend-mode: normal"><path d="M205.06002,132.78382h69.87997v94.43236h-69.87997z" fill="#ffffff" stroke="none" stroke-width="0.87838" stroke-linecap="butt"/><path d="M207.5,136.0811h65v87.8378h-65z" fill="#cccccc" stroke="none" stroke-width="0.87838" stroke-linecap="butt"/><path d="M214.39525,191.94316v-50.82328h47.81153v50.82328z" fill="#000000" stroke="none" stroke-width="0" stroke-linecap="butt"/><text transform="translate(208.66054,207.11917) scale(0.68503,0.68503)" font-size="22" xml:space="preserve" fill="#ffffff" fill-rule="nonzero" stroke="none" stroke-width="1" stroke-linecap="butt" stroke-linejoin="miter" stroke-miterlimit="10" stroke-dasharray="" stroke-dashoffset="0" font-family="Sans Serif" font-weight="400" text-anchor="start" style="mix-blend-mode: normal"><tspan x="0" dy="0">Installed</tspan></text><g stroke="none" stroke-width="0" stroke-linecap="butt"><path d="M219.77096,184.89371v-8.47851h3.19624v8.47851z" fill="#804000"/><path d="M219.77243,176.01959v-2.21551h3.20089v2.21551z" fill="#42ff00"/><path d="M219.77243,176.49929v-0.71678h3.19696v0.71678z" fill="#592d00"/><path d="M220.55278,182.41245v-1.9012h1.69421v1.9012z" fill="#b3b3b3"/></g><g stroke="none" stroke-width="0" stroke-linecap="butt"><path d="M223.26509,183.11727v-8.47851h3.19624v8.47851z" fill="#804000"/><path d="M223.26655,174.24315v-2.21551h3.20089v2.21551z" fill="#42ff00"/><path d="M223.26655,174.72285v-0.71679h3.19696v0.71679z" fill="#592d00"/><path d="M224.04691,180.63602v-1.9012h1.69421v1.9012z" fill="#b3b3b3"/></g><g stroke="none" stroke-width="0" stroke-linecap="butt"><path d="M226.75921,181.34084v-8.47851h3.19624v8.47851z" fill="#804000"/><path d="M226.76068,172.46671v-2.21551h3.20089v2.21551z" fill="#42ff00"/><path d="M226.76068,172.94642v-0.71679h3.19696v0.71679z" fill="#592d00"/><path d="M227.54104,178.85958v-1.9012h1.69421v1.9012z" fill="#b3b3b3"/></g><g stroke="none" stroke-width="0" stroke-linecap="butt"><path d="M230.25334,185.96437v-8.47851h3.19624v8.47851z" fill="#804000"/><path d="M230.2548,177.09024v-2.21551h3.20089v2.21551z" fill="#42ff00"/><path d="M230.2548,177.56995v-0.71679h3.19696v0.71679z" fill="#592d00"/><path d="M231.03516,183.48311v-1.9012h1.69421v1.9012z" fill="#b3b3b3"/></g><g stroke="none" stroke-width="0" stroke-linecap="butt"><path d="M234.12393,183.81146v-8.47851h3.19624v8.47851z" fill="#804000"/><path d="M234.12539,174.93734v-2.21551h3.20089v2.21551z" fill="#42ff00"/><path d="M234.12539,175.41704v-0.71679h3.19696v0.71679z" fill="#592d00"/><path d="M234.90575,181.33021v-1.9012h1.69421v1.9012z" fill="#b3b3b3"/></g><g stroke="none" stroke-width="0" stroke-linecap="butt"><path d="M237.99452,182.03502v-8.47851h3.19624v8.47851z" fill="#804000"/><path d="M237.99599,173.1609v-2.21551h3.20089v2.21551z" fill="#42ff00"/><path d="M237.99599,173.6406v-0.71679h3.19696v0.71679z" fill="#592d00"/><path d="M238.77635,179.55377v-1.9012h1.69421v1.9012z" fill="#b3b3b3"/></g><g stroke="none" stroke-width="0" stroke-linecap="butt"><path d="M242.24159,185.90562v-8.47851h3.19624v8.47851z" fill="#804000"/><path d="M242.24305,177.03149v-2.21551h3.20089v2.21551z" fill="#42ff00"/><path d="M242.24305,177.5112v-0.71679h3.19696v0.71679z" fill="#592d00"/><path d="M243.02341,183.42436v-1.9012h1.69421v1.9012z" fill="#b3b3b3"/></g><g stroke="none" stroke-width="0" stroke-linecap="butt"><path d="M245.73571,191.28209v-8.47851h3.19624v8.47851z" fill="#804000"/><path d="M245.73718,182.40796v-2.21551h3.20089v2.21551z" fill="#42ff00"/><path d="M245.73718,182.88767v-0.71679h3.19696v0.71679z" fill="#592d00"/><path d="M246.51754,188.80083v-1.9012h1.69421v1.9012z" fill="#b3b3b3"/></g><g stroke="none" stroke-width="0" stroke-linecap="butt"><path d="M249.98277,188.75271v-8.47851h3.19623v8.47851z" fill="#804000"/><path d="M249.98424,179.87859v-2.21551h3.20089v2.21551z" fill="#42ff00"/><path d="M249.98424,180.35829v-0.71679h3.19696v0.71679z" fill="#592d00"/><path d="M250.7646,186.27146v-1.9012h1.69421v1.9012z" fill="#b3b3b3"/></g><g stroke="none" stroke-width="0" stroke-linecap="butt"><path d="M253.85337,185.84687v-8.47851h3.19624v8.47851z" fill="#804000"/><path d="M253.85483,176.97274v-2.21551h3.20089v2.21551z" fill="#42ff00"/><path d="M253.85483,177.45245v-0.71679h3.19696v0.71679z" fill="#592d00"/><path d="M254.63519,183.36561v-1.9012h1.69421v1.9012z" fill="#b3b3b3"/></g><g stroke="none" stroke-width="0" stroke-linecap="butt"><path d="M256.97102,190.09393v-8.47851h3.19624v8.47851z" fill="#804000"/><path d="M256.97249,181.21981v-2.21551h3.20089v2.21551z" fill="#42ff00"/><path d="M256.97249,181.69951v-0.71679h3.19696v0.71679z" fill="#592d00"/><path d="M257.75285,187.61268v-1.9012h1.69421v1.9012z" fill="#b3b3b3"/></g><path d="M222.90728,169.4381v-2.01915h2.10328v2.01915z" fill="#ffffff" stroke="none" stroke-width="0" stroke-linecap="butt"/><path d="M222.3064,168.3865l-1.2019,1.0516" fill="none" stroke="#ffffff" stroke-width="0.5" stroke-linecap="round"/><path d="M222.6068,170.039l-1.2019,1.3521" fill="none" stroke="#ffffff" stroke-width="0.5" stroke-linecap="round"/><path d="M222.3064,172.1423l1.3521,-1.2019" fill="none" stroke="#ffffff" stroke-width="0.5" stroke-linecap="round"/></g></g></svg>