<svg version="1.1" xmlns="http://www.w3.org/2000/svg" xmlns:xlink="http://www.w3.org/1999/xlink" width="82.60732" height="39.01012" viewBox="0,0,82.60732,39.01012"><g transform="translate(-208.06358,-158.71791)"><g data-paper-data="{&quot;isPaintingLayer&quot;:true}" fill-rule="nonzero" stroke="none" stroke-linecap="butt" stroke-linejoin="miter" stroke-miterlimit="10" stroke-dasharray="" stroke-dashoffset="0" style="mix-blend-mode: normal"><path d="M268.44681,174.80865v-10.91858h22.22409v10.91858z" fill="#6d7272" stroke-width="NaN"/><path d="M286.99522,164.70159l-15.36371,0.13096l-0.02826,-5.98368l15.36372,-0.13096z" fill="#6d7272" stroke-width="0"/><path d="M268.42764,197.30598v-22.73527h22.23585v22.73527z" fill="#9966ff" stroke-width="NaN"/><path d="M231.0555,160.97723c4.14122,0 19.64761,1.86688 21.53053,7.8151c0.4881,1.54192 -2.29681,3.3782 -3.77925,5.36952c-7.16081,9.61894 -17.36879,23.56618 -17.36879,23.56618c0,0 -13.37561,-13.92148 -20.56867,-22.2685c-0.96547,-1.78499 -3.05336,-3.11152 -2.78155,-4.43284c1.68298,-8.18135 17.89134,-10.04945 22.96774,-10.04945z" fill="#6d7272" stroke-width="0"/></g></g></svg>