<svg version="1.1" xmlns="http://www.w3.org/2000/svg" xmlns:xlink="http://www.w3.org/1999/xlink" width="82.44286" height="40.10025" viewBox="0,0,82.44286,40.10025"><g transform="translate(-198.86879,-161.26196)"><g data-paper-data="{&quot;isPaintingLayer&quot;:true}" fill-rule="nonzero" stroke-linejoin="miter" stroke-miterlimit="10" stroke-dasharray="" stroke-dashoffset="0" style="mix-blend-mode: normal"><path d="M222.6295,190.68097v-29.41901h32.59298v29.41901z" fill="#000000" stroke="none" stroke-width="0" stroke-linecap="butt"/><g stroke="none" stroke-width="0" stroke-linecap="butt"><path d="M223.63749,185.2383v-6.546h2.46772v6.546z" fill="#804000"/><path d="M223.63863,178.38687v-1.71053h2.47131v1.71053z" fill="#42ff00"/><path d="M223.63863,178.75723v-0.55341h2.46827v0.55341z" fill="#592d00"/><path d="M224.24111,183.3226v-1.46786h1.30804v1.46786z" fill="#b3b3b3"/></g><g stroke="none" stroke-width="0" stroke-linecap="butt"><path d="M226.3352,183.86677v-6.546h2.46772v6.546z" fill="#804000"/><path d="M226.33633,177.01533v-1.71053h2.47131v1.71053z" fill="#42ff00"/><path d="M226.33633,177.3857v-0.55341h2.46827v0.55341z" fill="#592d00"/><path d="M226.93883,181.95107v-1.46786h1.30804v1.46786z" fill="#b3b3b3"/></g><g stroke="none" stroke-width="0" stroke-linecap="butt"><path d="M229.03291,182.49524v-6.546h2.46772v6.546z" fill="#804000"/><path d="M229.03404,175.6438v-1.71053h2.47131v1.71053z" fill="#42ff00"/><path d="M229.03404,176.01417v-0.55341h2.46827v0.55341z" fill="#592d00"/><path d="M229.63653,180.57954v-1.46786h1.30804v1.46786z" fill="#b3b3b3"/></g><g stroke="none" stroke-width="0" stroke-linecap="butt"><path d="M231.73062,186.06493v-6.546h2.46772v6.546z" fill="#804000"/><path d="M231.73175,179.21348v-1.71053h2.47131v1.71053z" fill="#42ff00"/><path d="M231.73175,179.58385v-0.55341h2.46827v0.55341z" fill="#592d00"/><path d="M232.33423,184.14922v-1.46786h1.30804v1.46786z" fill="#b3b3b3"/></g><g stroke="none" stroke-width="0" stroke-linecap="butt"><path d="M234.71898,184.40273v-6.546h2.46772v6.546z" fill="#804000"/><path d="M234.72011,177.5513v-1.71053h2.47131v1.71053z" fill="#42ff00"/><path d="M234.72011,177.92166v-0.55341h2.46827v0.55341z" fill="#592d00"/><path d="M235.3226,182.48704v-1.46786h1.30804v1.46786z" fill="#b3b3b3"/></g><g stroke="none" stroke-width="0" stroke-linecap="butt"><path d="M237.70734,183.03119v-6.546h2.46772v6.546z" fill="#804000"/><path d="M237.70848,176.17976v-1.71053h2.47131v1.71053z" fill="#42ff00"/><path d="M237.70848,176.55012v-0.55341h2.46827v0.55341z" fill="#592d00"/><path d="M238.31097,181.1155v-1.46786h1.30804v1.46786z" fill="#b3b3b3"/></g><g stroke="none" stroke-width="0" stroke-linecap="butt"><path d="M240.98638,186.01957v-6.546h2.46772v6.546z" fill="#804000"/><path d="M240.98751,179.16812v-1.71053h2.47131v1.71053z" fill="#42ff00"/><path d="M240.98751,179.53849v-0.55341h2.46827v0.55341z" fill="#592d00"/><path d="M241.59,184.10386v-1.46786h1.30804v1.46786z" fill="#b3b3b3"/></g><g stroke="none" stroke-width="0" stroke-linecap="butt"><path d="M243.68408,190.17058v-6.546h2.46772v6.546z" fill="#804000"/><path d="M243.68522,183.31913v-1.71053h2.47131v1.71053z" fill="#42ff00"/><path d="M243.68522,183.6895v-0.55341h2.46827v0.55341z" fill="#592d00"/><path d="M244.28771,188.25487v-1.46786h1.30804v1.46786z" fill="#b3b3b3"/></g><g stroke="none" stroke-width="0" stroke-linecap="butt"><path d="M246.9631,188.21772v-6.546h2.46772v6.546z" fill="#804000"/><path d="M246.96424,181.36628v-1.71053h2.47131v1.71053z" fill="#42ff00"/><path d="M246.96424,181.73664v-0.55341h2.46827v0.55341z" fill="#592d00"/><path d="M247.56673,186.30202v-1.46786h1.30804v1.46786z" fill="#b3b3b3"/></g><g stroke="none" stroke-width="0" stroke-linecap="butt"><path d="M249.95148,185.97421v-6.546h2.46772v6.546z" fill="#804000"/><path d="M249.95261,179.12276v-1.71053h2.47131v1.71053z" fill="#42ff00"/><path d="M249.95261,179.49313v-0.55341h2.46827v0.55341z" fill="#592d00"/><path d="M250.5551,184.0585v-1.46786h1.30804v1.46786z" fill="#b3b3b3"/></g><g stroke="none" stroke-width="0" stroke-linecap="butt"><path d="M252.35852,189.25323v-6.546h2.46772v6.546z" fill="#804000"/><path d="M252.35965,182.4018v-1.71053h2.47131v1.71053z" fill="#42ff00"/><path d="M252.35965,182.77216v-0.55341h2.46827v0.55341z" fill="#592d00"/><path d="M252.96215,187.33754v-1.46786h1.30804v1.46786z" fill="#b3b3b3"/></g><path d="M226.05895,173.3055v-1.55893h1.62388v1.55893z" fill="#ffffff" stroke="none" stroke-width="0" stroke-linecap="butt"/><path d="M225.59499,172.49359l-0.92793,0.81188" fill="none" stroke="#ffffff" stroke-width="0.5" stroke-linecap="round"/><path d="M225.82699,173.76948l-0.92793,1.04389" fill="none" stroke="#ffffff" stroke-width="0.5" stroke-linecap="round"/><path d="M225.59499,175.39334l1.04389,-0.92793" fill="none" stroke="#ffffff" stroke-width="0.5" stroke-linecap="round"/><text transform="translate(198.95803,199.13108) scale(0.17849,0.17849)" font-size="40" xml:space="preserve" fill="#ffffff" fill-rule="nonzero" stroke="none" stroke-width="1" stroke-linecap="butt" stroke-linejoin="miter" stroke-miterlimit="10" stroke-dasharray="" stroke-dashoffset="0" font-family="Sans Serif" font-weight="normal" text-anchor="start" style="mix-blend-mode: normal"><tspan x="0" dy="0">Unfinishable platformer</tspan></text></g></g></svg>