<svg version="1.1" xmlns="http://www.w3.org/2000/svg" xmlns:xlink="http://www.w3.org/1999/xlink" width="35.7981" height="45.16619" viewBox="0,0,35.7981,45.16619"><g transform="translate(-221.87141,-159.41385)"><g data-paper-data="{&quot;isPaintingLayer&quot;:true}" stroke-linecap="butt" stroke-linejoin="miter" stroke-miterlimit="10" stroke-dasharray="" stroke-dashoffset="0" style="mix-blend-mode: normal"><text transform="translate(222.14611,201.009) scale(0.54939,0.54939)" font-size="22" xml:space="preserve" fill="#ffffff" fill-rule="nonzero" stroke="none" stroke-width="1" stroke-linecap="butt" stroke-linejoin="miter" stroke-miterlimit="10" stroke-dasharray="" stroke-dashoffset="0" font-family="Sans Serif" font-weight="400" text-anchor="start" style="mix-blend-mode: normal"><tspan x="0" dy="0">Catch</tspan></text><path d="M224.89627,160.41588h31.77122v25.55643l-31.70814,-1.32186z" fill="#99ffff" fill-rule="nonzero" stroke="#ccffff" stroke-width="2.00406"/><g fill-rule="nonzero" stroke="none" stroke-width="0.63025"><g><path d="M240.1092,183.92165c-0.12253,0 -0.19128,-0.00301 -0.19465,-0.00319c-8.36565,-0.7971 -8.21008,-6.0951 -8.19936,-6.32031c0.03579,-0.75033 0.40356,-1.5166 0.67458,-1.98616c0.40276,0.5555 1.16886,0.98688 2.28163,1.28385c1.0054,0.26836 2.52501,0.67413 5.1301,0.69708l0.16975,0.0008c0.07433,0 6.92773,-0.02525 8.12671,-2.06758c0.38903,0.63231 0.56029,1.90501 0.57756,2.71044c-1.22281,5.41033 -7.34794,5.68498 -8.56633,5.68498c0.00018,0 0,0 0,0z" fill="#65cbeb"/><path d="M248.04198,176.04762c-1.73836,1.76573 -7.34387,1.82429 -8.07054,1.82429c-0.05874,0 -0.11597,-0.00035 -0.17223,-0.00071c-2.64027,-0.02339 -4.18026,-0.43448 -5.19939,-0.70665c-0.96039,-0.25649 -1.68201,-0.61495 -2.15485,-1.06972c-0.21352,0.42748 -0.42633,0.97953 -0.45193,1.51651c-0.01294,0.27155 -0.01763,1.6992 1.16372,3.13429c1.3309,1.61707 3.61271,2.59092 6.78243,2.89534c0.0241,0.00097 0.08248,0.00239 0.17002,0.00239c1.17789,0 7.09305,-0.26269 8.28751,-5.43479c-0.01781,-0.65251 -0.13564,-1.55709 -0.35483,-2.16096M248.04198,176.04762l-15.56236,-1.05784v0c-0.028,0.10047 -0.01958,0.20678 0.04377,0.31726c0.36608,0.64047 1.23309,1.05678 2.2197,1.32018c0.9867,0.2634 2.4909,0.66492 5.06082,0.68769c0.05466,0.00062 0.1103,0.0008 0.16736,0.0008c2.6292,0 7.80262,-0.52104 8.01968,-2.31539c0.92105,0.62842 0.96313,3.26426 0.96313,3.26426c-1.25417,5.65832 -7.61338,5.93492 -8.84487,5.93492c-0.13352,0 -0.20687,-0.00337 -0.20687,-0.00337c-7.78526,-0.74147 -8.52672,-5.31376 -8.46497,-6.61126c0.06175,-1.29759 1.01948,-2.59509 1.01948,-2.59509h0.02277c0,0.00018 0,0 0,0z" fill="#000000"/></g><g><path d="M239.77679,177.59292c-2.60005,-0.02428 -4.11691,-0.45432 -5.12062,-0.73881c-1.08682,-0.30805 -1.81597,-0.75848 -2.10904,-1.30273c-0.02746,-0.05094 -0.03376,-0.09382 -0.02055,-0.14326c0.06335,-0.24231 0.5314,-0.52981 0.93957,-0.69478l0.04634,-0.01816c1.96614,-0.69602 4.17982,-1.0512 6.56741,-1.0512c3.57452,0 6.46189,0.79834 7.05478,1.07344c0.58554,0.2719 0.72844,0.56055 0.75901,0.64578c-0.26171,1.53813 -4.78369,2.23069 -7.94721,2.23069z" fill="#660000"/><path d="M240.07988,173.92183c-2.34613,0 -4.51985,0.34703 -6.46171,1.03118l-0.03172,0.01169l-0.00478,0.00204l-0.00913,0.0039l-0.01054,0.0039c-0.40462,0.16479 -0.67865,0.36963 -0.75165,0.47762c0.27004,0.46274 0.9331,0.85416 1.92184,1.13448c0.98927,0.28041 2.48443,0.70434 5.04727,0.72826c0.05431,0.00053 0.10986,0.00071 0.16683,0.00071c1.28917,0 3.25841,-0.13511 4.91969,-0.51439c1.55443,-0.35474 2.55708,-0.87339 2.73339,-1.40497c-0.05785,-0.08603 -0.20953,-0.25383 -0.5819,-0.42677c-0.49774,-0.23097 -3.37784,-1.04766 -6.93756,-1.04766M240.07988,173.92183v-0.55603v0c3.67481,0 6.61241,0.8399 7.17164,1.09922c0.87649,0.40701 0.9246,0.88375 0.9246,0.88375c-0.22273,1.95524 -5.53171,2.52297 -8.23001,2.52297c-0.05865,0 -0.11606,-0.00018 -0.17205,-0.00071c-2.63752,-0.02472 -4.18123,-0.4623 -5.19389,-0.74944c-1.01266,-0.28714 -1.90235,-0.74049 -2.27809,-1.43846c-0.06485,-0.12049 -0.07345,-0.23629 -0.04465,-0.34588c0.11996,-0.4584 0.9075,-0.80224 1.10436,-0.88171c0.00097,-0.00035 0.00204,-0.0008 0.00284,-0.00115c0.01311,-0.00514 0.02295,-0.0093 0.03012,-0.01187c0.00115,-0.00053 0.00213,-0.00071 0.00301,-0.00106c0.0054,-0.00221 0.0093,-0.00372 0.0093,-0.00372c2.26214,-0.80136 4.58621,-1.07193 6.67284,-1.07193z" fill="#000000"/></g></g><g fill-rule="nonzero" stroke="none" stroke-width="1"><path d="M246.89367,174.57682c0,2.59943 -2.24114,4.70723 -5.00625,4.70723c-2.76501,0 -5.00607,-2.10692 -5.00607,-4.70723c0,-2.59934 2.24088,-3.80682 5.00607,-3.80682c2.76493,-0.00018 5.00625,1.20766 5.00625,3.80682z" fill="#ec1c2c"/><g fill="#231f20"><path d="M247.45423,174.52659c0,2.89082 -2.49196,5.23456 -5.56644,5.23456c-3.07386,0 -5.56609,-2.34374 -5.56609,-5.23456c0,-2.54769 1.93628,-3.69466 4.5,-3.93157c0,0 0.81022,-0.10375 1.63479,-0.03384c2.80639,0.13068 4.99774,1.25559 4.99774,3.96541zM246.60503,174.60331c0,-2.25487 -1.79063,-3.39689 -4.10637,-3.56433c0,0 -1.46849,0.02055 -1.51305,0.02578c-2.1731,0.23992 -3.81382,1.37954 -3.81382,3.5382c0,2.4489 2.11108,4.43489 4.71618,4.43489c2.60492,0 4.716,-1.98563 4.71707,-4.43453z"/><path d="M243.48979,172.19038c-0.63843,0.03243 -1.25001,0.04855 -1.88968,0.12031c-0.42712,0.04793 -0.83874,0.05165 -1.15504,-0.27093c-0.06875,-0.0707 0.02109,-0.19252 0.10694,-0.1383c0.21157,0.13254 0.42464,0.18623 0.63905,0.1966c0.01391,0.01152 0.76477,-0.08762 1.10755,-0.19642c0.41375,-0.11278 0.82776,-0.20581 1.23982,-0.06964c0.19704,0.06512 0.15894,0.34748 -0.04864,0.35837z"/></g><path d="M238.56824,174.55166c0,0.61389 0.331,1.11153 -0.01506,1.11153c-0.34606,0 -0.62629,-0.49765 -0.62629,-1.11153c0,-0.6138 0.28023,-1.11136 0.62629,-1.11136c0.34606,0 0.01506,0.49774 0.01506,1.11136z" fill="#ffffff"/></g><g fill-rule="nonzero" stroke="none" stroke-width="1"><path d="M240.63689,169.2596c0.18269,-0.10915 0.36484,-0.21866 0.54735,-0.32798c0.1313,0.20191 0.2634,0.39886 0.36927,0.6231c0.3869,0.8166 0.30176,1.67926 0.2906,2.54299c-0.06707,0.01595 -0.1748,0.02738 -0.24116,0.03916c0.04616,-1.10011 -0.21564,-2.10851 -0.96606,-2.87727z" fill="#99661d"/><path d="M242.27965,171.72038c0,0 -0.04111,0.33569 -0.04492,0.39895c0,0 -0.67475,0.2012 -0.93939,0.10056l-0.00824,-0.28785c0.0054,-0.57526 -0.17356,-1.19313 -0.27943,-1.38663c-0.05068,-0.09232 -0.25463,-0.62018 -0.87684,-1.1732c-0.10667,-0.09436 -0.0707,-0.27111 0.04332,-0.33968c0.32329,-0.19394 0.64578,-0.38788 0.96872,-0.5819c0.10384,-0.06202 0.22636,-0.01568 0.29671,0.07788c0.98918,1.31664 0.87037,3.05561 0.84007,3.19178zM241.82585,171.84813c0.02002,-0.79489 0.08771,-1.53352 -0.27235,-2.29341c-0.10587,-0.22424 -0.23797,-0.42119 -0.36927,-0.62301c-0.18251,0.10933 -0.36466,0.21883 -0.54735,0.32798c0.70886,0.72605 0.9984,1.60484 0.98945,2.62725v0.20616l0.19846,-0.02525z" fill="#231f20"/></g><g fill-rule="evenodd" stroke="none" stroke-width="1"><path d="M245.44724,182.63948c-3.04347,0.06282 -5.22402,-1.38051 -6.2124,-3.29438c-1.20793,-2.35313 -0.61176,-6.94961 2.40026,-7.32615c0.01568,-0.26668 0.14122,-1.38051 0.31372,-2.1335l0.98838,-0.42358c0.54903,0.53335 0.75298,1.78841 -0.17259,2.8708c0.36077,0.14122 0.83148,0.80012 0.65889,1.5531c-0.3294,1.41188 -0.76866,2.65126 -0.10977,4.14154c0.53335,1.19225 2.055,1.80409 2.96489,2.82375c1.11384,1.23938 0.36085,1.74137 -0.83139,1.78841z" fill="#272525"/><path d="M242.52931,169.72854c0.31372,0.18827 0.67458,0.62753 0.64321,0.9883c-0.0785,0.09418 -0.84716,1.69432 -0.58049,1.83546c0.67458,0.34517 -0.3294,2.96498 0.04704,4.64362c0.51776,2.32177 2.52571,2.83944 3.32583,4.15722c0.43926,0.72162 -0.36085,0.9098 -0.59617,0.9098c-3.65515,-0.06273 -5.11416,-2.03932 -5.71032,-3.26302c-0.78435,-1.60015 -0.29804,-3.57674 0.37654,-5.12984c0.14122,-0.31372 0.50199,-0.89421 0.75298,-1.12952c0.4079,-0.34517 0.50199,-0.37654 1.03543,-0.42358c0.07841,-0.01568 0.70594,-2.58844 0.70594,-2.58844z" fill="#fff63b"/><path d="M241.90178,172.86611c0.03136,-0.10986 0.18827,-0.06282 0.1569,0.03136c-0.95693,3.18461 -0.54912,6.18095 1.63151,7.74973c0.45494,0.3294 1.36483,0.72162 1.56878,0.80003c0.21963,0.07841 0.04704,0.20395 -0.1569,0.14122c-0.18827,-0.06282 -0.34517,-0.12554 -0.62753,-0.25099c-2.35313,-1.06679 -4.32981,-2.80816 -2.57276,-8.47135z" fill="#272525"/></g><g fill-rule="evenodd" stroke="none" stroke-width="1"><path d="M242.18414,172.12881c0.31381,0.23522 0.53344,1.03534 0.09418,1.69423c-0.8158,1.22361 -1.66287,2.24336 -1.58446,3.85918c0.06273,1.28634 1.27074,2.36881 1.77273,3.62378c0.59608,1.53742 -0.29813,1.75705 -1.44333,1.38051c-2.8708,-0.94125 -4.40822,-3.01202 -4.65921,-5.12984c-0.29804,-2.60412 1.89818,-6.7143 4.87884,-6.08686c0.17259,-0.37645 1.25506,-2.47858 1.58446,-2.43154c0.90989,0.12545 1.38051,2.25904 -0.64321,3.09043z" fill="#272525"/><path d="M242.90576,169.603c0.34517,0.1569 0.59617,0.50208 0.25108,1.14529c-0.21963,0.40781 -1.41197,1.3177 -1.20802,1.53733c0.51776,0.54912 -1.36483,2.68262 -1.61583,4.37685c-0.3294,2.35313 1.36483,3.49833 1.64719,4.9887c0.1569,0.8158 -0.65881,0.7373 -0.87844,0.65889c-3.40424,-1.25506 -4.07881,-3.59251 -4.20436,-4.94166c-0.15682,-1.77264 0.98838,-3.45128 2.18063,-4.70626c0.23531,-0.25099 0.78435,-0.69026 1.11384,-0.8158c0.50199,-0.20395 0.48631,-0.51767 1.00398,-0.37645c0.07841,0.03136 1.71,-1.86691 1.71,-1.86691z" fill="#fff63b"/><path d="M241.19584,172.36403c0.07841,-0.09409 0.20395,0 0.14122,0.0785c-2.03941,2.68253 -2.71398,5.61614 -1.23938,7.82814c0.31372,0.47063 1.01975,1.12952 1.19225,1.25497c0.17259,0.14122 -0.09409,0.34517 -0.25099,0.21963c-0.15682,-0.12545 -0.39213,-0.29804 -0.59608,-0.50199c-1.83546,-1.80409 -2.91793,-4.14154 0.75298,-8.87925z" fill="#272525"/></g><g fill-rule="evenodd" stroke="none" stroke-width="1"><path d="M241.0703,171.72091c0.10986,0.37645 -0.10977,1.09807 -0.76866,1.45892c-1.31779,0.7373 -2.36881,1.34915 -3.09043,2.82375c-0.5648,1.17656 -0.23531,2.55708 -0.4079,3.89055c-0.21963,1.63151 -1.52174,1.23938 -2.35313,0.39222c-2.08645,-2.11782 -2.02373,-4.45535 -1.19233,-6.43194c1.01975,-2.43163 4.97302,-5.08279 7.29479,-3.18461c0.32949,-0.25099 2.30608,-1.63151 2.58853,-1.44324c0.7373,0.51767 0.04704,2.6198 -2.07086,2.49435z" fill="#272525"/><path d="M242.92153,169.77559c0.07841,0.34517 -0.03145,0.89421 -0.34517,1.12952c-0.28236,0.20395 -1.23929,0.59617 -1.78841,0.64321c0.18827,0.72162 -2.5414,1.92955 -3.59242,3.31006c-1.44333,1.91395 -0.51776,3.70228 -1.00407,5.14561c-0.26668,0.78435 -0.94125,0.36077 -1.09816,0.1725c-2.38449,-2.63549 -1.83546,-5.01998 -1.28634,-6.25936c0.72162,-1.63151 2.57276,-2.60412 4.21995,-3.16893c0.32949,-0.10977 1.03543,-0.25099 1.38051,-0.21954c0.54912,0.04704 0.64321,0.10977 1.01975,0.45486c0.07841,0.06282 2.43154,-1.50597 2.49426,-1.20793z" fill="#fff63b"/><path d="M240.05064,171.43846c0.10977,-0.04704 0.17259,0.09418 0.09418,0.12554c-3.1062,1.44324 -5.16129,3.73364 -4.92598,6.35354c0.04704,0.54903 0.34517,1.44324 0.43926,1.64719c0.09409,0.20395 -0.14122,0.17259 -0.20395,-0.01568c-0.07841,-0.18827 -0.14113,-0.32949 -0.21963,-0.61185c-0.75298,-2.40017 -0.7373,-4.97293 4.81612,-7.49874z" fill="#272525"/></g><g fill-rule="nonzero" stroke="none" stroke-width="0.63025"><path d="M240.3105,184.01981c-0.24993,0 -0.39426,-0.00833 -0.39744,-0.00851c-8.45992,-0.80596 -8.30125,-6.18866 -8.29035,-6.41759c0.04005,-0.84131 0.48507,-1.69813 0.76255,-2.15573c0.36165,0.59537 1.13856,1.05554 2.31007,1.36829c1.00088,0.2673 2.51367,0.67121 5.10689,0.69398l0.16904,0.0008c0.07566,0 7.23454,-0.02614 8.12246,-2.16947c0.66359,0.70266 0.74917,2.22227 0.67617,2.9135c-0.56684,5.35789 -6.61764,5.77473 -8.45939,5.77473c0.00018,0 0.00018,0 0,0z" fill="#cc7700"/><path d="M248.11941,175.667c-1.36182,1.99449 -7.84728,2.01956 -8.14833,2.01956c-0.05821,0 -0.11491,-0.00035 -0.17055,-0.00071c-2.61679,-0.02321 -4.14305,-0.43067 -5.15305,-0.70036c-1.05864,-0.28262 -1.81171,-0.68786 -2.24531,-1.20704c-0.25596,0.46469 -0.56241,1.1522 -0.59448,1.82412c-0.01356,0.2836 -0.01869,1.77335 1.2058,3.26098c1.36465,1.65782 3.69165,2.65471 6.91639,2.96294c0.02897,0.00151 0.16497,0.0078 0.38061,0.0078c1.80206,0 7.72439,-0.40444 8.27493,-5.60853c0.07708,-0.72897 -0.03597,-1.89402 -0.46602,-2.55867M248.11941,175.667l-15.6398,-0.67723v0c-0.028,0.10047 -0.01958,0.20678 0.04377,0.31726c0.36608,0.64047 1.23309,1.05678 2.2197,1.32018c0.9867,0.2634 2.4909,0.66492 5.06082,0.68769c0.05466,0.00062 0.1103,0.0008 0.16736,0.0008c2.6292,0 7.80262,-0.52104 8.01968,-2.31539c0.92105,0.62842 1.05253,2.41798 0.96313,3.26426c-0.58899,5.56919 -6.95644,5.94023 -8.64358,5.94023c-0.25932,0 -0.40816,-0.00868 -0.40816,-0.00868c-7.78526,-0.74147 -8.52672,-5.31376 -8.46497,-6.61135c0.06175,-1.2975 1.01948,-2.595 1.01948,-2.595h0.02277c0,0.00018 0,0 0,0z" fill="#000000"/></g><path d="M253.64891,182.54007c0.75848,-0.03367 1.61211,0.26721 2.07688,0.85248c0.49481,0.62044 0.35917,1.54575 0.31735,2.3308c0.02047,0.80782 0.1041,1.73304 -0.38088,2.38972c-0.44803,0.6083 -1.26401,1.05217 -2.01336,1.04748c-1.11464,-0.007 -2.38467,-0.37095 -3.20552,-0.97013c-0.82085,-0.59927 -1.32904,-1.42685 -1.32904,-2.3401c0,-0.91325 0.50819,-1.74084 1.32904,-2.3401c0.82085,-0.59918 2.09168,-0.92158 3.20552,-0.97013z" fill="#00cc44" fill-rule="nonzero" stroke="#00cc44" stroke-width="2.88236"/><path d="M230.68163,181.92025c0.97031,0 1.84946,0.24222 2.48602,0.63356c0.63657,0.39133 1.03065,0.93177 1.03065,1.5282c0,0.59643 -0.39408,1.13687 -1.03065,1.52829c-0.63666,0.39124 -1.5158,0.63347 -2.48602,0.63347c-0.97022,0 -1.84937,-0.24222 -2.48593,-0.63347c-0.63657,-0.39142 -1.03065,-0.93186 -1.03065,-1.52829c0,-0.59643 0.39408,-1.13687 1.03065,-1.5282c0.63657,-0.39133 1.51571,-0.63356 2.48593,-0.63356z" fill="#00cc44" fill-rule="nonzero" stroke="#00cc44" stroke-width="2.06637"/><path d="M237.82235,181.43571c1.25116,0 2.38476,0.37087 3.20561,0.97013c0.82085,0.59927 1.32895,1.42685 1.32895,2.3401c0,0.91325 -0.5081,1.74075 -1.32895,2.3401c-0.82085,0.59918 -1.95444,0.97013 -3.20561,0.97013c-1.25107,0 -2.38467,-0.37095 -3.20552,-0.97013c-0.82085,-0.59936 -1.32904,-1.42685 -1.32904,-2.3401c0,-0.91325 0.50819,-1.74084 1.32904,-2.3401c0.82085,-0.59927 1.95444,-0.97013 3.20552,-0.97013z" fill="#00cc44" fill-rule="nonzero" stroke="#00cc44" stroke-width="2.88236"/><path d="M245.87729,181.93912c1.25107,0 2.38467,0.37095 3.20552,0.97013c0.82085,0.59927 1.32904,1.42685 1.32904,2.3401c0,0.91325 -0.50819,1.74084 -1.32904,2.3401c-0.82085,0.59918 -1.95444,0.97013 -3.20552,0.97013c-1.25116,0 -2.38476,-0.37095 -3.20561,-0.97013c-0.82085,-0.59927 -1.32895,-1.42685 -1.32895,-2.3401c0,-0.91325 0.5081,-1.74084 1.32895,-2.3401c0.82085,-0.59918 1.95453,-0.97013 3.20561,-0.97013z" fill="#00cc44" fill-rule="nonzero" stroke="#00cc44" stroke-width="2.88236"/><path d="M225.52025,182.38724c0.37414,-0.20227 1.01939,0.6495 1.42153,1.20802c0.303,0.41995 0.64596,0.94302 0.64596,1.5282c0,0.58527 -0.25374,1.27411 -0.64596,1.52829l-1.2959,-0.23708l-0.06166,-2.2003c-0.02029,-0.73269 -0.36856,-1.71975 -0.06397,-1.82713z" fill="#00cc44" fill-rule="nonzero" stroke="#00cc44" stroke-width="1.65924"/><path d="M225.77213,184.52694l29.57641,-0.18871l0.50341,3.77573l-30.20572,0.31461z" fill="#00cc44" fill-rule="nonzero" stroke="#00cc44" stroke-width="2"/><path d="M225.33243,188.27857h30.51882v1.56905h-30.51882z" fill="#663b00" fill-rule="nonzero" stroke="#663b00" stroke-width="2.62812"/></g></g></svg>