<svg version="1.1" xmlns="http://www.w3.org/2000/svg" xmlns:xlink="http://www.w3.org/1999/xlink" width="31.08942" height="45.1574" viewBox="0,0,31.08942,45.1574"><defs><linearGradient x1="235.99536" y1="181.80868" x2="237.1121" y2="184.92854" gradientUnits="userSpaceOnUse" id="color-1"><stop offset="0" stop-color="#43a1ff" stop-opacity="0"/><stop offset="1" stop-color="#43a1ff"/></linearGradient><linearGradient x1="235.99536" y1="181.80868" x2="237.1121" y2="184.92854" gradientUnits="userSpaceOnUse" id="color-2"><stop offset="0" stop-color="#43a1ff" stop-opacity="0"/><stop offset="1" stop-color="#43a1ff"/></linearGradient><linearGradient x1="235.98622" y1="181.69909" x2="237.10297" y2="184.81895" gradientUnits="userSpaceOnUse" id="color-3"><stop offset="0" stop-color="#43a1ff"/><stop offset="1" stop-color="#43a1ff" stop-opacity="0"/></linearGradient><linearGradient x1="235.98622" y1="181.69909" x2="237.10297" y2="184.81895" gradientUnits="userSpaceOnUse" id="color-4"><stop offset="0" stop-color="#43a1ff" stop-opacity="0"/><stop offset="1" stop-color="#43a1ff"/></linearGradient><linearGradient x1="230.42021" y1="164.5333" x2="231.20408" y2="166.72315" gradientUnits="userSpaceOnUse" id="color-5"><stop offset="0" stop-color="#43a1ff"/><stop offset="1" stop-color="#43a1ff" stop-opacity="0"/></linearGradient><linearGradient x1="230.42021" y1="164.5333" x2="231.20408" y2="166.72315" gradientUnits="userSpaceOnUse" id="color-6"><stop offset="0" stop-color="#43a1ff"/><stop offset="1" stop-color="#43a1ff" stop-opacity="0"/></linearGradient><linearGradient x1="230.8406" y1="169.73046" x2="231.53846" y2="169.48065" gradientUnits="userSpaceOnUse" id="color-7"><stop offset="0" stop-color="#43a1ff" stop-opacity="0"/><stop offset="1" stop-color="#43a1ff"/></linearGradient><linearGradient x1="230.8406" y1="169.73046" x2="231.53846" y2="169.48065" gradientUnits="userSpaceOnUse" id="color-8"><stop offset="0" stop-color="#43a1ff" stop-opacity="0"/><stop offset="1" stop-color="#43a1ff"/></linearGradient><linearGradient x1="230.51154" y1="164.5059" x2="231.2954" y2="166.69575" gradientUnits="userSpaceOnUse" id="color-9"><stop offset="0" stop-color="#43a1ff" stop-opacity="0"/><stop offset="1" stop-color="#43a1ff"/></linearGradient><linearGradient x1="230.51154" y1="164.5059" x2="231.2954" y2="166.69575" gradientUnits="userSpaceOnUse" id="color-10"><stop offset="0" stop-color="#43a1ff"/><stop offset="1" stop-color="#43a1ff" stop-opacity="0"/></linearGradient><linearGradient x1="230.78581" y1="169.73959" x2="231.48366" y2="169.48978" gradientUnits="userSpaceOnUse" id="color-11"><stop offset="0" stop-color="#43a1ff"/><stop offset="1" stop-color="#43a1ff" stop-opacity="0"/></linearGradient><linearGradient x1="230.78581" y1="169.73959" x2="231.48366" y2="169.48978" gradientUnits="userSpaceOnUse" id="color-12"><stop offset="0" stop-color="#43a1ff" stop-opacity="0"/><stop offset="1" stop-color="#43a1ff"/></linearGradient></defs><g transform="translate(-224.66798,-157.01883)"><g data-paper-data="{&quot;isPaintingLayer&quot;:true}" fill-rule="nonzero" stroke-miterlimit="10" stroke-dasharray="" stroke-dashoffset="0" style="mix-blend-mode: normal"><text transform="translate(224.9926,198.6052) scale(0.54939,0.54939)" font-size="22" xml:space="preserve" fill="#ffffff" fill-rule="nonzero" stroke="none" stroke-width="1" stroke-linecap="butt" stroke-linejoin="miter" stroke-miterlimit="10" stroke-dasharray="" stroke-dashoffset="0" font-family="Sans Serif" font-weight="400" text-anchor="start" style="mix-blend-mode: normal"><tspan x="0" dy="0">Paint</tspan></text><g><path d="M240.21269,157.76883c4.0817,0 7.78038,1.65774 10.45858,4.33613c2.67839,2.67821 4.33613,6.37689 4.33613,10.45858c0,4.0817 -1.65774,7.78038 -4.33613,10.45858c-2.67821,2.67839 -6.37689,4.33613 -10.45858,4.33613c-4.0817,0 -7.78038,-1.65774 -10.45858,-4.33613c-2.67839,-2.67821 -4.33613,-6.37689 -4.33613,-10.45858c0,-4.0817 1.65774,-7.78038 4.33613,-10.45858c2.67821,-2.67839 6.37689,-4.33613 10.45858,-4.33613z" fill="#000000" stroke="#c8d2d6" stroke-width="1.5" stroke-linecap="butt" stroke-linejoin="miter"/><path d="M238.86664,183.6867c0.02526,-0.87829 -0.05169,-1.76481 0.22444,-2.62924c0.19251,-0.59999 -0.07131,-0.78609 1.18637,-1.47494c0.53855,0.06322 1.04772,0.26086 1.12222,1.41081c0.05195,0.8679 0.22035,1.75787 0.12826,2.62924c-0.04732,0.4367 -0.31768,0.85815 -0.54508,1.25048c-0.05938,0.10082 -0.00128,0.03695 -0.12826,0.03207c-0.58779,-0.01976 -1.18097,-0.03772 -1.73144,-0.0962c-0.13763,-0.01461 -0.10031,-0.0046 -0.12826,-0.09618c-0.0948,-0.33012 -0.13801,-0.69027 -0.12826,-1.02604z" fill="#4c2508" stroke="none" stroke-width="0.70219" stroke-linecap="round" stroke-linejoin="miter"/><path d="M239.63423,178.43255c-0.07489,-0.33949 -0.1485,-0.42234 -0.12826,-1.02604c0.00325,-2.41466 0.11839,-4.83499 0.19239,-7.24645c0.09175,-2.98924 0.08986,-5.99401 0.2565,-8.97789c0.04164,-0.74595 0.12382,-0.75197 0.29105,-0.76954c0.15341,-0.04656 0.30377,-0.05065 0.35023,0.64129c0.18587,2.76776 0.1686,5.56066 0.25651,8.33662c0.08208,2.5896 0.14276,5.17525 0.19239,7.75946c0.01706,0.64616 -0.00869,0.46928 -0.06413,0.8016c-0.1476,1.33925 -0.26008,3.92566 -0.51796,4.008c-0.25779,0.08234 -0.56768,-2.34889 -0.82872,-3.52704z" fill="#ffa22b" stroke="#ffa22b" stroke-width="1.25286" stroke-linecap="round" stroke-linejoin="miter"/><path d="M239.16995,181.89524c-0.22793,-0.22406 -0.02641,-0.66487 -0.02833,-1.02604c-0.00024,-0.09016 0.03173,-0.15186 0.05666,-0.22444c0.09228,-0.26793 0.24539,-0.55254 0.32304,-0.86573c0.03728,-0.15288 0.01178,-0.31809 0.017,-0.51303c0.00997,-0.42684 -0.16798,-0.89985 0,-1.28256c0.14144,-0.32705 0.49756,-0.4512 0.79338,-0.4489c0.25129,-0.05001 0.5725,0.0581 0.68006,0.32064c0.16808,0.40696 0.03501,0.8987 0.05668,1.34668c0.01383,0.25946 -0.0501,0.48519 -0.01134,0.70542c0.12117,0.41208 0.38899,0.74246 0.4817,1.1543c0.068,0.30254 0.20187,0.70682 0,0.89778c-0.28358,0.27409 -0.72165,0.21841 -1.08809,0.22444c-0.435,-0.02782 -0.95875,0.02809 -1.28077,-0.28857z" fill="#7f7f7f" stroke="#7f7f7f" stroke-width="1.32525" stroke-linecap="round" stroke-linejoin="miter"/><path d="M236.06604,179.59689l1.91352,5.34586" fill="none" stroke="#7f7f7f" stroke-width="1.49815" stroke-linecap="round" stroke-linejoin="miter"/><path d="M230.75763,166.91733l1.52261,-0.54501l5.44089,15.20023l-1.52261,0.54503z" fill="#43a1ff" stroke="#43a1ff" stroke-width="1.26735" stroke-linecap="butt" stroke-linejoin="miter"/><path d="M236.80696,181.68404c0.23562,-0.12983 0.49906,-0.52799 0.76131,-0.27251c0.34099,0.33222 0.39014,0.99022 0.48797,1.49653c0.0429,0.21774 -0.01039,0.39781 -0.02705,0.59095c-0.03366,0.36505 0.07947,0.91731 -0.11942,1.13265c-0.13092,0.13653 -0.39084,-0.23502 -0.5651,-0.379c-0.20861,-0.20797 -0.42658,-0.39356 -0.57272,-0.66691c-0.26455,-0.49676 -0.62441,-1.07262 -0.61866,-1.59507c0.00475,-0.33781 0.44538,-0.1927 0.65367,-0.30663z" fill="url(#color-1)" stroke="url(#color-2)" stroke-width="1.26735" stroke-linecap="round" stroke-linejoin="round"/><path d="M236.79783,181.57445c0.23562,-0.12983 0.49906,-0.52799 0.76131,-0.27251c0.34099,0.33222 0.39014,0.99022 0.48797,1.49653c0.0429,0.21774 -0.01039,0.39781 -0.02705,0.59095c-0.03366,0.36505 0.07947,0.91731 -0.11942,1.13265c-0.13092,0.13653 -0.39084,-0.23502 -0.5651,-0.379c-0.20861,-0.20797 -0.42658,-0.39356 -0.57272,-0.66691c-0.26455,-0.49676 -0.62441,-1.07262 -0.61866,-1.59507c0.00475,-0.33781 0.44538,-0.1927 0.65367,-0.30663z" fill="url(#color-3)" stroke="url(#color-4)" stroke-width="1.26735" stroke-linecap="round" stroke-linejoin="round"/><path d="M230.42021,164.5333l0.63444,-0.22709l0.78385,2.18986l-0.63442,0.22709z" fill="url(#color-5)" stroke="url(#color-6)" stroke-width="1.26735" stroke-linecap="round" stroke-linejoin="round"/><path d="M230.8406,169.73046l0.57098,-0.20439l0.26704,0.81267l0.09039,-0.21401l0.38032,1.46239l1.8578,5.25682l-0.50753,0.18166z" fill="url(#color-7)" stroke="url(#color-8)" stroke-width="1.26735" stroke-linecap="round" stroke-linejoin="round"/><path d="M230.51154,164.5059l0.63444,-0.22709l0.78385,2.18986l-0.63442,0.22709z" fill="url(#color-9)" stroke="url(#color-10)" stroke-width="1.26735" stroke-linecap="round" stroke-linejoin="round"/><path d="M230.78581,169.73959l0.57098,-0.20439l0.26704,0.81267l0.09039,-0.21401l0.38032,1.46239l1.8578,5.25682l-0.50753,0.18166z" fill="url(#color-11)" stroke="url(#color-12)" stroke-width="1.26735" stroke-linecap="round" stroke-linejoin="round"/><path d="M248.66239,166.0112l2.12436,0.79756l-5.76011,15.34261l-2.12436,-0.79756z" fill="#ff9400" stroke="#ff9400" stroke-width="0.69019" stroke-linecap="butt" stroke-linejoin="miter"/><path d="M242.90962,181.42389l2.06536,0.77541l-2.3138,2.66603l0.18945,-3.46359z" fill="#ffd499" stroke="#ffd499" stroke-width="0.69019" stroke-linecap="round" stroke-linejoin="miter"/><path d="M242.70092,183.91225l0.65678,0.24658l-0.73577,0.84777l0.06024,-1.1014z" fill="#7f7f7f" stroke="#7f7f7f" stroke-width="0.43895" stroke-linecap="round" stroke-linejoin="miter"/><path d="M250.11969,165.34372c0.31341,0.11766 0.58003,0.27054 0.7576,0.42258c0.1775,0.15187 0.26607,0.30294 0.22325,0.41696c-0.0428,0.11401 -0.2089,0.16948 -0.44249,0.16702c-0.23376,-0.00239 -0.53511,-0.06274 -0.84852,-0.18042c-0.31343,-0.11766 -0.58004,-0.27054 -0.75762,-0.42258c-0.1775,-0.15187 -0.26605,-0.30294 -0.22325,-0.41696c0.0428,-0.11401 0.2089,-0.16946 0.44251,-0.167c0.23374,0.00237 0.53509,0.06272 0.84852,0.1804z" fill="#ff8b64" stroke="none" stroke-width="0.63641" stroke-linecap="round" stroke-linejoin="miter"/><path d="M248.8581,165.25544l0.0531,0.20879l0.23215,0.18714l0.23794,0.1893l0.62554,0.31261l0.32156,0.05408l0.30528,-0.0076l0.50571,-0.12119l-0.7311,1.94733l-2.24726,-0.8437z" fill="#a7ae9f" stroke="none" stroke-width="0.93571" stroke-linecap="round" stroke-linejoin="miter"/><path d="M250.18703,165.02576c0.26875,0.1009 0.49738,0.23198 0.64963,0.36236c0.1522,0.13023 0.22815,0.25977 0.19144,0.35752c-0.03669,0.09777 -0.17913,0.14534 -0.37944,0.14322c-0.20042,-0.00205 -0.45884,-0.05379 -0.72759,-0.15471c-0.26875,-0.1009 -0.49738,-0.23198 -0.64963,-0.36234c-0.1522,-0.13025 -0.22813,-0.25978 -0.19144,-0.35754c0.03669,-0.09775 0.17913,-0.14532 0.37944,-0.14322c0.20042,0.00205 0.45884,0.05381 0.72759,0.15471z" fill="#f38662" stroke="none" stroke-width="0.54571" stroke-linecap="round" stroke-linejoin="miter"/><path d="M249.89479,165.63722c0.25275,0.10795 0.53387,0.15021 0.80775,0.17047c0.12212,0.0044 0.32587,-0.16678 0.35429,-0.09792c0.03569,0.08672 -0.07547,0.36437 -0.22345,0.39529c-0.32945,0.07017 -0.68945,-0.02548 -1.01842,-0.11679c-0.23577,-0.06554 -0.44501,-0.21463 -0.65776,-0.33931c-0.08659,-0.05538 -0.2202,-0.09595 -0.23715,-0.19872c-0.02298,-0.14026 0.08042,-0.27602 0.15008,-0.39975c0.01808,-0.03187 -0.03964,0.01054 0.02528,0.05569c0.2598,0.18079 0.50547,0.4051 0.79939,0.53104z" fill="#f38662" stroke="#f38662" stroke-width="0.59183" stroke-linecap="round" stroke-linejoin="miter"/></g></g></g></svg>