<svg version="1.1" xmlns="http://www.w3.org/2000/svg" xmlns:xlink="http://www.w3.org/1999/xlink" width="54.95307" height="43.06619" viewBox="0,0,54.95307,43.06619"><g transform="translate(-212.73283,-158.41159)"><g data-paper-data="{&quot;isPaintingLayer&quot;:true}" fill-rule="nonzero" stroke="none" stroke-linecap="butt" stroke-linejoin="miter" stroke-miterlimit="10" stroke-dasharray="" stroke-dashoffset="0" style="mix-blend-mode: normal"><path d="M228.36003,189.09656c0,-5.63183 0,-25.57354 0,-28.93539c0,-0.94076 0.84011,-1.74958 1.67794,-1.74958c2.49992,0 14.93873,0 14.93873,0l6.59893,6.59458c0,0 0.05469,20.78096 0.06322,24.0231c0.00217,0.82293 -0.58977,1.54771 -1.48069,1.54771c-4.3982,0 -17.60909,0 -20.25477,0c-0.90568,0 -1.54335,-0.54123 -1.54335,-1.48042z" fill="#508ef5" stroke-width="0"/><path d="M244.89746,165.28415v-6.79645l6.74251,6.79645z" fill="#a4c4fa" stroke-width="0"/><path d="M233.37199,175.95032v-1.35521h12.91999v1.35521z" fill="#f2f2f0" stroke-width="0"/><path d="M233.37199,177.80747v-1.35521h12.91999v1.35521z" fill="#f2f2f0" stroke-width="0"/><path d="M233.32005,179.66461v-1.35521h13.02389v1.35521z" fill="#f2f2f0" stroke-width="0"/><path d="M233.37199,181.40487v-1.35521h6.73817v1.35521z" fill="#f2f2f0" stroke-width="0"/><text transform="translate(212.9408,198.49681) scale(0.41595,0.41595)" font-size="22" xml:space="preserve" fill="#ffffff" fill-rule="nonzero" stroke="none" stroke-width="1" stroke-linecap="butt" stroke-linejoin="miter" stroke-miterlimit="10" stroke-dasharray="" stroke-dashoffset="0" font-family="Sans Serif" font-weight="400" text-anchor="start" style="mix-blend-mode: normal"><tspan x="0" dy="0">Boogle Docs</tspan></text></g></g></svg>