<svg version="1.1" xmlns="http://www.w3.org/2000/svg" xmlns:xlink="http://www.w3.org/1999/xlink" width="84.23542" height="23.92541" viewBox="0,0,84.23542,23.92541"><g transform="translate(-197.88229,-168.03729)"><g data-paper-data="{&quot;isPaintingLayer&quot;:true}" fill-rule="nonzero" stroke-linejoin="miter" stroke-miterlimit="10" stroke-dasharray="" stroke-dashoffset="0" style="mix-blend-mode: normal"><path d="M197.88229,180.0013c0,-6.6061 5.3553,-11.9614 11.9614,-11.9614c6.6061,0 11.9614,5.3553 11.9614,11.9614c0,6.6061 -5.3553,11.9614 -11.9614,11.9614c-6.6061,0 -11.9614,-5.3553 -11.9614,-11.9614z" fill="#000000" stroke="none" stroke-width="0" stroke-linecap="butt"/><path d="M209.60668,191.96141v-23.92281h60.78665v23.92281z" fill="#000000" stroke="none" stroke-width="0" stroke-linecap="butt"/><path d="M258.19491,179.99869c0,-6.60609 5.3553,-11.9614 11.9614,-11.9614c6.60609,0 11.9614,5.35531 11.9614,11.9614c0,6.60609 -5.35531,11.9614 -11.9614,11.9614c-6.60609,0 -11.9614,-5.3553 -11.9614,-11.9614z" fill="#000000" stroke="none" stroke-width="0" stroke-linecap="butt"/><text transform="translate(227.21115,182.30703) scale(0.21224,0.18853)" font-size="40" xml:space="preserve" fill="#ffffff" fill-rule="nonzero" stroke="none" stroke-width="1" stroke-linecap="butt" stroke-linejoin="miter" stroke-miterlimit="10" stroke-dasharray="" stroke-dashoffset="0" font-family="Sans Serif" font-weight="normal" text-anchor="start" style="mix-blend-mode: normal"><tspan x="0" dy="0">Boogle Maps</tspan></text><path d="M223.30314,178.40637c0,0 0,4.27917 0,5.68c0,0.69343 0,1.78898 0,1.78898l-5.97587,-5.1828l5.81539,-4.28811z" fill="#c2bcb4" stroke="#c2bcb4" stroke-width="1.5" stroke-linecap="round"/><path d="M215.48185,173.46476l1.14957,2.94289l-9.97825,9.97825z" fill="#329243" stroke="#329243" stroke-width="1.5" stroke-linecap="round"/><path d="M209.01045,188.73746l5.70644,-5.39589l6.25513,5.29009z" fill="#536fb1" stroke="#536fb1" stroke-width="1.5" stroke-linecap="round"/><path d="M221.8639,188.44434l-6.667,-5.9267l1.40828,-1.77068c0,0 3.47758,3.2467 4.72708,4.41325c0.82083,0.76637 1.81108,1.80443 1.81108,1.80443z" data-paper-data="{&quot;index&quot;:null}" fill="#ffffff" stroke="#ffffff" stroke-width="1.5" stroke-linecap="round"/><path d="M218.1059,178.95013c0,0 -0.98712,0.96928 -1.80853,1.77587c-1.75631,1.72455 -8.21444,7.80338 -8.21444,7.80338l-1.34655,-1.67983l9.92197,-9.89316z" fill="#fce226" stroke="#fce226" stroke-width="1.5" stroke-linecap="round"/><path d="M206.60678,185.39423l-0.13348,-14.06088l10.23468,-0.09405z" fill="#329243" stroke="#329243" stroke-width="1.5" stroke-linecap="round"/><path d="M216.26978,173.89251c0,-2.71218 2.07008,-4.91082 4.6236,-4.91082c2.55359,0 4.6236,2.19864 4.6236,4.91082c0,2.71211 -2.07001,4.91075 -4.6236,4.91075c-2.55353,0 -4.6236,-2.19864 -4.6236,-4.91075z" fill="#e6261d" stroke="#e6261d" stroke-width="1.5" stroke-linecap="butt"/><path d="M223.3646,177.19684l-2.43311,6.25577l-2.78057,-5.96632z" fill="#e6261d" stroke="#e6261d" stroke-width="1.5" stroke-linecap="round"/><path d="M205.85005,189.58847v-2.75449h2.16282v2.75449z" fill="#fce226" stroke="none" stroke-width="0" stroke-linecap="butt"/><path d="M221.911,189.49913v-2.5956h2.23423v2.5956z" fill="#ffffff" stroke="none" stroke-width="0" stroke-linecap="butt"/><path d="M222.32688,173.78319c0,0.84912 -0.67258,1.53748 -1.5022,1.53748c-0.82969,0 -1.5022,-0.68836 -1.5022,-1.53748c0,-0.84919 0.67251,-1.53754 1.5022,-1.53754c0.82962,0 1.5022,0.68836 1.5022,1.53754z" fill="#73100f" stroke="#73100f" stroke-width="1.5" stroke-linecap="butt"/><text transform="translate(207.59604,178.83297) scale(0.16214,0.16214)" font-size="40" xml:space="preserve" fill="#ffffff" fill-rule="nonzero" stroke="none" stroke-width="1" stroke-linecap="butt" stroke-linejoin="miter" stroke-miterlimit="10" stroke-dasharray="" stroke-dashoffset="0" font-family="Sans Serif" font-weight="normal" text-anchor="start" style="mix-blend-mode: normal"><tspan x="0" dy="0">B</tspan></text></g></g></svg>