<svg version="1.1" xmlns="http://www.w3.org/2000/svg" xmlns:xlink="http://www.w3.org/1999/xlink" width="69.87997" height="94.43236" viewBox="0,0,69.87997,94.43236"><g transform="translate(-205.06001,-132.78382)"><g data-paper-data="{&quot;isPaintingLayer&quot;:true}" stroke-linecap="butt" stroke-linejoin="miter" stroke-miterlimit="10" stroke-dasharray="" stroke-dashoffset="0" style="mix-blend-mode: normal"><path d="M205.06002,132.78382h69.87997v94.43236h-69.87997z" fill="#ffffff" fill-rule="nonzero" stroke="none" stroke-width="0.87838"/><path d="M207.5,136.0811h65v87.8378h-65z" fill="#cccccc" fill-rule="nonzero" stroke="none" stroke-width="0.87838"/><path d="M218.97,148.9802h44.9625v36.1673l-44.8733,-1.8707z" fill="#99ffff" fill-rule="nonzero" stroke="#ccffff" stroke-width="2.00406"/><g fill-rule="nonzero" stroke="none" stroke-width="0.63025"><g><path d="M240.4992,182.2454c-0.1734,0 -0.2707,-0.0042 -0.2755,-0.0045c-11.8389,-1.128 -11.6188,-8.6257 -11.6036,-8.9445c0.0506,-1.0619 0.571,-2.1463 0.9546,-2.8107c0.57,0.7861 1.6542,1.3965 3.2289,1.8168c1.4228,0.3799 3.5734,0.9541 7.2601,0.9866l0.2403,0.0011c0.1052,0 9.8041,-0.0357 11.5008,-2.926c0.5506,0.8947 0.793,2.6959 0.8174,3.8357c-1.7306,7.6567 -10.3988,8.0455 -12.1231,8.0455c0.0003,0 0,0 0,0z" fill="#65cbeb"/><path d="M251.7256,171.1021c-2.4601,2.4989 -10.393,2.5818 -11.4213,2.5818c-0.0832,0 -0.1642,-0.0005 -0.2437,-0.0011c-3.7366,-0.033 -5.916,-0.6148 -7.3582,-0.9999c-1.3591,-0.3631 -2.3804,-0.8704 -3.0495,-1.5139c-0.3022,0.6049 -0.6034,1.3861 -0.6396,2.1461c-0.0184,0.3843 -0.0249,2.4047 1.6469,4.4356c1.8835,2.2885 5.1127,3.6668 9.5984,4.0975c0.0341,0.0013 0.1167,0.0034 0.2406,0.0034c1.667,0 10.0381,-0.3717 11.7285,-7.6913c-0.0252,-0.9234 -0.192,-2.2035 -0.5021,-3.0582M251.7256,171.1021l-22.0237,-1.4971v0c-0.0396,0.1422 -0.0278,0.2928 0.0619,0.4491c0.5181,0.9063 1.745,1.4955 3.1414,1.8683c1.3963,0.3727 3.5251,0.9409 7.1619,0.9732c0.0774,0.0008 0.1561,0.0011 0.2369,0.0011c3.7208,0 11.0423,-0.7374 11.3494,-3.2767c1.3035,0.8893 1.3631,4.6195 1.3631,4.6195c-1.7749,8.0077 -10.7744,8.3991 -12.5173,8.3991c-0.1889,0 -0.2928,-0.0047 -0.2928,-0.0047c-11.0176,-1.0493 -12.0669,-7.52 -11.9796,-9.3563c0.0874,-1.8363 1.4428,-3.6726 1.4428,-3.6726h0.0323c0,0.0003 0,0 0,0z" fill="#000000"/></g><g><path d="M240.0288,173.2891c-3.6796,-0.0344 -5.8262,-0.643 -7.2467,-1.0456c-1.538,-0.436 -2.57,-1.0735 -2.9847,-1.8436c-0.0389,-0.0722 -0.0478,-0.1328 -0.0291,-0.2028c0.0897,-0.3429 0.7521,-0.7497 1.3297,-0.9832l0.0656,-0.0257c2.7824,-0.985 5.9151,-1.4877 9.2941,-1.4877c5.0587,0 9.1449,1.1299 9.9838,1.5192c0.8287,0.3848 1.0309,0.7932 1.0742,0.9139c-0.3704,2.1768 -6.7698,3.1568 -11.2469,3.1568z" fill="#660000"/><path d="M240.4577,168.0937c-3.3202,0 -6.3965,0.4911 -9.1446,1.4593l-0.0449,0.0166l-0.0068,0.0029l-0.0128,0.0055l-0.015,0.0055c-0.5726,0.2332 -0.9603,0.5231 -1.0637,0.676c0.3822,0.6548 1.3205,1.2088 2.7198,1.6054c1.4,0.3969 3.5159,0.9969 7.1428,1.0307c0.0768,0.0008 0.1556,0.001 0.2361,0.001c1.8245,0 4.6114,-0.1912 6.9623,-0.7279c2.1999,-0.5021 3.6188,-1.2361 3.8683,-1.9884c-0.0819,-0.1218 -0.2965,-0.3592 -0.8235,-0.6039c-0.7043,-0.3269 -4.7803,-1.4827 -9.818,-1.4827M240.4577,168.0937v-0.7869v0c5.2006,0 9.3579,1.1886 10.1493,1.5556c1.2403,0.576 1.3085,1.2507 1.3085,1.2507c-0.3153,2.767 -7.8285,3.5705 -11.6472,3.5705c-0.0829,0 -0.1642,-0.0003 -0.2434,-0.001c-3.7326,-0.0349 -5.9173,-0.6543 -7.3503,-1.0606c-1.4331,-0.4063 -2.6923,-1.048 -3.224,-2.0356c-0.0918,-0.1706 -0.1039,-0.3345 -0.0632,-0.4896c0.1697,-0.6487 1.2843,-1.1353 1.5629,-1.2478c0.0013,-0.0005 0.0029,-0.0011 0.0039,-0.0016c0.0187,-0.0073 0.0326,-0.0131 0.0428,-0.0168c0.0016,-0.0008 0.0029,-0.001 0.0042,-0.0016c0.0076,-0.0031 0.0131,-0.0052 0.0131,-0.0052c3.2014,-1.134 6.4904,-1.517 9.4434,-1.517z" fill="#000000"/></g></g><g fill-rule="nonzero" stroke="none" stroke-width="1"><path d="M250.1005,169.0207c0,3.6786 -3.1716,6.6616 -7.0848,6.6616c-3.9131,0 -7.0845,-2.9817 -7.0845,-6.6616c0,-3.6786 3.1712,-5.3874 7.0845,-5.3874c3.9129,-0.0002 7.0848,1.709 7.0848,5.3874z" fill="#ec1c2c"/><g fill="#231f20"><path d="M250.8939,168.9495c0,4.0912 -3.5267,7.4079 -7.8776,7.4079c-4.3502,0 -7.8771,-3.3167 -7.8771,-7.4079c0,-3.6054 2.7401,-5.2286 6.3684,-5.5638c0,0 1.1466,-0.1469 2.3134,-0.0479c3.9716,0.1848 7.0729,1.7769 7.0729,5.6117zM249.6921,169.0582c0,-3.1912 -2.5341,-4.8073 -5.8113,-5.0443c0,0 -2.0783,0.0291 -2.1413,0.0365c-3.0754,0.3395 -5.3973,1.9523 -5.3973,5.0073c0,3.4656 2.9876,6.2762 6.6743,6.2762c3.6865,0 6.6741,-2.8101 6.6756,-6.2757z"/><path d="M245.2834,165.6434c-0.9035,0.0459 -1.769,0.0687 -2.6743,0.1702c-0.6045,0.0679 -1.1869,0.0732 -1.6346,-0.3834c-0.0972,-0.1 0.0299,-0.2724 0.1514,-0.1957c0.2993,0.1876 0.6009,0.2636 0.9043,0.2783c0.0197,0.0162 1.0823,-0.1241 1.5675,-0.2781c0.5854,-0.1595 1.1714,-0.2912 1.7546,-0.0985c0.2788,0.0922 0.2248,0.4918 -0.0689,0.5072z"/></g><path d="M238.3184,168.985c0,0.8688 0.4685,1.5731 -0.0213,1.5731c-0.4897,0 -0.8863,-0.7043 -0.8863,-1.5731c0,-0.8686 0.3966,-1.5728 0.8863,-1.5728c0.4898,0 0.0213,0.7045 0.0213,1.5728z" fill="#ffffff"/></g><g fill-rule="nonzero" stroke="none" stroke-width="1"><path d="M241.246,161.4958c0.2585,-0.1544 0.5163,-0.3094 0.7746,-0.4641c0.1858,0.2856 0.3727,0.5644 0.5226,0.8817c0.5475,1.1557 0.427,2.3765 0.4113,3.5988c-0.095,0.0226 -0.2474,0.0388 -0.3414,0.0555c0.0654,-1.5568 -0.3051,-2.984 -1.3671,-4.0719z" fill="#99661d"/><path d="M243.5708,164.9782c0,0 -0.0582,0.4751 -0.0635,0.5647c0,0 -0.9549,0.2846 -1.3295,0.1423l-0.0116,-0.4074c0.0076,-0.8142 -0.2457,-1.6886 -0.3956,-1.9623c-0.0716,-0.1307 -0.3603,-0.8777 -1.2408,-1.6604c-0.1509,-0.1334 -0.1,-0.3836 0.0613,-0.4806c0.4576,-0.2745 0.9139,-0.549 1.371,-0.8235c0.1469,-0.0879 0.3203,-0.0223 0.4198,0.1101c1.3999,1.8633 1.2317,4.3244 1.1889,4.5171zM242.9286,165.159c0.0284,-1.1248 0.1241,-2.1702 -0.3854,-3.2456c-0.1499,-0.3173 -0.3368,-0.5961 -0.5226,-0.8817c-0.2583,0.1547 -0.5161,0.3096 -0.7747,0.4641c1.0033,1.0276 1.413,2.2712 1.4004,3.7181v0.2918l0.2808,-0.0358z" fill="#231f20"/></g><g fill-rule="evenodd" stroke="none" stroke-width="1"><path d="M248.0535,180.4309c-4.307,0.0888 -7.3929,-1.9537 -8.7916,-4.6622c-1.7095,-3.3302 -0.8658,-9.8351 3.3968,-10.3679c0.0222,-0.3774 0.1998,-1.9537 0.444,-3.0194l1.3987,-0.5994c0.777,0.7548 1.0656,2.5309 -0.2442,4.0628c0.5106,0.1998 1.1766,1.1323 0.9324,2.1979c-0.4662,1.9981 -1.0879,3.752 -0.1554,5.8611c0.7548,1.6873 2.9083,2.5531 4.196,3.9962c1.5763,1.7539 0.5106,2.4643 -1.1766,2.5309z" fill="#272525"/><path d="M243.9241,162.1594c0.4441,0.2664 0.9547,0.8881 0.9103,1.3987c-0.111,0.1332 -1.1989,2.3977 -0.8215,2.5975c0.9547,0.4885 -0.4662,4.196 0.0666,6.5716c0.7327,3.2857 3.5744,4.0183 4.7067,5.8832c0.6216,1.0213 -0.5106,1.2877 -0.8437,1.2877c-5.1728,-0.0888 -7.2375,-2.8861 -8.0812,-4.6178c-1.11,-2.2645 -0.4218,-5.0619 0.5328,-7.2598c0.1999,-0.444 0.7105,-1.2655 1.0657,-1.5985c0.5772,-0.4884 0.7104,-0.5328 1.4653,-0.5994c0.111,-0.0222 0.999,-3.6632 0.999,-3.6632z" fill="#fff63b"/><path d="M243.0361,166.5996c0.0444,-0.1554 0.2664,-0.0888 0.222,0.0444c-1.3543,4.5068 -0.7771,8.7473 2.3089,10.9674c0.6438,0.4662 1.9315,1.0212 2.2201,1.1323c0.3108,0.1109 0.0666,0.2885 -0.222,0.1997c-0.2664,-0.0888 -0.4884,-0.1776 -0.888,-0.3552c-3.3302,-1.5096 -6.1275,-3.974 -3.641,-11.9886z" fill="#272525"/></g><g fill-rule="evenodd" stroke="none" stroke-width="1"><path d="M243.4357,165.5562c0.444,0.333 0.7548,1.4653 0.1332,2.3977c-1.1544,1.7317 -2.3533,3.1748 -2.2423,5.4615c0.0888,1.8205 1.7983,3.3523 2.5087,5.1284c0.8437,2.1757 -0.4218,2.4865 -2.0425,1.9537c-4.0628,-1.332 -6.2385,-4.2626 -6.5937,-7.2597c-0.4218,-3.6854 2.6863,-9.5021 6.9045,-8.6141c0.2442,-0.5328 1.7761,-3.5077 2.2423,-3.4411c1.2877,0.1776 1.9537,3.1969 -0.9102,4.3736z" fill="#272525"/><path d="M244.4569,161.9818c0.4885,0.222 0.8437,0.7104 0.3553,1.6207c-0.3108,0.5772 -1.9981,1.8649 -1.7095,2.1757c0.7326,0.777 -1.9315,3.7964 -2.2867,6.1941c-0.4663,3.3302 1.9315,4.9508 2.3311,7.0599c0.222,1.1545 -0.9325,1.0435 -1.2433,0.9325c-4.8176,-1.7761 -5.7723,-5.0841 -5.9499,-6.9934c-0.222,-2.5087 1.3987,-4.8842 3.086,-6.6603c0.333,-0.3552 1.11,-0.9768 1.5763,-1.1545c0.7104,-0.2886 0.6882,-0.7326 1.4208,-0.5328c0.111,0.0444 2.42,-2.6419 2.42,-2.6419z" fill="#fff63b"/><path d="M242.037,165.8892c0.111,-0.1332 0.2886,0 0.1998,0.111c-2.8861,3.7964 -3.8407,7.948 -1.7539,11.0783c0.4441,0.6661 1.4431,1.5985 1.6873,1.7761c0.2442,0.1999 -0.1332,0.4885 -0.3552,0.3109c-0.222,-0.1776 -0.555,-0.4219 -0.8436,-0.7105c-2.5976,-2.5531 -4.1294,-5.8611 1.0656,-12.5658z" fill="#272525"/></g><g fill-rule="evenodd" stroke="none" stroke-width="1"><path d="M241.8594,164.9789c0.1554,0.5329 -0.1554,1.5541 -1.0878,2.0647c-1.8649,1.0435 -3.3524,1.9093 -4.3737,3.9962c-0.7992,1.6651 -0.333,3.6188 -0.5772,5.5059c-0.3108,2.3089 -2.1535,1.7539 -3.3302,0.555c-2.9527,-2.9971 -2.8639,-6.3051 -1.6873,-9.1024c1.4431,-3.4412 7.0378,-7.1932 10.3236,-4.5068c0.4662,-0.3553 3.2635,-2.3089 3.6632,-2.0425c1.0434,0.7326 0.0666,3.7075 -2.9306,3.5299z" fill="#272525"/><path d="M244.4791,162.226c0.1111,0.4885 -0.0443,1.2655 -0.4884,1.5985c-0.3996,0.2886 -1.7539,0.8436 -2.5309,0.9102c0.2664,1.0213 -3.5966,2.7308 -5.084,4.6845c-2.0426,2.7085 -0.7327,5.2395 -1.4209,7.2819c-0.3774,1.1101 -1.3321,0.5107 -1.5541,0.2442c-3.3746,-3.7297 -2.5975,-7.1043 -1.8205,-8.8582c1.0213,-2.3089 3.641,-3.6854 5.9721,-4.4846c0.4662,-0.1554 1.4653,-0.3552 1.9537,-0.3108c0.7771,0.0666 0.9103,0.1554 1.4431,0.6438c0.111,0.0888 3.4412,-2.1313 3.5299,-1.7095z" fill="#fff63b"/><path d="M240.4163,164.5793c0.1554,-0.0666 0.2443,0.1333 0.1332,0.1776c-4.3958,2.0426 -7.3041,5.2839 -6.9711,8.9915c0.0666,0.777 0.4884,2.0425 0.6216,2.3311c0.1332,0.2886 -0.1998,0.2442 -0.2886,-0.0222c-0.111,-0.2664 -0.1998,-0.4662 -0.3108,-0.8658c-1.0656,-3.3968 -1.0434,-7.0378 6.8158,-10.6122z" fill="#272525"/></g><g fill-rule="nonzero" stroke="none" stroke-width="0.63025"><path d="M240.784,182.3844c-0.3536,0 -0.5579,-0.0118 -0.5623,-0.012c-11.9725,-1.1407 -11.748,-8.7583 -11.7325,-9.0822c0.0567,-1.1907 0.6865,-2.4032 1.0792,-3.0509c0.5118,0.8426 1.6112,1.4939 3.2691,1.9365c1.4165,0.3783 3.5574,0.9499 7.2273,0.9821l0.2392,0.0011c0.107,0 10.2382,-0.037 11.4948,-3.0703c0.9391,0.9945 1.0603,3.1451 0.9569,4.1233c-0.8022,7.5824 -9.3652,8.1724 -11.9716,8.1724c0.0002,0 0.0002,0 0,0z" fill="#cc7700"/><path d="M251.8353,170.5635c-1.9274,2.8226 -11.1055,2.8581 -11.5316,2.8581c-0.0824,0 -0.1626,-0.0005 -0.2413,-0.0011c-3.7032,-0.0328 -5.8632,-0.6094 -7.2926,-0.991c-1.4981,-0.4001 -2.564,-0.9735 -3.1775,-1.7083c-0.3623,0.6577 -0.7959,1.6306 -0.8413,2.5815c-0.0192,0.4014 -0.0265,2.5097 1.7064,4.6149c1.9312,2.3462 5.2244,3.757 9.7881,4.1932c0.0409,0.0021 0.2335,0.0111 0.5385,0.0111c2.5504,0 10.9316,-0.5724 11.7107,-7.9372c0.1091,-1.0317 -0.0508,-2.6804 -0.6594,-3.6211M251.8353,170.5635l-22.1334,-0.9585v0c-0.0396,0.1422 -0.0278,0.2928 0.0619,0.4491c0.5181,0.9063 1.745,1.4955 3.1413,1.8683c1.3964,0.3727 3.5252,0.9409 7.162,0.9732c0.0774,0.0008 0.1561,0.0011 0.2369,0.0011c3.7208,0 11.0423,-0.7374 11.3494,-3.2767c1.3035,0.8893 1.4895,3.422 1.3631,4.6195c-0.8337,7.8815 -9.8448,8.4067 -12.2325,8.4067c-0.367,0 -0.5776,-0.0123 -0.5776,-0.0123c-11.0176,-1.0493 -12.0669,-7.5201 -11.9796,-9.3563c0.0874,-1.8363 1.4428,-3.6726 1.4428,-3.6726h0.0323c0,0.0003 0,0 0,0z" fill="#000000"/></g><path d="M259.6606,180.2902c1.0733,-0.0476 2.2814,0.3782 2.9391,1.2065c0.7002,0.878 0.5084,2.1875 0.4492,3.2985c0.0289,1.1432 0.1472,2.4525 -0.5391,3.3819c-0.634,0.8608 -1.7888,1.489 -2.8492,1.4824c-1.5775,-0.0099 -3.3749,-0.525 -4.5365,-1.3729c-1.1617,-0.8481 -1.8808,-2.0193 -1.8808,-3.3117c0,-1.2925 0.7191,-2.4636 1.8808,-3.3117c1.1616,-0.848 2.9601,-1.3043 4.5365,-1.373z" fill="#00cc44" fill-rule="nonzero" stroke="#00cc44" stroke-width="2.88236"/><path d="M227.1574,179.4131c1.3731,0 2.6172,0.3428 3.5181,0.8965c0.9009,0.5539 1.4586,1.3187 1.4586,2.1628c0,0.844 -0.5577,1.6089 -1.4586,2.1627c-0.9009,0.5538 -2.145,0.8966 -3.5181,0.8966c-1.3731,0 -2.6172,-0.3428 -3.5181,-0.8966c-0.9009,-0.5538 -1.4586,-1.3187 -1.4586,-2.1627c0,-0.8441 0.5577,-1.6089 1.4586,-2.1628c0.9009,-0.5537 2.145,-0.8965 3.5181,-0.8965z" fill="#00cc44" fill-rule="nonzero" stroke="#00cc44" stroke-width="2.06637"/><path d="M237.2629,178.7273c1.7705,0 3.3749,0.5249 4.5365,1.3729c1.1617,0.8481 1.8808,2.0193 1.8808,3.3117c0,1.2925 -0.7191,2.4636 -1.8808,3.3117c-1.1616,0.848 -2.766,1.3729 -4.5365,1.3729c-1.7705,0 -3.3748,-0.5249 -4.5365,-1.3729c-1.1616,-0.8481 -1.8808,-2.0192 -1.8808,-3.3117c0,-1.2924 0.7192,-2.4636 1.8808,-3.3117c1.1617,-0.848 2.766,-1.3729 4.5365,-1.3729z" fill="#00cc44" fill-rule="nonzero" stroke="#00cc44" stroke-width="2.88236"/><path d="M248.6621,179.4398c1.7705,0 3.3749,0.5249 4.5365,1.3729c1.1617,0.8481 1.8808,2.0193 1.8808,3.3117c0,1.2924 -0.7191,2.4636 -1.8808,3.3117c-1.1616,0.848 -2.766,1.3729 -4.5365,1.3729c-1.7705,0 -3.3748,-0.5249 -4.5365,-1.3729c-1.1616,-0.8481 -1.8808,-2.0193 -1.8808,-3.3117c0,-1.2924 0.7192,-2.4636 1.8808,-3.3117c1.1617,-0.848 2.766,-1.3729 4.5365,-1.3729z" fill="#00cc44" fill-rule="nonzero" stroke="#00cc44" stroke-width="2.88236"/><path d="M219.853,180.0739c0.5295,-0.2862 1.4426,0.9191 2.0117,1.7096c0.4288,0.5944 0.9142,1.3346 0.9142,2.1628c0,0.8282 -0.3591,1.8031 -0.9142,2.1627l-1.8339,-0.3355l-0.0873,-3.1138c-0.0286,-1.0369 -0.5216,-2.4338 -0.0905,-2.5858z" fill="#00cc44" fill-rule="nonzero" stroke="#00cc44" stroke-width="1.65924"/><path d="M220.2095,183.1021l41.8564,-0.2672l0.7124,5.3434l-42.747,0.4453z" fill="#00cc44" fill-rule="nonzero" stroke="#00cc44" stroke-width="2"/><path d="M219.5872,188.4113h43.19v2.2205h-43.19z" fill="#663b00" fill-rule="nonzero" stroke="#663b00" stroke-width="2.62812"/><text transform="translate(223.86447,204.66196) scale(0.54939,0.54939)" font-size="22" xml:space="preserve" fill="#ffffff" fill-rule="nonzero" stroke="none" stroke-width="1" stroke-linecap="butt" stroke-linejoin="miter" stroke-miterlimit="10" stroke-dasharray="" stroke-dashoffset="0" font-family="Sans Serif" font-weight="400" text-anchor="start" style="mix-blend-mode: normal"><tspan x="0" dy="0">Catch</tspan></text><path d="M214.24756,220.32554v-14.77272h46.31447v14.77272z" fill="#03c300" fill-rule="nonzero" stroke="none" stroke-width="0"/><text transform="translate(215.42814,217.91229) scale(0.3759,0.3759)" font-size="40" xml:space="preserve" fill="#ffffff" fill-rule="nonzero" stroke="none" stroke-width="1" stroke-linecap="butt" stroke-linejoin="miter" stroke-miterlimit="10" stroke-dasharray="" stroke-dashoffset="0" font-family="Sans Serif" font-weight="normal" text-anchor="start" style="mix-blend-mode: normal"><tspan x="0" dy="0">Install</tspan></text></g></g></svg>