<svg version="1.1" xmlns="http://www.w3.org/2000/svg" xmlns:xlink="http://www.w3.org/1999/xlink" width="902.75" height="501.75" viewBox="0,0,902.75,501.75"><g transform="translate(32,41.78334)"><g data-paper-data="{&quot;isPaintingLayer&quot;:true}" fill-rule="nonzero" stroke-linecap="butt" stroke-linejoin="miter" stroke-miterlimit="10" stroke-dasharray="" stroke-dashoffset="0" style="mix-blend-mode: normal"><path d="M-24,459.21666v-132h894v132z" data-paper-data="{&quot;origPos&quot;:null}" fill="#cccccc" stroke="#000000" stroke-width="1.5"/><path d="M125,344.21666v-271h22v271z" data-paper-data="{&quot;origPos&quot;:null}" fill="#cccccc" stroke="#000000" stroke-width="1.5"/><path d="M-29,272.21666v-305h49v305z" fill="#cccccc" stroke="#000000" stroke-width="1.5"/><path d="M96,282.21666v-14h37v14z" data-paper-data="{&quot;origPos&quot;:null}" fill="#cccccc" stroke="#000000" stroke-width="1.5"/><path d="M12,223.21666v-16h45v16z" fill="#cccccc" stroke="#000000" stroke-width="1.5"/><path d="M88,169.21666v-16h42v16z" data-paper-data="{&quot;origPos&quot;:null}" fill="#cccccc" stroke="#000000" stroke-width="1.5"/><path d="M12,106.21666v-15h40v15z" data-paper-data="{&quot;origPos&quot;:null}" fill="#cccccc" stroke="#000000" stroke-width="1.5"/><path d="M15,18.21666v-31h241v31z" fill="#cccccc" stroke="#000000" stroke-width="1.5"/><path d="M227,280.21666v-272h19v272z" data-paper-data="{&quot;origPos&quot;:null}" fill="#cccccc" stroke="#000000" stroke-width="1.5"/><path d="M344,347.21666v-279h19v279z" fill="#cccccc" stroke="#000000" stroke-width="1.5"/><path d="M320,284.21666v-21h38v21z" fill="#cccccc" stroke="#000000" stroke-width="1.5"/><path d="M240,221.21666v-19h37v19z" data-paper-data="{&quot;origPos&quot;:null}" fill="#cccccc" stroke="#000000" stroke-width="1.5"/><path d="M310,168.21666v-18h36v18z" data-paper-data="{&quot;origPos&quot;:null}" fill="#cccccc" stroke="#000000" stroke-width="1.5"/><path d="M242,103.21666v-17h38v17z" data-paper-data="{&quot;origPos&quot;:null}" fill="#cccccc" stroke="#000000" stroke-width="1.5"/><path d="M362,327.21666v-259h119v259z" fill="#cccccc" stroke="#000000" stroke-width="1.5"/><path d="M126,306.21666v-156h19v156z" fill="#cccccc" stroke="none" stroke-width="0"/><path d="M-32,229.21666v-188h50v188z" fill="#cccccc" stroke="none" stroke-width="0"/><path d="M-15,21.21666v-63h34v63z" fill="#cccccc" stroke="none" stroke-width="0"/><path d="M216,17.21666v-38h38v38z" fill="#cccccc" stroke="none" stroke-width="0"/><path d="M239,237.21666v-153h6v153z" fill="#cccccc" stroke="none" stroke-width="0"/><path d="M359,325.21666v-256h35v256z" fill="#cccccc" stroke="none" stroke-width="0"/><path d="M342,393.21666v-68h138v68z" fill="#cccccc" stroke="none" stroke-width="0"/><path d="M119,380.21666v-52h93v52z" fill="#cccccc" stroke="none" stroke-width="0"/><path d="M345,356.21666v-105h42v105z" fill="#cccccc" stroke="none" stroke-width="0"/><path d="M345,224.21666v-78h31v78z" fill="#cccccc" stroke="none" stroke-width="0"/><text transform="translate(370,109.21666) scale(0.5,0.5)" font-size="40" xml:space="preserve" data-paper-data="{&quot;origPos&quot;:null}" fill="#000000" fill-rule="nonzero" stroke="none" stroke-width="1" stroke-linecap="butt" stroke-linejoin="miter" stroke-miterlimit="10" stroke-dasharray="" stroke-dashoffset="0" font-family="Sans Serif" font-weight="normal" text-anchor="start" style="mix-blend-mode: normal"><tspan x="0" dy="0">Tower Of </tspan><tspan x="0" dy="46.15px">Destiny!</tspan></text></g></g></svg>