<svg version="1.1" xmlns="http://www.w3.org/2000/svg" xmlns:xlink="http://www.w3.org/1999/xlink" width="84.23542" height="23.92542" viewBox="0,0,84.23542,23.92542"><g transform="translate(-197.88229,-168.03729)"><g data-paper-data="{&quot;isPaintingLayer&quot;:true}" fill-rule="nonzero" stroke="none" stroke-linecap="butt" stroke-linejoin="miter" stroke-miterlimit="10" stroke-dasharray="" stroke-dashoffset="0" style="mix-blend-mode: normal"><path d="M197.88229,180.0013c0,-6.6061 5.3553,-11.9614 11.9614,-11.9614c6.6061,0 11.9614,5.3553 11.9614,11.9614c0,6.6061 -5.3553,11.9614 -11.9614,11.9614c-6.6061,0 -11.9614,-5.3553 -11.9614,-11.9614z" fill="#000000" stroke-width="0"/><path d="M209.69228,191.96271v-23.92281h60.78665v23.92281z" fill="#000000" stroke-width="0"/><path d="M258.19491,179.99869c0,-6.60609 5.3553,-11.9614 11.9614,-11.9614c6.60609,0 11.9614,5.35531 11.9614,11.9614c0,6.60609 -5.35531,11.9614 -11.9614,11.9614c-6.60609,0 -11.9614,-5.3553 -11.9614,-11.9614z" fill="#000000" stroke-width="0"/><text transform="translate(229.29304,183.64526) scale(0.3117,0.3117)" font-size="22" xml:space="preserve" fill="#ffffff" fill-rule="nonzero" stroke="none" stroke-width="1" stroke-linecap="butt" stroke-linejoin="miter" stroke-miterlimit="10" stroke-dasharray="" stroke-dashoffset="0" font-family="Sans Serif" font-weight="400" text-anchor="start" style="mix-blend-mode: normal"><tspan x="0" dy="0">Boogle Drive</tspan></text><path d="M206.23344,189.24132l-3.43986,-6.13998l7.24961,-12.53886l3.58781,5.99203z" fill="#34a854" stroke-width="0"/><path d="M217.78236,183.3434l-7.5567,-12.86482l6.96692,0.03686l7.48298,12.79111z" fill="#f9c304" stroke-width="0"/><path d="M206.35515,189.24132l3.57562,-6.08223l14.67106,0.14481l-3.31758,5.8288z" fill="#438df5" stroke-width="0"/><path d="M202.75893,183.14495h7.15174l-3.57587,6.13007z" fill="#1967d2" stroke-width="0"/><path d="M217.57326,183.14495h7.15174l-3.57587,6.13007z" fill="#ea4335" stroke-width="0"/><path d="M210.08096,170.54426h7.15175l-3.57587,6.13007z" fill="#188038" stroke-width="0"/></g></g></svg>