<svg xmlns="http://www.w3.org/2000/svg" xmlns:xlink="http://www.w3.org/1999/xlink" version="1.1" width="62.216" height="63.36821" viewBox="0,0,62.216,63.36821"><g><g data-paper-data="{&quot;isPaintingLayer&quot;:true}" fill-rule="nonzero" stroke-linecap="butt" stroke-linejoin="miter" stroke-miterlimit="10" stroke-dasharray="" stroke-dashoffset="0" style="mix-blend-mode: normal"><g id="Apple"><path d="M 59.083 34.3952 C 59.083 48.9222 46.558 60.7022 31.105 60.7022 C 15.652 60.7022 3.128 48.9272 3.128 34.3952 C 3.128 19.8682 15.651 13.1202 31.105 13.1202 C 46.557 13.1192 59.083 19.8692 59.083 34.3952 Z " id="Fill_1_" fill="#ec1c2c" stroke-width="1" stroke="none"/><g id="Outline_1_"><path d="M 62.216 34.1142 C 62.216 50.2702 48.289 63.3682 31.107 63.3682 C 13.928 63.3682 0 50.2702 0 34.1142 C 0 19.8762 10.821 13.4662 25.149 12.1422 C 25.149 12.1422 29.677 11.5622 34.285 11.9532 C 49.969 12.6832 62.216 18.9702 62.216 34.1142 Z M 57.47 34.5432 C 57.47 21.9412 47.463 15.5592 34.521 14.6232 C 34.521 14.6232 26.314 14.7382 26.065 14.7672 C 13.92 16.1082 4.751 22.4772 4.751 34.5412 C 4.751 48.2272 16.549 59.3262 31.108 59.3262 C 45.666 59.3262 57.464 48.2292 57.47 34.5432 Z " id="Outline_2_" fill="#231f20" stroke-width="1" stroke="none"/><path d="M 31.108 59.3762 C 16.549 59.3762 4.7012 48.2226 4.7012 34.5366 C 4.7012 22.4726 13.9089 16.0595 26.0539 14.7185 C 26.3029 14.6895 34.5285 14.5738 34.5285 14.5738 C 47.4705 15.5098 57.5198 21.9366 57.5198 34.5386 C 57.5138 48.2246 45.666 59.3762 31.108 59.3762 Z " data-paper-data="{&quot;noHover&quot;:false,&quot;origItem&quot;:[&quot;Path&quot;,{&quot;applyMatrix&quot;:true,&quot;segments&quot;:[[[266.47,183.55],[-0.006,13.686],[0,-12.602]],[[243.521,163.63],[12.942,0.936],[0,0]],[[235.065,163.774],[0.249,-0.029],[-12.145,1.341]],[[213.751,183.548],[0,-12.064],[0,13.686]],[[240.108,208.333],[-14.559,0],[14.558,0]]],&quot;closed&quot;:true,&quot;fillColor&quot;:[0.13725,0.12157,0.12549]}]}" fill="#740000" stroke-width="0.5" stroke="none"/><path d="M 40.06 21.0582 C 36.492 21.2392 33.074 21.3292 29.499 21.7302 C 27.112 21.9982 24.812 22.0192 23.044 20.2162 C 22.66 19.8212 23.162 19.1402 23.642 19.4432 C 24.824 20.1842 26.015 20.4842 27.213 20.5422 C 27.291 20.6062 31.487 20.0522 33.403 19.4442 C 35.715 18.8142 38.029 18.2942 40.332 19.0552 C 41.433 19.4192 41.22 20.9972 40.06 21.0582 Z " id="Line" fill="#231f20" stroke-width="1" stroke="none"/></g><path d="M 12.555 34.2542 C 12.555 37.6852 14.405 40.4662 12.471 40.4662 C 10.537 40.4662 8.971 37.6852 8.971 34.2542 C 8.971 30.8242 10.537 28.0432 12.471 28.0432 C 14.405 28.0432 12.555 30.8252 12.555 34.2542 Z " id="Shine" fill="#ffffff" stroke-width="1" stroke="none"/></g><g id="Stem"><path d="M 24.116 4.6792 C 25.137 4.0692 26.155 3.4572 27.175 2.8462 C 27.909 3.9742 28.647 5.0752 29.239 6.3282 C 31.401 10.8922 30.925 15.7132 30.863 20.5402 C 30.488 20.6292 29.886 20.6932 29.515 20.7592 C 29.773 14.6112 28.31 8.9752 24.116 4.6792 Z " id="Fill" fill="#99661d" stroke-width="1" stroke="none"/><path d="M 33.297 18.4312 C 33.297 18.4312 33.067 20.3072 33.046 20.6612 C 33.046 20.6612 29.275 21.7852 27.796 21.2232 L 27.75 19.6142 C 27.78 16.3992 26.78 12.9462 26.188 11.8652 C 25.905 11.3492 24.765 8.3992 21.288 5.3082 C 20.692 4.7812 20.893 3.7932 21.53 3.4102 C 23.337 2.3262 25.139 1.2422 26.944 0.1582 C 27.524 -0.1888 28.209 0.0702 28.602 0.5932 C 34.13 7.9512 33.466 17.6702 33.297 18.4312 Z M 30.761 19.1452 C 30.873 14.7032 31.251 10.5752 29.239 6.3282 C 28.647 5.0752 27.909 3.9742 27.175 2.8462 C 26.155 3.4572 25.137 4.0692 24.116 4.6792 C 28.078 8.7372 29.696 13.6482 29.646 19.3622 L 29.646 20.5142 L 30.755 20.3732 Z " id="Outline" fill="#231f20" stroke-width="1" stroke="none"/></g></g></g></svg>