<svg version="1.1" xmlns="http://www.w3.org/2000/svg" xmlns:xlink="http://www.w3.org/1999/xlink" width="53.00915" height="44.24705" viewBox="0,0,53.00915,44.24705"><g transform="translate(-213.60166,-158.29818)"><g data-paper-data="{&quot;isPaintingLayer&quot;:true}" fill-rule="nonzero" stroke-linejoin="miter" stroke-miterlimit="10" stroke-dasharray="" stroke-dashoffset="0" style="mix-blend-mode: normal"><path d="M251.53623,173.73922c0,0 0,6.6703 0,8.8539c0,1.0809 0,2.78864 0,2.78864l-9.31509,-8.07887l9.06493,-6.68424z" fill="#c2bcb4" stroke="#c2bcb4" stroke-width="1.5" stroke-linecap="round"/><path d="M239.34453,166.03631l1.79193,4.58733l-15.55393,15.55393z" fill="#329243" stroke="#329243" stroke-width="1.5" stroke-linecap="round"/><path d="M229.25702,189.84317l8.8951,-8.41103l9.75039,8.24611z" fill="#536fb1" stroke="#536fb1" stroke-width="1.5" stroke-linecap="round"/><text transform="translate(213.70779,199.78025) scale(0.21224,0.2212)" font-size="40" xml:space="preserve" fill="#ffffff" fill-rule="nonzero" stroke="none" stroke-width="1" stroke-linecap="butt" stroke-linejoin="miter" stroke-miterlimit="10" stroke-dasharray="" stroke-dashoffset="0" font-family="Sans Serif" font-weight="normal" text-anchor="start" style="mix-blend-mode: normal"><tspan x="0" dy="0">Boogle Maps</tspan></text><path d="M249.29276,189.38624l-10.39242,-9.23845l2.1952,-2.7601c0,0 5.4208,5.0609 7.3685,6.8793c1.2795,1.1946 2.82308,2.81272 2.82308,2.81272z" data-paper-data="{&quot;index&quot;:null}" fill="#ffffff" stroke="#ffffff" stroke-width="1.5" stroke-linecap="round"/><path d="M243.43486,174.58682c0,0 -1.5387,1.5109 -2.8191,2.7682c-2.7377,2.6882 -12.80453,12.16379 -12.80453,12.16379l-2.09898,-2.61849l15.46621,-15.4213z" fill="#fce226" stroke="#fce226" stroke-width="1.5" stroke-linecap="round"/><path d="M225.51022,184.63178l-0.20807,-21.91788l15.95366,-0.1466z" fill="#329243" stroke="#329243" stroke-width="1.5" stroke-linecap="round"/><path d="M240.57276,166.70308c0,-4.2277 3.2268,-7.6549 7.2072,-7.6549c3.9805,0 7.2072,3.4272 7.2072,7.6549c0,4.2276 -3.2267,7.6548 -7.2072,7.6548c-3.9804,0 -7.2072,-3.4272 -7.2072,-7.6548z" fill="#e6261d" stroke="#e6261d" stroke-width="1.5" stroke-linecap="butt"/><path d="M251.63203,171.85383l-3.7927,9.7514l-4.3343,-9.3002z" fill="#e6261d" stroke="#e6261d" stroke-width="1.5" stroke-linecap="round"/><path d="M224.73439,190.65549v-3.77945h2.96761v3.77945z" fill="#fce226" stroke="none" stroke-width="0" stroke-linecap="butt"/><path d="M249.36619,190.39215v-3.4077h2.93326v3.4077z" fill="#ffffff" stroke="none" stroke-width="0" stroke-linecap="butt"/><path d="M250.01446,166.53268c0,1.3236 -1.0484,2.3966 -2.3416,2.3966c-1.2933,0 -2.3416,-1.073 -2.3416,-2.3966c0,-1.3237 1.0483,-2.3967 2.3416,-2.3967c1.2932,0 2.3416,1.073 2.3416,2.3967z" fill="#73100f" stroke="#73100f" stroke-width="1.5" stroke-linecap="butt"/><text transform="translate(227.05225,174.40421) scale(0.25274,0.25274)" font-size="40" xml:space="preserve" fill="#ffffff" fill-rule="nonzero" stroke="none" stroke-width="1" stroke-linecap="butt" stroke-linejoin="miter" stroke-miterlimit="10" stroke-dasharray="" stroke-dashoffset="0" font-family="Sans Serif" font-weight="normal" text-anchor="start" style="mix-blend-mode: normal"><tspan x="0" dy="0">B</tspan></text></g></g></svg>