<svg xmlns="http://www.w3.org/2000/svg" xmlns:xlink="http://www.w3.org/1999/xlink" version="1.1" width="453.96209" height="278.77188" viewBox="0,0,453.96209,278.77188"><g><g data-paper-data="{&quot;isPaintingLayer&quot;:true}" fill-rule="nonzero" stroke-linejoin="miter" stroke-miterlimit="10" stroke-dasharray="" stroke-dashoffset="0" style="mix-blend-mode: normal"><path d="M 23.8838 13.3912 L 453.95 0.8806 C 453.95 0.8806 453.95 243.0179 453.95 270.2001 C 453.95 275.0495 450.8892 278.7719 446.479 278.7719 C 415.2441 278.7719 66.487 278.7719 8.2295 278.7719 C 5.5667 278.7719 3.5108 277.9778 2.1199 276.653 C 0.7261 275.3256 0 273.4653 0 271.3374 C 0 245.6949 10.2359 6.9463 10.2359 6.9463 Z " fill="#ffffff" stroke="none" stroke-width="2.28301" stroke-linecap="butt"/><path d="M 8.9877 0.751 C 45.5173 0.751 453.9621 0.751 453.9621 0.751 L 453.9621 78.901 L 0.2121 78.901 C 0.2121 78.901 0.2121 22.4971 0.2121 10.1316 C 0.2121 5.5646 3.8577 0.751 8.9877 0.751 Z " fill="#03a9f5" stroke="none" stroke-width="1.00942" stroke-linecap="butt"/><path d="M 0.2017 71.7387 L 45.0017 71.7387 L 45.0017 278.7387 C 45.0017 278.7387 12.6631 278.7387 5.5757 278.7387 C 2.9591 278.7387 0.2017 275.8421 0.2017 272.0956 C 0.2017 251.5204 0.2017 71.7387 0.2017 71.7387 Z " fill="#03a9f5" stroke="none" stroke-width="1.00913" stroke-linecap="butt"/><text transform="matrix(0.65858,0,0,0.65858,4.23244,16.13521)" font-size="22" xml:space="preserve" fill="#ffffff" fill-rule="nonzero" stroke="none" stroke-width="1" stroke-linecap="butt" stroke-linejoin="miter" stroke-miterlimit="10" stroke-dasharray="" stroke-dashoffset="0" font-family="Sans Serif" font-weight="400" text-anchor="start" style="mix-blend-mode: normal"><tspan x="0" dy="0">Files</tspan></text><path d="M 447.0153 1.8887 C 448.4633 1.8887 449.7763 2.4827 450.7263 3.4417 C 451.6773 4.4017 452.2653 5.7267 452.2653 7.1887 C 452.2653 8.6507 451.6773 9.9757 450.7263 10.9357 C 449.7763 11.8947 448.4633 12.4887 447.0153 12.4887 C 445.5673 12.4887 444.2543 11.8947 443.3043 10.9357 C 442.3533 9.9757 441.7653 8.6507 441.7653 7.1887 C 441.7653 5.7267 442.3533 4.4017 443.3043 3.4417 C 444.2543 2.4827 445.5673 1.8887 447.0153 1.8887 Z " fill="#ff0000" stroke="none" stroke-width="1" stroke-linecap="butt"/><path d="M 444.4153 4.2387 L 449.6153 9.3387 " fill="none" stroke="#ffffff" stroke-width="2" stroke-linecap="round"/><path d="M 444.5153 9.1887 L 449.5153 4.5887 " fill="none" stroke="#ffffff" stroke-width="2" stroke-linecap="round"/><text transform="matrix(0.30584,0,0,0.30584,1.5269600000000008,90.4244)" font-size="22" xml:space="preserve" fill="#ffffff" fill-rule="nonzero" stroke="none" stroke-width="1" stroke-linecap="butt" stroke-linejoin="miter" stroke-miterlimit="10" stroke-dasharray="" stroke-dashoffset="0" font-family="Sans Serif" font-weight="400" text-anchor="start" style="mix-blend-mode: normal"><tspan x="0" dy="0">Google Drive</tspan></text><text transform="matrix(0.30584,0,0,0.30584,3.4948799999999984,217.59762999999998)" font-size="22" xml:space="preserve" fill="#ffffff" fill-rule="nonzero" stroke="none" stroke-width="1" stroke-linecap="butt" stroke-linejoin="miter" stroke-miterlimit="10" stroke-dasharray="" stroke-dashoffset="0" font-family="Sans Serif" font-weight="400" text-anchor="start" style="mix-blend-mode: normal"><tspan x="0" dy="0">Downloads</tspan></text><path d="M 44.9153 227.7255 L 273.9153 227.7255 L 273.9153 243.7255 L 44.9153 243.7255 Z " fill="#7f7f7f" stroke="none" stroke-width="1" stroke-linecap="butt"/><text transform="matrix(0.41595,0,0,0.41595,48.28114,238.86791999999997)" font-size="22" xml:space="preserve" fill="#ffffff" fill-rule="nonzero" stroke="none" stroke-width="1" stroke-linecap="butt" stroke-linejoin="miter" stroke-miterlimit="10" stroke-dasharray="" stroke-dashoffset="0" font-family="Sans Serif" font-weight="400" text-anchor="start" style="mix-blend-mode: normal"><tspan x="0" dy="0">Chrome OS Play Store.apk</tspan></text><text transform="matrix(0.39341,0,0,0.39341,247.03435000000002,238.4758)" font-size="22" xml:space="preserve" fill="#ffffff" fill-rule="nonzero" stroke="none" stroke-width="1" stroke-linecap="butt" stroke-linejoin="miter" stroke-miterlimit="10" stroke-dasharray="" stroke-dashoffset="0" font-family="Sans Serif" font-weight="400" text-anchor="start" style="mix-blend-mode: normal"><tspan x="0" dy="0">1MB</tspan></text><path d="M 44.9153 83.2387 L 273.9153 83.2387 L 273.9153 99.2387 L 44.9153 99.2387 Z " fill="#7f7f7f" stroke="none" stroke-width="1" stroke-linecap="butt"/><text transform="matrix(0.3613,0,0,0.3613,46.63788,93.88669)" font-size="22" xml:space="preserve" fill="#ffffff" fill-rule="nonzero" stroke="none" stroke-width="1" stroke-linecap="butt" stroke-linejoin="miter" stroke-miterlimit="10" stroke-dasharray="" stroke-dashoffset="0" font-family="Sans Serif" font-weight="400" text-anchor="start" style="mix-blend-mode: normal"><tspan x="0" dy="0">Total Important Text Document.txt</tspan></text><text transform="matrix(0.39861,0,0,0.39861,250.86228,94.20241)" font-size="22" xml:space="preserve" fill="#ffffff" fill-rule="nonzero" stroke="none" stroke-width="1" stroke-linecap="butt" stroke-linejoin="miter" stroke-miterlimit="10" stroke-dasharray="" stroke-dashoffset="0" font-family="Sans Serif" font-weight="400" text-anchor="start" style="mix-blend-mode: normal"><tspan x="0" dy="0">2KB</tspan></text></g></g></svg>