<svg xmlns="http://www.w3.org/2000/svg" xmlns:xlink="http://www.w3.org/1999/xlink" version="1.1" width="101.88003" height="104.64841" viewBox="0,0,101.88003,104.64841"><g><g data-paper-data="{&quot;isPaintingLayer&quot;:true}" fill-rule="nonzero" stroke-linejoin="miter" stroke-miterlimit="10" stroke-dasharray="" stroke-dashoffset="0" style="mix-blend-mode: normal"><path d="M 50.94 76.1407 C 64.7695 76.1407 77.3008 77.6924 86.3748 80.1986 C 95.4488 82.7056 101.0655 86.1673 101.0655 89.9873 C 101.0655 93.8074 95.4488 97.269 86.3748 99.7761 C 77.3008 102.2823 64.7695 103.8339 50.94 103.8339 C 37.1106 103.8339 24.5792 102.2823 15.5052 99.7761 C 6.4312 97.269 0.8145 93.8074 0.8145 89.9873 C 0.8145 86.1673 6.4312 82.7056 15.5052 80.1986 C 24.5792 77.6924 37.1106 76.1407 50.94 76.1407 Z " fill="#b2b2b2" stroke="#b2b2b2" stroke-width="1.62901" stroke-linecap="butt"/><g stroke-linecap="round"><path d="M 50.5925 39.6639 C 61.3877 39.6639 69.4006 42.5641 78.2532 47.551 C 82.4599 49.9263 86.1269 54.5727 88.8072 60.2523 C 90.9174 64.7309 92.4726 70.4765 92.2328 75.8206 C 91.7753 81.8345 92.6675 90.1842 86.9041 91.2619 C 63.8534 95.5702 40.3727 95.3999 17.2498 90.4994 C 11.4688 89.2742 12.7158 80.1925 11.921 74.6133 C 11.3471 70.0864 11.0395 64.6292 12.53 60.6971 C 14.8754 54.6311 18.6885 50.0788 22.9317 47.551 C 31.7341 42.3366 39.7972 39.6639 50.5925 39.6639 Z " fill="#660000" stroke="#703d00" stroke-width="2.12954"/><path d="M 51.3513 39.0522 C 60.5997 38.7431 69.8801 38.914 78.9466 40.3929 C 84.1809 41.5534 91.1479 41.9271 93.7909 46.8866 C 97.2249 53.3175 94.6268 61.4803 94.1715 69.3004 C 93.9729 71.3826 93.2786 75.6157 91.5071 74.9981 C 87.4855 72.9955 86.0863 63.8792 82.0296 62.4296 C 79.9263 61.6814 81.6962 68.8681 79.2891 70.2221 C 76.0157 72.0437 70.1206 66.3946 68.2891 69.3423 C 66.2139 72.6897 72.348 78.1629 71.0296 82.3297 C 70.3802 85.0345 65.4214 86.7262 63.9499 84.5083 C 61.1455 80.2769 64.361 73.4522 61.9707 68.9234 C 60.7154 66.5395 56.7546 66.4306 54.8911 68.0436 C 51.3885 71.086 51.7944 77.7942 48.2302 80.612 C 46.3232 82.1178 43.2957 81.0645 41.5312 79.7323 C 37.0703 75.583 35.9535 66.1667 30.5311 65.0271 C 26.4401 64.1616 24.2729 75.8813 21.4723 74.5373 C 18.3078 73.0022 21.8635 59.5406 19.1124 58.5334 C 16.5295 57.6126 13.4844 72.0253 11.1954 71.3533 C 8.5744 70.4961 9.0776 60.5687 9.2923 55.4751 C 9.4673 51.2931 8.3841 44.6444 11.9566 43.2417 C 24.3848 38.3928 38.1824 39.4938 51.3513 39.0522 Z " fill="#ff99e5" stroke="#ff00bf" stroke-width="1.65257"/><path d="M 35.063 47.8052 L 31.1426 48.6197 " fill="none" stroke="#9b4976" stroke-width="1.62504"/><path d="M 48.4229 58.7196 L 43.7031 58.7196 " fill="none" stroke="#9b4976" stroke-width="1.62504"/><path d="M 74.7621 54.1176 L 74.7621 50.3301 " fill="none" stroke="#9b4976" stroke-width="1.62504"/><path d="M 63.3814 45.2802 L 59.423 42.7552 " fill="none" stroke="#9b4976" stroke-width="1.62504"/><path d="M 88.5408 57.0498 L 88.5408 61.6925 " fill="none" stroke="#9b4976" stroke-width="1.62504"/><path d="M 84.6204 47.3572 L 81.4612 47.3572 " fill="none" stroke="#9b4976" stroke-width="1.62504"/><path d="M 19.7238 53.6696 L 23.2637 49.8822 " fill="none" stroke="#9b4976" stroke-width="1.62504"/><path d="M 24.063 58.7196 L 27.1841 57.9051 " fill="none" stroke="#ffffff" stroke-width="1.62504"/><path d="M 42.1426 42.7552 L 45.3018 45.6875 " fill="none" stroke="#ffffff" stroke-width="1.62504"/><path d="M 44.1218 71.7924 L 47.243 68.8194 " fill="none" stroke="#ffffff" stroke-width="1.62504"/><path d="M 63.7621 66.7424 L 60.6029 64.2175 " fill="none" stroke="#ffffff" stroke-width="1.62504"/><path d="M 70.8417 64.6247 L 70.461 67.1497 Z " fill="none" stroke="#ffffff" stroke-width="1.62504"/><path d="M 74.7621 44.0177 L 71.2223 44.0177 " fill="none" stroke="#ffffff" stroke-width="1.62504"/><path d="M 81.0805 56.6426 L 84.2016 55.7873 " fill="none" stroke="#ffffff" stroke-width="1.62504"/><path d="M 19.7238 46.0947 L 15.3847 47.8052 " fill="none" stroke="#ffffff" stroke-width="1.62504"/><path d="M 27.1841 46.9499 L 26.0041 44.0177 Z " fill="none" stroke="#ffffff" stroke-width="1.62504"/><path d="M 59.8417 56.1946 L 59.423 54.1176 Z " fill="none" stroke="#ffffff" stroke-width="1.62504"/><path d="M 36.6235 54.1176 L 34.2637 59.5748 " fill="none" stroke="#6148a4" stroke-width="1.62504"/><path d="M 55.1219 41.9 L 50.4022 41.9 " fill="none" stroke="#6148a4" stroke-width="1.62504"/><path d="M 52.7621 65.032 L 57.4818 63.3622 " fill="none" stroke="#6148a4" stroke-width="1.62504"/><path d="M 70.8417 58.7196 L 66.5026 57.0498 " fill="none" stroke="#6148a4" stroke-width="1.62504"/><path d="M 28.364 64.2175 L 24.4435 65.8872 " fill="none" stroke="#6148a4" stroke-width="1.62504"/><path d="M 14.6234 55.7873 L 14.6234 52.4071 " fill="none" stroke="#6148a4" stroke-width="1.62504"/><path d="M 37.0422 41.0855 L 33.5025 41.4928 " fill="none" stroke="#6148a4" stroke-width="1.62504"/><path d="M 93.2605 58.7196 L 93.2605 63.3622 " fill="none" stroke="#6148a4" stroke-width="1.62504"/><path d="M 70.461 50.7374 L 66.9213 50.7374 " fill="none" stroke="#6148a4" stroke-width="1.62504"/><path d="M 66.122 41.0855 L 68.4818 41.0855 Z " fill="none" stroke="#6148a4" stroke-width="1.62504"/></g><path d="M 24.0285 48.3358 C 23.9697 36.8423 23.8987 25.9705 23.8109 17.0042 C 24.3744 15.9673 25.0921 15.8322 25.6889 15.8594 C 26.0696 15.8788 26.4645 16.4201 26.8512 16.8178 C 26.9575 26.7993 27.0432 37.2437 27.1133 47.9939 C 26.7041 47.7618 26.1128 47.5031 25.4957 47.5046 C 24.9488 47.5059 24.4225 47.9193 24.0285 48.3358 Z " fill="#ffffff" stroke="none" stroke-width="1.24326" stroke-linecap="butt"/><path d="M 23.526 30.3119 C 24.0168 30.2985 24.6714 30.2847 25.3498 30.2831 C 26.1153 30.2813 26.8475 30.2872 27.354 30.2929 C 27.5498 31.9679 27.1625 33.8999 27.1804 35.4625 C 26.5467 35.4863 25.9237 35.5028 25.1712 35.5063 C 24.6217 35.5089 24.0767 35.5023 23.5497 35.4883 C 23.5242 35.4876 23.5033 35.4865 23.479 35.4855 C 23.3206 34.4209 23.5505 33.33 23.542 32.2624 C 23.5383 31.7357 23.5665 30.9872 23.526 30.3119 Z " fill="#42b5e8" stroke="none" stroke-width="0.4292" stroke-linecap="butt"/><path d="M 23.7129 20.7119 C 24.2037 20.6985 24.8583 20.6847 25.5368 20.6831 C 26.3022 20.6813 27.0344 20.6872 27.5409 20.6929 C 27.7367 22.3679 27.3494 24.2999 27.3673 25.8625 C 26.7336 25.8863 26.1106 25.9028 25.3581 25.9063 C 24.8086 25.9089 24.2636 25.9023 23.7366 25.8883 C 23.7112 25.8876 23.6902 25.8865 23.6659 25.8855 C 23.5075 24.8209 23.7374 23.73 23.7289 22.6624 C 23.7252 22.1357 23.7534 21.3872 23.7129 20.7119 Z " fill="#42b5e8" stroke="none" stroke-width="0.4292" stroke-linecap="butt"/><path d="M 23.3858 40.7119 C 23.8766 40.6985 24.5312 40.6847 25.2096 40.6831 C 25.9751 40.6813 26.7073 40.6872 27.2138 40.6929 C 27.4096 42.3679 27.0223 44.2999 27.0402 45.8625 C 26.4065 45.8863 25.7835 45.9028 25.031 45.9063 C 24.4815 45.9089 23.9365 45.9023 23.4095 45.8883 C 23.3841 45.8876 23.3631 45.8865 23.3388 45.8855 C 23.1804 44.8209 23.4103 43.73 23.4018 42.6624 C 23.3981 42.1357 23.4263 41.3872 23.3858 40.7119 Z " fill="#42b5e8" stroke="none" stroke-width="0.4292" stroke-linecap="butt"/><path d="M 28.0015 16.3265 C 28.1712 16.4122 28.1959 16.5148 28.1372 16.6035 C 27.6593 26.13 27.9337 38.2517 27.5607 47.7338 C 27.5603 47.7444 27.5543 47.752 27.551 47.7614 C 27.551 47.7673 27.552 47.7756 27.552 47.7787 C 27.4653 48.263 25.916 48.2796 25.3472 48.2831 C 24.5969 48.2874 23.1254 48.2125 22.8326 47.6813 C 22.8298 47.6765 22.8312 47.6684 22.8308 47.6618 C 22.8181 47.646 22.8027 47.6305 22.8014 47.6153 C 22.6041 42.0848 22.3948 36.5883 22.418 31.0817 C 22.4361 27.0597 22.4022 20.4917 22.5784 16.4714 C 22.5889 16.2478 22.8451 16.1255 23.1245 16.1011 C 23.6194 15.8934 24.5608 15.8456 24.9961 15.8337 C 26.0263 15.806 27.2195 15.9309 28.0015 16.3265 Z M 23.8366 16.5569 C 23.7625 18.0566 23.7105 19.6259 23.6752 21.2413 C 23.4901 29.7435 23.7705 39.5447 23.7313 47.4756 C 24.2418 47.59 24.7437 47.6671 25.3504 47.6775 C 25.7939 47.6849 26.2334 47.6461 26.658 47.5697 C 26.6786 47.5654 26.6954 47.5596 26.715 47.5543 C 26.86 42.1498 26.6924 36.6158 26.7166 31.1978 C 26.7277 28.5247 26.7171 24.7263 26.7611 21.2987 C 26.7827 19.5714 26.8186 17.938 26.8779 16.5906 C 26.3111 16.4339 25.5928 16.4121 24.9962 16.4147 C 24.6151 16.4174 24.2219 16.4979 23.8366 16.5569 Z " fill="#231f20" stroke="none" stroke-width="0.38875" stroke-linecap="butt"/><path d="M 24.7849 2.9245 C 24.8003 2.6637 24.5528 2.2213 24.8945 2.9245 C 26.2798 5.7546 27.859 8.6865 28.7273 11.7035 C 28.9595 12.5014 28.5642 13.4271 28.0703 14.2242 C 27.5786 14.917 26.9774 15.9852 25.88 16.0061 C 24.728 16.027 23.842 14.9622 23.416 14.1373 C 22.7207 13.1073 22.483 11.8669 22.7042 10.7474 C 22.9911 9.2932 24.3064 7.9346 24.6754 6.6186 C 25.015 5.413 24.7313 3.9597 24.785 2.9245 Z " fill="#ff9400" stroke="#ff9400" stroke-width="2.06324" stroke-linecap="round"/><path d="M 25.3778 12.0645 C 25.4896 11.9316 25.4988 11.8597 25.568 11.9436 C 25.8665 12.5503 26.1801 13.1714 26.2532 13.711 C 26.3019 14.0844 26.0751 14.4475 25.9853 14.8106 C 25.8832 15.2481 26.0492 16.2577 25.7584 16.294 C 25.4325 16.2577 24.9392 15.2789 24.6942 14.8106 C 24.5137 14.4687 24.3501 14.0826 24.4262 13.711 C 24.5434 13.1762 24.9796 12.5672 25.3778 12.0645 Z " fill="#ffff99" stroke="none" stroke-width="0.71711" stroke-linecap="round"/><path d="M 39.4444 46.6358 C 39.0503 46.2193 38.5241 45.8059 37.9771 45.8046 C 37.36 45.8031 36.7688 46.0618 36.3595 46.2939 C 36.4296 35.5437 36.5153 25.0993 36.6216 15.1178 C 37.0083 14.7201 37.4033 14.1788 37.7839 14.1594 C 38.3807 14.1322 39.0985 14.2673 39.6619 15.3042 C 39.5741 24.2705 39.5032 35.1423 39.4444 46.6358 Z " fill="#ffffff" stroke="none" stroke-width="1.24326" stroke-linecap="butt"/><path d="M 39.9935 28.5619 C 39.9531 29.2372 39.9813 29.9857 39.9776 30.5124 C 39.9691 31.58 40.199 32.6709 40.0406 33.7355 C 40.0163 33.7365 39.9953 33.7376 39.9699 33.7383 C 39.4429 33.7523 38.8979 33.7589 38.3483 33.7563 C 37.5959 33.7528 36.9729 33.7363 36.3392 33.7125 C 36.3571 32.1499 35.9698 30.2179 36.1655 28.5429 C 36.6721 28.5372 37.4043 28.5313 38.1697 28.5331 C 38.8482 28.5347 39.5028 28.5485 39.9935 28.5619 Z " fill="#42b5e8" stroke="none" stroke-width="0.4292" stroke-linecap="butt"/><path d="M 39.7599 19.1119 C 39.7194 19.7872 39.7477 20.5357 39.7439 21.0624 C 39.7354 22.13 39.9653 23.2209 39.8069 24.2855 C 39.7826 24.2865 39.7617 24.2876 39.7362 24.2883 C 39.2092 24.3023 38.6642 24.3089 38.1147 24.3063 C 37.3622 24.3028 36.7392 24.2863 36.1055 24.2625 C 36.1234 22.6999 35.7361 20.7679 35.9319 19.0929 C 36.4385 19.0872 37.1706 19.0813 37.9361 19.0831 C 38.6145 19.0847 39.2691 19.0985 39.7599 19.1119 Z " fill="#42b5e8" stroke="none" stroke-width="0.4292" stroke-linecap="butt"/><path d="M 39.9935 38.9619 C 39.9531 39.6372 39.9813 40.3857 39.9776 40.9124 C 39.9691 41.98 40.199 43.0709 40.0406 44.1355 C 40.0163 44.1365 39.9953 44.1376 39.9699 44.1383 C 39.4429 44.1523 38.8979 44.1589 38.3483 44.1563 C 37.5959 44.1528 36.9729 44.1363 36.3392 44.1125 C 36.3571 42.5499 35.9698 40.6179 36.1655 38.9429 C 36.6721 38.9372 37.4043 38.9313 38.1697 38.9331 C 38.8482 38.9347 39.5028 38.9485 39.9935 38.9619 Z " fill="#42b5e8" stroke="none" stroke-width="0.4292" stroke-linecap="butt"/><path d="M 40.8525 14.6765 C 41.0222 14.7622 41.0469 14.8648 40.9882 14.9535 C 40.5103 24.48 40.7846 36.6017 40.4117 46.0838 C 40.4112 46.0944 40.4052 46.102 40.402 46.1114 C 40.402 46.1173 40.4029 46.1256 40.4029 46.1287 C 40.3163 46.613 38.767 46.6296 38.1982 46.6331 C 37.4478 46.6374 35.9764 46.5625 35.6836 46.0313 C 35.6808 46.0265 35.6822 46.0184 35.6818 46.0118 C 35.6691 45.996 35.6537 45.9805 35.6524 45.9653 C 35.4551 40.4348 35.2458 34.9383 35.269 29.4317 C 35.287 25.4097 35.2532 18.8417 35.4294 14.8214 C 35.4398 14.5978 35.696 14.4755 35.9755 14.4511 C 36.4703 14.2434 37.4118 14.1956 37.847 14.1837 C 38.8773 14.156 40.0705 14.2809 40.8525 14.6765 Z M 36.6875 14.9069 C 36.6134 16.4066 36.5615 17.9759 36.5261 19.5913 C 36.3411 28.0935 36.6215 37.8947 36.5822 45.8256 C 37.0927 45.94 37.5947 46.0171 38.2013 46.0275 C 38.6448 46.0349 39.0844 45.9961 39.509 45.9197 C 39.5295 45.9154 39.5463 45.9096 39.566 45.9043 C 39.7109 40.4998 39.5433 34.9658 39.5676 29.5478 C 39.5787 26.8747 39.568 23.0763 39.612 19.6487 C 39.6336 17.9214 39.6695 16.288 39.7289 14.9406 C 39.162 14.7839 38.4438 14.7621 37.8471 14.7647 C 37.4661 14.7674 37.0729 14.8479 36.6875 14.9069 Z " fill="#231f20" stroke="none" stroke-width="0.38875" stroke-linecap="butt"/><path d="M 38.9381 4.8738 C 39.3174 6.2261 40.6688 7.6222 40.9637 9.1165 C 41.191 10.2669 40.9468 11.5415 40.2323 12.5999 C 39.7945 13.4475 38.8841 14.5417 37.7002 14.5202 C 36.5727 14.4988 35.9549 13.4011 35.4495 12.6892 C 34.942 11.8702 34.5358 10.9189 34.7744 10.099 C 35.6667 6.9987 37.2895 3.986 38.713 1.0778 C 39.0642 0.3552 38.8098 0.8098 38.8255 1.0778 C 38.8807 2.1416 38.5892 3.635 38.9381 4.8738 Z " fill="#ff9400" stroke="none" stroke-width="1.06008" stroke-linecap="round"/><path d="M 39.0933 12.061 C 39.1695 12.4326 39.0059 12.8187 38.8254 13.1606 C 38.5803 13.6289 38.087 14.6077 37.7611 14.644 C 37.4704 14.6077 37.6364 13.5981 37.5343 13.1606 C 37.4445 12.7975 37.2176 12.4344 37.2663 12.061 C 37.3394 11.5214 37.6531 10.9003 37.9515 10.2936 C 38.0208 10.2097 38.0299 10.2816 38.1418 10.4145 C 38.54 10.9172 38.9761 11.5262 39.0933 12.061 Z " fill="#ffff99" stroke="none" stroke-width="0.71711" stroke-linecap="round"/><path d="M 50.4313 45.9858 C 50.3725 34.4923 50.3016 23.6205 50.2137 14.6542 C 50.7772 13.6173 51.495 13.4822 52.0917 13.5094 C 52.4724 13.5288 52.8674 14.0701 53.254 14.4678 C 53.3604 24.4493 53.4461 34.8937 53.5162 45.6439 C 53.1069 45.4118 52.5157 45.1531 51.8986 45.1546 C 51.3516 45.1559 50.8254 45.5693 50.4313 45.9858 Z " fill="#ffffff" stroke="none" stroke-width="1.24326" stroke-linecap="butt"/><path d="M 49.9289 27.9619 C 50.4196 27.9485 51.0742 27.9347 51.7527 27.9331 C 52.5181 27.9313 53.2503 27.9372 53.7569 27.9429 C 53.9527 29.6179 53.5654 31.5499 53.5832 33.1125 C 52.9496 33.1363 52.3265 33.1528 51.5741 33.1563 C 51.0245 33.1589 50.4796 33.1523 49.9525 33.1383 C 49.9271 33.1376 49.9062 33.1365 49.8819 33.1355 C 49.7234 32.0709 49.9534 30.98 49.9449 29.9124 C 49.9411 29.3857 49.9693 28.6372 49.9289 27.9619 Z " fill="#42b5e8" stroke="none" stroke-width="0.4292" stroke-linecap="butt"/><path d="M 50.1625 18.3619 C 50.6533 18.3485 51.3079 18.3347 51.9863 18.3331 C 52.7518 18.3313 53.484 18.3372 53.9905 18.3429 C 54.1863 20.0179 53.799 21.9499 53.8169 23.5125 C 53.1832 23.5363 52.5602 23.5528 51.8077 23.5563 C 51.2582 23.5589 50.7132 23.5523 50.1862 23.5383 C 50.1608 23.5376 50.1398 23.5365 50.1155 23.5355 C 49.9571 22.4709 50.187 21.38 50.1785 20.3124 C 50.1748 19.7857 50.203 19.0372 50.1625 18.3619 Z " fill="#42b5e8" stroke="none" stroke-width="0.4292" stroke-linecap="butt"/><path d="M 49.8821 38.3619 C 50.3729 38.3485 51.0275 38.3347 51.706 38.3331 C 52.4714 38.3313 53.2036 38.3372 53.7101 38.3429 C 53.9059 40.0179 53.5186 41.9499 53.5365 43.5125 C 52.9028 43.5363 52.2798 43.5528 51.5273 43.5563 C 50.9778 43.5589 50.4328 43.5523 49.9058 43.5383 C 49.8804 43.5376 49.8594 43.5365 49.8351 43.5355 C 49.6767 42.4709 49.9066 41.38 49.8981 40.3124 C 49.8944 39.7857 49.9226 39.0372 49.8821 38.3619 Z " fill="#42b5e8" stroke="none" stroke-width="0.4292" stroke-linecap="butt"/><path d="M 54.4978 13.9765 C 54.6676 14.0622 54.6922 14.1648 54.6335 14.2535 C 54.1557 23.78 54.43 35.9017 54.0571 45.3838 C 54.0566 45.3944 54.0506 45.402 54.0473 45.4114 C 54.0473 45.4173 54.0483 45.4256 54.0483 45.4287 C 53.9616 45.913 52.4123 45.9296 51.8435 45.9331 C 51.0932 45.9374 49.6218 45.8625 49.3289 45.3313 C 49.3261 45.3265 49.3275 45.3184 49.3272 45.3118 C 49.3145 45.296 49.299 45.2805 49.2977 45.2653 C 49.1004 39.7348 48.8912 34.2383 48.9143 28.7317 C 48.9324 24.7097 48.8986 18.1417 49.0747 14.1214 C 49.0852 13.8978 49.3414 13.7755 49.6208 13.7511 C 50.1157 13.5434 51.0571 13.4956 51.4924 13.4837 C 52.5226 13.456 53.7158 13.5809 54.4978 13.9765 Z M 50.3329 14.2069 C 50.2588 15.7066 50.2068 17.2759 50.1715 18.8913 C 49.9864 27.3935 50.2668 37.1947 50.2276 45.1256 C 50.7381 45.24 51.24 45.3171 51.8467 45.3275 C 52.2902 45.3349 52.7297 45.2961 53.1543 45.2197 C 53.1749 45.2154 53.1917 45.2096 53.2113 45.2043 C 53.3563 39.7998 53.1887 34.2658 53.2129 28.8478 C 53.224 26.1747 53.2134 22.3763 53.2574 18.9487 C 53.279 17.2214 53.3149 15.588 53.3742 14.2406 C 52.8074 14.0839 52.0891 14.0621 51.4925 14.0647 C 51.1114 14.0674 50.7183 14.1479 50.3329 14.2069 Z " fill="#231f20" stroke="none" stroke-width="0.38875" stroke-linecap="butt"/><path d="M 51.1408 0.4 C 51.157 0.1247 50.8956 -0.3424 51.2564 0.4 C 52.719 3.3879 54.3861 6.4832 55.3029 9.6684 C 55.5481 10.5108 55.1307 11.4881 54.6092 12.3296 C 54.0902 13.061 53.4555 14.1888 52.2969 14.2108 C 51.0807 14.2328 50.1453 13.1087 49.6956 12.2378 C 48.9615 11.1504 48.7105 9.8409 48.9441 8.659 C 49.247 7.1237 50.6356 5.6894 51.0252 4.3001 C 51.3836 3.0273 51.0842 1.493 51.1408 0.4 Z " fill="#ff9400" stroke="none" stroke-width="1.08912" stroke-linecap="round"/><path d="M 51.7339 9.8145 C 51.8458 9.6816 51.8549 9.6097 51.9242 9.6936 C 52.2226 10.3003 52.5363 10.9214 52.6094 11.461 C 52.658 11.8344 52.4312 12.1975 52.3414 12.5606 C 52.2393 12.9981 52.4053 14.0077 52.1146 14.044 C 51.7887 14.0077 51.2954 13.0289 51.0503 12.5606 C 50.8698 12.2187 50.7062 11.8326 50.7824 11.461 C 50.8996 10.9262 51.3358 10.3172 51.7339 9.8145 Z " fill="#ffff99" stroke="none" stroke-width="0.71711" stroke-linecap="round"/><path d="M 64.4038 47.0358 C 64.345 35.5423 64.2741 24.6705 64.1862 15.7042 C 64.7497 14.6673 65.4675 14.5322 66.0642 14.5594 C 66.4449 14.5788 66.8399 15.1201 67.2265 15.5178 C 67.3329 25.4993 67.4186 35.9437 67.4887 46.6939 C 67.0794 46.4618 66.4882 46.2031 65.8711 46.2046 C 65.3241 46.2059 64.7978 46.6193 64.4038 47.0358 Z " fill="#ffffff" stroke="none" stroke-width="1.24326" stroke-linecap="butt"/><path d="M 63.8079 28.9619 C 64.2987 28.9485 64.9533 28.9347 65.6317 28.9331 C 66.3972 28.9313 67.1293 28.9372 67.6359 28.9429 C 67.8317 30.6179 67.4444 32.5499 67.4623 34.1125 C 66.8286 34.1363 66.2056 34.1528 65.4531 34.1563 C 64.9036 34.1589 64.3586 34.1523 63.8316 34.1383 C 63.8061 34.1376 63.7852 34.1365 63.7609 34.1355 C 63.6025 33.0709 63.8324 31.98 63.8239 30.9124 C 63.8201 30.3857 63.8484 29.6372 63.8079 28.9619 Z " fill="#42b5e8" stroke="none" stroke-width="0.4292" stroke-linecap="butt"/><path d="M 64.0416 19.4619 C 64.5323 19.4485 65.1869 19.4347 65.8654 19.4331 C 66.6308 19.4313 67.363 19.4372 67.8696 19.4429 C 68.0653 21.1179 67.6781 23.0499 67.6959 24.6125 C 67.0622 24.6363 66.4392 24.6528 65.6868 24.6563 C 65.1372 24.6589 64.5922 24.6523 64.0652 24.6383 C 64.0398 24.6376 64.0188 24.6365 63.9945 24.6355 C 63.8361 23.5709 64.066 22.48 64.0575 21.4124 C 64.0538 20.8857 64.082 20.1372 64.0416 19.4619 Z " fill="#42b5e8" stroke="none" stroke-width="0.4292" stroke-linecap="butt"/><path d="M 63.8079 39.3619 C 64.2987 39.3485 64.9533 39.3347 65.6317 39.3331 C 66.3972 39.3313 67.1293 39.3372 67.6359 39.3429 C 67.8317 41.0179 67.4444 42.9499 67.4623 44.5125 C 66.8286 44.5363 66.2056 44.5528 65.4531 44.5563 C 64.9036 44.5589 64.3586 44.5523 63.8316 44.5383 C 63.8061 44.5376 63.7852 44.5365 63.7609 44.5355 C 63.6025 43.4709 63.8324 42.38 63.8239 41.3124 C 63.8201 40.7857 63.8484 40.0372 63.8079 39.3619 Z " fill="#42b5e8" stroke="none" stroke-width="0.4292" stroke-linecap="butt"/><path d="M 68.4236 15.0765 C 68.5933 15.1622 68.618 15.2648 68.5593 15.3535 C 68.0814 24.88 68.3557 37.0017 67.9828 46.4838 C 67.9824 46.4944 67.9764 46.502 67.9731 46.5114 C 67.9731 46.5173 67.974 46.5256 67.974 46.5287 C 67.8874 47.013 66.3381 47.0296 65.7693 47.0331 C 65.019 47.0374 63.5475 46.9625 63.2547 46.4313 C 63.2519 46.4265 63.2533 46.4184 63.2529 46.4118 C 63.2402 46.396 63.2248 46.3805 63.2235 46.3653 C 63.0262 40.8348 62.8169 35.3383 62.8401 29.8317 C 62.8581 25.8097 62.8243 19.2417 63.0005 15.2214 C 63.0109 14.9978 63.2671 14.8755 63.5466 14.8511 C 64.0415 14.6434 64.9829 14.5956 65.4181 14.5837 C 66.4484 14.556 67.6416 14.6809 68.4236 15.0765 Z M 64.2587 15.3069 C 64.1846 16.8066 64.1326 18.3759 64.0973 19.9913 C 63.9122 28.4935 64.1926 38.2947 64.1533 46.2256 C 64.6638 46.34 65.1658 46.4171 65.7725 46.4275 C 66.2159 46.4349 66.6555 46.3961 67.0801 46.3197 C 67.1006 46.3154 67.1175 46.3096 67.1371 46.3043 C 67.2821 40.8998 67.1145 35.3658 67.1387 29.9478 C 67.1498 27.2747 67.1392 23.4763 67.1832 20.0487 C 67.2048 18.3214 67.2407 16.688 67.3 15.3406 C 66.7332 15.1839 66.0149 15.1621 65.4183 15.1647 C 65.0372 15.1674 64.644 15.2479 64.2587 15.3069 Z " fill="#231f20" stroke="none" stroke-width="0.38875" stroke-linecap="butt"/><path d="M 64.8899 2.2296 C 64.9051 1.9694 64.6583 1.5281 64.9992 2.2296 C 66.3811 5.0529 67.9564 7.9776 68.8228 10.9873 C 69.0544 11.7833 68.66 12.7068 68.1672 13.5019 C 67.6767 14.193 67.077 15.2586 65.9824 15.2794 C 64.8331 15.3003 63.9493 14.2381 63.5243 13.4152 C 62.8306 12.3877 62.5936 11.1503 62.8142 10.0335 C 63.1004 8.5828 64.4125 7.2275 64.7806 5.9148 C 65.1193 4.7121 64.8363 3.2623 64.8899 2.2296 Z " fill="#ff9400" stroke="none" stroke-width="1.02912" stroke-linecap="round"/><path d="M 65.6129 10.8145 C 65.7248 10.6816 65.7339 10.6097 65.8032 10.6936 C 66.1016 11.3003 66.4153 11.9214 66.4884 12.461 C 66.5371 12.8344 66.3102 13.1975 66.2204 13.5606 C 66.1184 13.9981 66.2844 15.0077 65.9936 15.044 C 65.6677 15.0077 65.1744 14.0289 64.9293 13.5606 C 64.7489 13.2187 64.5852 12.8326 64.6614 12.461 C 64.7786 11.9262 65.2148 11.3172 65.6129 10.8145 Z " fill="#ffff99" stroke="none" stroke-width="0.71711" stroke-linecap="round"/><path d="M 79.8664 48.1358 C 79.4724 47.7193 78.9461 47.3059 78.3992 47.3046 C 77.7821 47.3031 77.1908 47.5618 76.7816 47.7939 C 76.8517 37.0437 76.9374 26.5993 77.0437 16.6178 C 77.4304 16.2201 77.8253 15.6788 78.206 15.6594 C 78.8028 15.6322 79.5205 15.7673 80.084 16.8042 C 79.9962 25.7705 79.9252 36.6423 79.8664 48.1358 Z " fill="#ffffff" stroke="none" stroke-width="1.24326" stroke-linecap="butt"/><path d="M 80.3689 30.1119 C 80.3284 30.7872 80.3566 31.5357 80.3529 32.0624 C 80.3444 33.13 80.5743 34.2209 80.4159 35.2855 C 80.3916 35.2865 80.3707 35.2876 80.3452 35.2883 C 79.8182 35.3023 79.2732 35.3089 78.7237 35.3063 C 77.9712 35.3028 77.3482 35.2863 76.7145 35.2625 C 76.7324 33.6999 76.3451 31.7679 76.5409 30.0929 C 77.0474 30.0872 77.7796 30.0813 78.5451 30.0831 C 79.2235 30.0847 79.8781 30.0985 80.3689 30.1119 Z " fill="#42b5e8" stroke="none" stroke-width="0.4292" stroke-linecap="butt"/><path d="M 80.1352 20.5619 C 80.0948 21.2372 80.123 21.9857 80.1193 22.5124 C 80.1108 23.58 80.3407 24.6709 80.1822 25.7355 C 80.1579 25.7365 80.137 25.7376 80.1116 25.7383 C 79.5846 25.7523 79.0396 25.7589 78.49 25.7563 C 77.7376 25.7528 77.1146 25.7363 76.4809 25.7125 C 76.4987 24.1499 76.1114 22.2179 76.3072 20.5429 C 76.8138 20.5372 77.546 20.5313 78.3114 20.5331 C 78.9899 20.5347 79.6445 20.5485 80.1352 20.5619 Z " fill="#42b5e8" stroke="none" stroke-width="0.4292" stroke-linecap="butt"/><path d="M 80.5091 40.4619 C 80.4686 41.1372 80.4968 41.8857 80.4931 42.4124 C 80.4846 43.48 80.7145 44.5709 80.5561 45.6355 C 80.5318 45.6365 80.5109 45.6376 80.4854 45.6383 C 79.9584 45.6523 79.4134 45.6589 78.8639 45.6563 C 78.1114 45.6528 77.4884 45.6363 76.8547 45.6125 C 76.8726 44.0499 76.4853 42.1179 76.6811 40.4429 C 77.1876 40.4372 77.9198 40.4313 78.6853 40.4331 C 79.3637 40.4347 80.0183 40.4485 80.5091 40.4619 Z " fill="#42b5e8" stroke="none" stroke-width="0.4292" stroke-linecap="butt"/><path d="M 81.2745 16.1765 C 81.4443 16.2622 81.4689 16.3648 81.4102 16.4535 C 80.9324 25.98 81.2067 38.1017 80.8338 47.5838 C 80.8333 47.5944 80.8273 47.602 80.8241 47.6114 C 80.8241 47.6173 80.825 47.6256 80.825 47.6287 C 80.7383 48.113 79.189 48.1296 78.6202 48.1331 C 77.8699 48.1374 76.3984 48.0625 76.1056 47.5313 C 76.1028 47.5265 76.1042 47.5184 76.1039 47.5118 C 76.0911 47.496 76.0757 47.4805 76.0744 47.4653 C 75.8771 41.9348 75.6679 36.4383 75.691 30.9317 C 75.7091 26.9097 75.6752 20.3417 75.8514 16.3214 C 75.8619 16.0978 76.1181 15.9755 76.3975 15.9511 C 76.8924 15.7434 77.8338 15.6956 78.2691 15.6837 C 79.2993 15.656 80.4925 15.7809 81.2745 16.1765 Z M 77.1096 16.4069 C 77.0355 17.9066 76.9835 19.4759 76.9482 21.0913 C 76.7632 29.5935 77.0435 39.3947 77.0043 47.3256 C 77.5148 47.44 78.0168 47.5171 78.6234 47.5275 C 79.0669 47.5349 79.5064 47.4961 79.931 47.4197 C 79.9516 47.4154 79.9684 47.4096 79.988 47.4043 C 80.133 41.9998 79.9654 36.4658 79.9896 31.0478 C 80.0008 28.3747 79.9901 24.5763 80.0341 21.1487 C 80.0557 19.4214 80.0916 17.788 80.1509 16.4406 C 79.5841 16.2839 78.8659 16.2621 78.2692 16.2647 C 77.8882 16.2674 77.495 16.3479 77.1096 16.4069 Z " fill="#231f20" stroke="none" stroke-width="0.38875" stroke-linecap="butt"/><path d="M 78.0525 3.4039 C 78.0678 3.1438 77.8209 2.7025 78.1617 3.4039 C 79.5434 6.2266 81.1183 9.1507 81.9845 12.1597 C 82.216 12.9556 81.8218 13.8788 81.3292 14.6738 C 80.8388 15.3647 80.2392 16.4302 79.1447 16.451 C 77.9957 16.4718 77.1121 15.4098 76.6873 14.5871 C 75.9937 13.5598 75.7567 12.3227 75.9773 11.2061 C 76.2634 9.7558 77.5752 8.4008 77.9433 7.0883 C 78.2819 5.8859 77.999 4.4364 78.0525 3.4039 Z " fill="#ff9400" stroke="none" stroke-width="1.0289" stroke-linecap="round"/><path d="M 78.6975 11.8145 C 78.8094 11.6816 78.8186 11.6097 78.8878 11.6936 C 79.1862 12.3003 79.4999 12.9214 79.573 13.461 C 79.6217 13.8344 79.3948 14.1975 79.305 14.5606 C 79.203 14.9981 79.369 16.0077 79.0782 16.044 C 78.7523 16.0077 78.259 15.0289 78.014 14.5606 C 77.8335 14.2187 77.6698 13.8326 77.746 13.461 C 77.8632 12.9262 78.2994 12.3172 78.6975 11.8145 Z " fill="#ffff99" stroke="none" stroke-width="0.71711" stroke-linecap="round"/></g></g></svg>