<svg version="1.1" xmlns="http://www.w3.org/2000/svg" xmlns:xlink="http://www.w3.org/1999/xlink" width="256.92932" height="29.72182" viewBox="0,0,256.92932,29.72182"><g transform="translate(-111.61509,-165.13909)"><g data-paper-data="{&quot;isPaintingLayer&quot;:true}" fill-rule="nonzero" stroke-width="0" stroke-linecap="butt" stroke-linejoin="miter" stroke-miterlimit="10" stroke-dasharray="" stroke-dashoffset="0" style="mix-blend-mode: normal"><path d="M126.54831,194.84479v-29.66347h227.28571v29.66347z" fill="#ffffff" stroke="#000000"/><path d="M338.66309,180c0,-8.20745 6.65346,-14.86091 14.86091,-14.86091c8.20745,0 14.86091,6.65346 14.86091,14.86091c0,8.20745 -6.65346,14.86091 -14.86091,14.86091c-8.20745,0 -14.86091,-6.65346 -14.86091,-14.86091z" fill="#ffffff" stroke="#000000"/><path d="M111.61509,180c0,-8.20745 6.65345,-14.8609 14.8609,-14.8609c8.20745,0 14.86091,6.65345 14.86091,14.8609c0,8.20745 -6.65346,14.86091 -14.86091,14.86091c-8.20745,0 -14.8609,-6.65346 -14.8609,-14.86091z" fill="#ffffff" stroke="#000000"/><path d="M111.7566,181.84093v-16.62511h256.78781v16.62511z" fill="#ffffff" stroke="none"/><path d="M118.80075,177.08507c0,-4.18362 3.39149,-7.57511 7.57511,-7.57511c4.18362,0 7.57511,3.39149 7.57511,7.57511c0,4.18362 -3.39149,7.57511 -7.57511,7.57511c-4.18362,0 -7.57511,-3.39149 -7.57511,-7.57511z" fill="#4086f4" stroke="none"/><path d="M134.27678,180.95409c0,-1.55199 1.25814,-2.81012 2.81012,-2.81012c1.55199,0 2.81012,1.25814 2.81012,2.81012c0,1.55199 -1.25814,2.81012 -2.81012,2.81012c-1.55199,0 -2.81012,-1.25814 -2.81012,-2.81012z" fill="#eb4132" stroke="none"/><path d="M139.65266,177.32943c0,-0.76474 0.61995,-1.3847 1.3847,-1.3847c0.76474,0 1.3847,0.61995 1.3847,1.3847c0,0.76474 -0.61995,1.3847 -1.3847,1.3847c-0.76474,0 -1.3847,-0.61995 -1.3847,-1.3847z" fill="#31aa52" stroke="none"/><path d="M133.5437,188.28483c0,-1.91187 1.54988,-3.46174 3.46174,-3.46174c1.91187,0 3.46174,1.54988 3.46174,3.46174c0,1.91187 -1.54988,3.46174 -3.46174,3.46174c-1.91187,0 -3.46174,-1.54988 -3.46174,-3.46174z" fill="#fbbd01" stroke="none"/></g></g></svg>