<svg xmlns="http://www.w3.org/2000/svg" xmlns:xlink="http://www.w3.org/1999/xlink" version="1.1" width="21.67314" height="21.67312" viewBox="0,0,21.67314,21.67312"><g><g data-paper-data="{&quot;isPaintingLayer&quot;:true}" fill-rule="nonzero" stroke-linecap="butt" stroke-linejoin="miter" stroke-miterlimit="10" stroke-dasharray="" stroke-dashoffset="0" style="mix-blend-mode: normal"><path d="M234.36566,180c0,-3.11175 2.52258,-5.63433 5.63434,-5.63433c3.11175,0 5.63433,2.52258 5.63433,5.63433c0,3.11175 -2.52258,5.63433 -5.63433,5.63433c-3.11175,0 -5.63434,-2.52258 -5.63434,-5.63433z" fill="#ffffff" stroke="none" stroke-width="0" transform="matrix(1,0,0,1,-229.16343,-169.16344)"/><path d="M237.83838,180c0,-1.19383 0.96779,-2.16161 2.16161,-2.16161c1.19383,0 2.16162,0.96778 2.16162,2.16161c0,1.19383 -0.9678,2.16161 -2.16162,2.16161c-1.19383,0 -2.16161,-0.96778 -2.16161,-2.16161z" fill="#000000" stroke="#ffffff" stroke-width="0" transform="matrix(1,0,0,1,-229.16343,-169.16344)"/><g><path d="M231.53411,179.94945c0,-4.61664 3.74252,-8.35915 8.35915,-8.35915c4.61664,0 8.35916,3.74252 8.35916,8.35915c0,4.61664 -3.74253,8.35915 -8.35916,8.35915c-4.61664,0 -8.35915,-3.74252 -8.35915,-8.35915zM240.07303,184.04756c2.16405,0 3.91836,-1.7543 3.91836,-3.91835c0,-2.16405 -1.75431,-3.91835 -3.91836,-3.91835c-2.16405,0 -3.91835,1.7543 -3.91835,3.91835c0,2.16405 1.7543,3.91835 3.91835,3.91835z" stroke-width="0" fill="#000000" stroke="none" transform="matrix(1,0,0,1,-229.16343,-169.16344)"/><g><path d="M237.37653,171.94983c0,-1.53887 1.24751,-2.78639 2.78639,-2.78639c1.53887,0 2.78639,1.24751 2.78639,2.78639c0,1.53887 -1.24751,2.78639 -2.78639,2.78639c-1.53887,0 -2.78639,-1.24751 -2.78639,-2.78639z" stroke-width="0" fill="#000000" stroke="none" transform="matrix(1,0,0,1,-229.16343,-169.16344)"/><path d="M237.37653,176.08447v-3.95487h5.57277v3.95487z" stroke-width="0" fill="#000000" stroke="none" transform="matrix(1,0,0,1,-229.16343,-169.16344)"/></g><path d="M239.9045,171.69141c4.61664,0 8.35915,3.74252 8.35915,8.35915c0,4.61664 -3.74252,8.35915 -8.35915,8.35915c-4.61664,0 -8.35916,-3.74252 -8.35916,-8.35915c0,-4.61664 3.74253,-8.35915 8.35916,-8.35915zM236.16591,179.8708c0,2.16405 1.7543,3.91835 3.91835,3.91835c2.16405,0 3.91835,-1.7543 3.91835,-3.91835c0,-2.16405 -1.7543,-3.91835 -3.91835,-3.91835c-2.16405,0 -3.91835,1.7543 -3.91835,3.91835z" data-paper-data="{&quot;index&quot;:null}" stroke-width="0" fill="#000000" stroke="none" transform="matrix(1,0,0,1,-229.16343,-169.16344)"/><g data-paper-data="{&quot;index&quot;:null}"><path d="M240.17416,185.2638c1.53887,0 2.78637,1.24751 2.78637,2.78639c0,1.53887 -1.24751,2.78637 -2.78637,2.78637c-1.53887,0 -2.78639,-1.24751 -2.78639,-2.78637c0,-1.53887 1.24751,-2.78639 2.78639,-2.78639z" stroke-width="0" fill="#000000" stroke="none" transform="matrix(1,0,0,1,-229.16343,-169.16344)"/><path d="M242.96053,183.91555v3.95486h-5.57278v-3.95486z" stroke-width="0" fill="#000000" stroke="none" transform="matrix(1,0,0,1,-229.16343,-169.16344)"/></g><path d="M248.30859,179.82586c0,4.61664 -3.74252,8.35915 -8.35915,8.35915c-4.61664,0 -8.35915,-3.74252 -8.35915,-8.35915c0,-4.61664 3.74252,-8.35915 8.35915,-8.35915c4.61664,0 8.35915,3.74252 8.35915,8.35915zM240.12922,176.08727c-2.16405,0 -3.91835,1.7543 -3.91835,3.91835c0,2.16405 1.7543,3.91835 3.91835,3.91835c2.16405,0 3.91836,-1.7543 3.91836,-3.91835c0,-2.16405 -1.75431,-3.91835 -3.91836,-3.91835z" data-paper-data="{&quot;index&quot;:null}" stroke-width="0" fill="#000000" stroke="none" transform="matrix(1,0,0,1,-229.16343,-169.16344)"/><g data-paper-data="{&quot;index&quot;:null}"><path d="M234.73621,180.0955c0,1.53887 -1.24751,2.78639 -2.78639,2.78639c-1.53887,0 -2.78639,-1.24751 -2.78639,-2.78639c0,-1.53887 1.24751,-2.78639 2.78639,-2.78639c1.53887,0 2.78639,1.24751 2.78639,2.78639z" stroke-width="0" fill="#000000" stroke="none" transform="matrix(1,0,0,1,-229.16343,-169.16344)"/><path d="M236.08446,182.88189h-3.95486v-5.57278h3.95486z" stroke-width="0" fill="#000000" stroke="none" transform="matrix(1,0,0,1,-229.16343,-169.16344)"/></g><path d="M240.05057,171.47794c4.61664,0 8.35915,3.74252 8.35915,8.35915c0,4.61664 -3.74252,8.35915 -8.35915,8.35915c-4.61664,0 -8.35915,-3.74252 -8.35915,-8.35915c0,-4.61664 3.74252,-8.35915 8.35915,-8.35915zM235.95244,180.01685c0,2.16405 1.7543,3.91835 3.91835,3.91835c2.16405,0 3.91835,-1.7543 3.91835,-3.91835c0,-2.16405 -1.7543,-3.91835 -3.91835,-3.91835c-2.16405,0 -3.91835,1.7543 -3.91835,3.91835z" data-paper-data="{&quot;index&quot;:null}" stroke-width="0" fill="#000000" stroke="none" transform="matrix(1,0,0,1,-229.16343,-169.16344)"/><g data-paper-data="{&quot;index&quot;:null}"><path d="M248.05018,177.32036c1.53887,0 2.78637,1.24751 2.78639,2.78639c0,1.53887 -1.24751,2.78638 -2.78639,2.78639c-1.53887,0 -2.78639,-1.24751 -2.78639,-2.78639c0,-1.53887 1.24751,-2.78639 2.78639,-2.78639z" stroke-width="0" fill="#000000" stroke="none" transform="matrix(1,0,0,1,-229.16343,-169.16344)"/><path d="M243.91555,177.32036h3.95486v5.57277h-3.95487z" stroke-width="0" fill="#000000" stroke="none" transform="matrix(1,0,0,1,-229.16343,-169.16344)"/></g><path d="M233.88093,174.07909c3.26446,-3.26446 8.55718,-3.26446 11.82163,0c3.26446,3.26446 3.26446,8.55717 0,11.82163c-3.26446,3.26446 -8.55718,3.26446 -11.82163,0c-3.26446,-3.26446 -3.26446,-8.55717 0,-11.82163zM237.02105,183.01482c1.53022,1.53022 4.01117,1.53022 5.54138,0c1.53022,-1.53022 1.53022,-4.01117 0,-5.54138c-1.53022,-1.53022 -4.01117,-1.53022 -5.54138,0c-1.53022,1.53022 -1.53022,4.01117 0,5.54138z" stroke-width="0" fill="#000000" stroke="none" transform="matrix(1,0,0,1,-229.16343,-169.16344)"/><g><path d="M243.66873,172.55371c1.08816,-1.08816 2.85239,-1.08816 3.94055,0c1.08816,1.08816 1.08816,2.85239 0,3.94053c-1.08816,1.08816 -2.85239,1.08816 -3.94055,0c-1.08816,-1.08816 -1.08816,-2.85239 0,-3.94054z" stroke-width="0" fill="#000000" stroke="none" transform="matrix(1,0,0,1,-229.16343,-169.16344)"/><path d="M240.7451,175.47734l2.79651,-2.79651l3.94054,3.94055l-2.79651,2.79651z" stroke-width="0" fill="#000000" stroke="none" transform="matrix(1,0,0,1,-229.16343,-169.16344)"/></g><path d="M245.639,174.15853c3.26446,3.26446 3.26446,8.55718 0,11.82163c-3.26446,3.26446 -8.55717,3.26446 -11.82163,0c-3.26446,-3.26446 -3.26446,-8.55718 0,-11.82163c3.26446,-3.26446 8.55717,-3.26446 11.82163,0zM237.21172,177.29865c-1.53022,1.53022 -1.53022,4.01117 0,5.54138c1.53022,1.53022 4.01117,1.53022 5.54138,0c1.53022,-1.53022 1.53022,-4.01117 0,-5.54138c-1.53022,-1.53022 -4.01117,-1.53022 -5.54138,0z" data-paper-data="{&quot;index&quot;:null}" stroke-width="0" fill="#000000" stroke="none" transform="matrix(1,0,0,1,-229.16343,-169.16344)"/><g data-paper-data="{&quot;index&quot;:null}"><path d="M236.23255,183.94633c1.08816,1.08816 1.08816,2.85239 0,3.94055c-1.08816,1.08816 -2.85239,1.08816 -3.94054,0c-1.08816,-1.08816 -1.08816,-2.85239 0,-3.94055c1.08816,-1.08816 2.85239,-1.08816 3.94055,0z" stroke-width="0" fill="#000000" stroke="none" transform="matrix(1,0,0,1,-229.16343,-169.16344)"/><path d="M239.15618,184.96325l-2.79651,2.79651l-3.94054,-3.94055l2.79651,-2.79651z" stroke-width="0" fill="#000000" stroke="none" transform="matrix(1,0,0,1,-229.16343,-169.16344)"/></g><path d="M245.82968,185.85305c-3.26446,3.26446 -8.55717,3.26446 -11.82163,0c-3.26446,-3.26446 -3.26446,-8.55718 0,-11.82163c3.26446,-3.26446 8.55717,-3.26446 11.82163,0c3.26446,3.26446 3.26446,8.55718 0,11.82163zM242.68956,177.42576c-1.53022,-1.53022 -4.01117,-1.53022 -5.54139,0c-1.53022,1.53022 -1.53022,4.01117 0,5.54138c1.53022,1.53022 4.01117,1.53022 5.54139,0c1.53022,-1.53022 1.53022,-4.01117 0,-5.54138z" data-paper-data="{&quot;index&quot;:null}" stroke-width="0" fill="#000000" stroke="none" transform="matrix(1,0,0,1,-229.16343,-169.16344)"/><g data-paper-data="{&quot;index&quot;:null}"><path d="M236.04188,176.44659c-1.08816,1.08816 -2.85239,1.08816 -3.94055,0c-1.08816,-1.08816 -1.08816,-2.85239 0,-3.94053c1.08816,-1.08816 2.85239,-1.08816 3.94055,0c1.08816,1.08816 1.08816,2.8524 0,3.94055z" stroke-width="0" fill="#000000" stroke="none" transform="matrix(1,0,0,1,-229.16343,-169.16344)"/><path d="M235.02497,179.37022l-2.79651,-2.79651l3.94054,-3.94055l2.79651,2.79651z" stroke-width="0" fill="#000000" stroke="none" transform="matrix(1,0,0,1,-229.16343,-169.16344)"/></g><path d="M245.89324,174.11087c3.26446,3.26446 3.26446,8.55718 0,11.82163c-3.26446,3.26446 -8.55718,3.26446 -11.82163,0c-3.26446,-3.26446 -3.26446,-8.55718 0,-11.82163c3.26446,-3.26446 8.55718,-3.26446 11.82163,0zM236.9575,177.25099c-1.53022,1.53022 -1.53022,4.01117 0,5.54139c1.53022,1.53022 4.01117,1.53022 5.54138,0c1.53022,-1.53022 1.53022,-4.01117 0,-5.54139c-1.53022,-1.53022 -4.01117,-1.53022 -5.54138,0z" data-paper-data="{&quot;index&quot;:null}" stroke-width="0" fill="#000000" stroke="none" transform="matrix(1,0,0,1,-229.16343,-169.16344)"/><g data-paper-data="{&quot;index&quot;:null}"><path d="M247.41861,183.89867c1.08816,1.08816 1.08816,2.85239 0,3.94055c-1.08816,1.08816 -2.8524,1.08816 -3.94054,0c-1.08816,-1.08816 -1.08816,-2.85239 0,-3.94055c1.08816,-1.08816 2.8524,-1.08816 3.94055,0z" stroke-width="0" fill="#000000" stroke="none" transform="matrix(1,0,0,1,-229.16343,-169.16344)"/><path d="M244.49498,180.97503l2.79651,2.79651l-3.94055,3.94054l-2.79651,-2.79651z" stroke-width="0" fill="#000000" stroke="none" transform="matrix(1,0,0,1,-229.16343,-169.16344)"/></g></g></g></g></svg>