<svg version="1.1" xmlns="http://www.w3.org/2000/svg" xmlns:xlink="http://www.w3.org/1999/xlink" width="93.35767" height="99.0157" viewBox="0,0,93.35767,99.0157"><g transform="translate(-194.5525,-142.59649)"><g data-paper-data="{&quot;isPaintingLayer&quot;:true}" fill-rule="nonzero" stroke="none" stroke-linecap="butt" stroke-linejoin="miter" stroke-miterlimit="10" stroke-dasharray="" stroke-dashoffset="0" style="mix-blend-mode: normal"><path d="M287.68732,192.72809c0,26.99793 -20.73427,48.8841 -46.31126,48.8841c-25.57703,0 -46.31126,-21.88617 -46.31126,-48.8841c0,-26.99793 20.73427,-48.88413 46.31126,-48.88413c25.57703,0 46.31126,21.8862 46.31126,48.88413z" fill="#d4aa00" stroke-width="0"/><path d="M287.9101,190.37797c0,26.38898 -20.8988,47.78145 -46.6788,47.78145c-25.78,0 -46.6788,-21.39247 -46.6788,-47.78145c0,-26.38898 20.8988,-47.78148 46.67883,-47.78148c25.78,0 46.67883,21.3925 46.67883,47.78148z" fill="#ffd42a" stroke-width="0"/><path d="M276.66083,188.3175c0,19.69022 -15.63297,35.65232 -34.91721,35.65232c-19.28424,0 -34.91721,-15.9621 -34.91721,-35.65232c0,-19.69022 15.63297,-35.65235 34.91721,-35.65235c19.28424,0 34.91721,15.9621 34.91721,35.65235z" fill="#aa8800" stroke-width="0"/><path d="M276.14847,191.11308c0,19.89322 -15.63297,36.01989 -34.91721,36.01989c-19.28424,0 -34.91721,-16.12663 -34.91721,-36.01989c0,-19.89322 15.63297,-36.01989 34.91721,-36.01989c19.28424,0 34.91721,16.12663 34.91721,36.01989z" fill="#d4aa00" stroke-width="0"/><text transform="translate(215.64757,215.14863) scale(1.59494,1.59494)" font-size="40" xml:space="preserve" fill="#806600" fill-rule="nonzero" stroke="none" stroke-width="1" stroke-linecap="butt" stroke-linejoin="miter" stroke-miterlimit="10" stroke-dasharray="" stroke-dashoffset="0" font-family="Sans Serif" font-weight="normal" text-anchor="start" style="mix-blend-mode: normal"><tspan x="0" dy="0">C</tspan></text><text transform="translate(216.60543,213.90116) scale(1.59494,1.59494)" font-size="40" xml:space="preserve" fill="#ffd42a" fill-rule="nonzero" stroke="none" stroke-width="1" stroke-linecap="butt" stroke-linejoin="miter" stroke-miterlimit="10" stroke-dasharray="" stroke-dashoffset="0" font-family="Sans Serif" font-weight="normal" text-anchor="start" style="mix-blend-mode: normal"><tspan x="0" dy="0">C</tspan></text></g></g></svg>