<svg version="1.1" xmlns="http://www.w3.org/2000/svg" xmlns:xlink="http://www.w3.org/1999/xlink" width="518.1516" height="594.7006" viewBox="0,0,518.1516,594.7006"><g transform="translate(-102.0548,-74.08016)"><g data-paper-data="{&quot;isPaintingLayer&quot;:true}" fill-rule="nonzero" stroke="none" stroke-linejoin="miter" stroke-miterlimit="10" stroke-dasharray="" stroke-dashoffset="0" style="mix-blend-mode: normal"><path d="M124.4863,208.53706h88.7443v69.0234h-88.7443z" fill="#20a461" stroke-width="19.13378" stroke-linecap="butt"/><path d="M140.332,247.66116l175.5423,-48.1191l17.7231,79.6727l-150.2238,6.7051z" fill="#20a461" stroke-width="2.19559" stroke-linecap="round"/><path d="M139.7583,147.43326h141.9908l21.6422,66.6441l-153.7853,52.8458l-28.3982,-61.4912z" fill="#20a461" stroke-width="6.15562" stroke-linecap="round"/><path d="M152.3982,277.19885l-34.169,-83.7922l11.6581,-1.5353l34.169,80.4915z" data-paper-data="{&quot;index&quot;:null}" fill="#ffffff" stroke-width="3.74903" stroke-linecap="butt"/><path d="M308.6452,215.62306l-156.3742,61.7933l-4.6385,-11.7381l156.3742,-61.7934z" fill="#ffffff" stroke-width="3.74903" stroke-linecap="butt"/><path d="M286.7453,136.21406l33.5967,-10.137l-4.7289,98.221l-12.1776,-25.8524l-16.6902,-26.2422l-13.5993,-23.753z" fill="#5085c4" stroke-width="2.41081" stroke-linecap="round"/><path d="M118.6515,74.08016l148.8047,7.4204l110.489,-3.8053l-39.8665,40.6788l-184.0191,67.2019z" fill="#20a461" stroke-width="3.79492" stroke-linecap="round"/><path d="M277.0534,136.84256l49.8426,104.4766l-11.677,5.5707l-49.8426,-104.4765z" fill="#fcdd42" stroke-width="2.27721" stroke-linecap="butt"/><path d="M107.794,97.16086l4.5791,0.9879l5.2558,1.7458l31.8349,43.7982l20.4003,37.3107l-48.7628,14.4357z" fill="#5085c4" stroke-width="2.67497" stroke-linecap="round"/><path d="M230.0207,164.43256l-36.9196,-87.643l14.4088,0.6651l34.169,82.1418z" data-paper-data="{&quot;index&quot;:null}" fill="#ffffff" stroke-width="3.74903" stroke-linecap="butt"/><path d="M102.0548,202.86816l263.8365,-106.4603l5.3998,13.3821l-263.8365,106.4604z" fill="#fcdd42" stroke-width="3.02143" stroke-linecap="butt"/><path d="M135.0356,98.14536l36.9315,82.2012l-13.1631,5.9139l-36.9315,-82.2011z" fill="#fcdd42" stroke-width="2.03339" stroke-linecap="butt"/><path d="M620.2064,668.78076v0h-2.1202z" fill="#ffffff" stroke-width="2.12027" stroke-linecap="butt"/></g></g></svg>