<svg version="1.1" xmlns="http://www.w3.org/2000/svg" xmlns:xlink="http://www.w3.org/1999/xlink" width="86.22939" height="23.91696" viewBox="0,0,86.22939,23.91696"><g transform="translate(-196.8853,-168.04152)"><g data-paper-data="{&quot;isPaintingLayer&quot;:true}" fill-rule="nonzero" stroke="none" stroke-linecap="butt" stroke-linejoin="miter" stroke-miterlimit="10" stroke-dasharray="" stroke-dashoffset="0" style="mix-blend-mode: normal"><g fill="#000000" stroke-width="0"><path d="M196.8853,180.00131c0,-6.60377 5.3534,-11.95716 11.95716,-11.95716c6.60377,0 11.95716,5.3534 11.95716,11.95716c0,6.60377 -5.3534,11.95716 -11.95716,11.95716c-6.60377,0 -11.95716,-5.3534 -11.95716,-11.95716z"/><path d="M208.69112,191.95848v-23.91433h63.07805v23.91433z"/><path d="M259.20037,179.99868c0,-6.60375 5.3534,-11.95716 11.95716,-11.95716c6.60375,0 11.95716,5.35341 11.95716,11.95716c0,6.60375 -5.35342,11.95716 -11.95716,11.95716c-6.60375,0 -11.95716,-5.3534 -11.95716,-11.95716z"/></g><path d="M202.90514,176.34036c0,-3.98668 3.23184,-7.21853 7.21853,-7.21853c3.98668,0 7.21853,3.23184 7.21853,7.21853c0,3.98668 -3.23184,7.21853 -7.21853,7.21853c-3.98668,0 -7.21853,-3.23184 -7.21853,-7.21853z" fill="#4086f4" stroke-width="0"/><path d="M217.65268,180.02724c0,-1.47893 1.19891,-2.67784 2.67784,-2.67784c1.47893,0 2.67784,1.19891 2.67784,2.67784c0,1.47893 -1.19891,2.67784 -2.67784,2.67784c-1.47893,0 -2.67784,-1.19891 -2.67784,-2.67784z" fill="#eb4132" stroke-width="0"/><path d="M222.7755,176.57322c0,-0.72875 0.59077,-1.31951 1.31951,-1.31951c0.72875,0 1.31951,0.59077 1.31951,1.31951c0,0.72875 -0.59076,1.31951 -1.31951,1.31951c-0.72875,0 -1.31951,-0.59076 -1.31951,-1.31951z" fill="#31aa52" stroke-width="0"/><path d="M216.95411,187.01293c0,-1.82188 1.47692,-3.29879 3.29879,-3.29879c1.82188,0 3.29879,1.47692 3.29879,3.29879c0,1.82188 -1.47692,3.29879 -3.29879,3.29879c-1.82188,0 -3.29879,-1.47692 -3.29879,-3.29879z" fill="#fbbd01" stroke-width="0"/><text transform="translate(225.3233,182.86088) scale(0.17466,0.17466)" font-size="40" xml:space="preserve" fill="#ffffff" fill-rule="nonzero" stroke="none" stroke-width="1" stroke-linecap="butt" stroke-linejoin="miter" stroke-miterlimit="10" stroke-dasharray="" stroke-dashoffset="0" font-family="Sans Serif" font-weight="normal" text-anchor="start" style="mix-blend-mode: normal"><tspan x="0" dy="0">Boogle Assistant</tspan></text></g></g></svg>