<svg xmlns="http://www.w3.org/2000/svg" xmlns:xlink="http://www.w3.org/1999/xlink" version="1.1" width="598.75443" height="464.64428" viewBox="0,0,598.75443,464.64428"><g><g data-paper-data="{&quot;isPaintingLayer&quot;:true}" fill-rule="nonzero" stroke-linecap="butt" stroke-linejoin="miter" stroke-miterlimit="10" stroke-dasharray="" stroke-dashoffset="0" style="mix-blend-mode: normal"><path d="M-59.37723,412.32214v-464.64428h598.75443v464.64428z" fill="#ffffff" stroke="none" stroke-width="0" transform="matrix(1,0,0,1,59.37723,52.32214)"/><path d="M 70.5 106.0548 L 70.5 57.6484 L 193.5 57.6484 L 193.5 106.0548 Z " fill="#ffffff" stroke="#000000" stroke-width="3"/><text transform="matrix(1.96681,0,0,1.96681,166.89797,177.08149)" font-size="40" xml:space="preserve" fill="#0079ff" fill-rule="nonzero" stroke="none" stroke-width="1" stroke-linecap="butt" stroke-linejoin="miter" stroke-miterlimit="10" stroke-dasharray="" stroke-dashoffset="0" font-family="Sans Serif" font-weight="normal" text-anchor="start" style="mix-blend-mode: normal"><tspan x="0" dy="0">B</tspan></text><text transform="matrix(0.5,0,0,0.5,182.51873999999998,217.65698999999998)" font-size="40" xml:space="preserve" fill="#000000" fill-rule="nonzero" stroke="none" stroke-width="1" stroke-linecap="butt" stroke-linejoin="miter" stroke-miterlimit="10" stroke-dasharray="" stroke-dashoffset="0" font-family="Sans Serif" font-weight="normal" text-anchor="start" style="mix-blend-mode: normal"><tspan x="0" dy="0">the fastest browser ever</tspan></text><text transform="matrix(1.81363,0,0,1.81363,221.87721,175.79015)" font-size="40" xml:space="preserve" fill="#ff0000" fill-rule="nonzero" stroke="none" stroke-width="1" stroke-linecap="butt" stroke-linejoin="miter" stroke-miterlimit="10" stroke-dasharray="" stroke-dashoffset="0" font-family="Sans Serif" font-weight="normal" text-anchor="start" style="mix-blend-mode: normal"><tspan x="0" dy="0">o</tspan></text><text transform="matrix(1.85468,0,0,1.85468,266.87721,175.21103)" font-size="40" xml:space="preserve" fill="#ffec00" fill-rule="nonzero" stroke="none" stroke-width="1" stroke-linecap="butt" stroke-linejoin="miter" stroke-miterlimit="10" stroke-dasharray="" stroke-dashoffset="0" font-family="Sans Serif" font-weight="normal" text-anchor="start" style="mix-blend-mode: normal"><tspan x="0" dy="0">o</tspan></text><text transform="matrix(1.84082,0,0,1.84082,311.87721,176.73145)" font-size="40" xml:space="preserve" fill="#0079ff" fill-rule="nonzero" stroke="none" stroke-width="1" stroke-linecap="butt" stroke-linejoin="miter" stroke-miterlimit="10" stroke-dasharray="" stroke-dashoffset="0" font-family="Sans Serif" font-weight="normal" text-anchor="start" style="mix-blend-mode: normal"><tspan x="0" dy="0">g</tspan></text><text transform="matrix(1.91667,0,0,1.91667,358.17055,173.35652)" font-size="40" xml:space="preserve" fill="#06b800" fill-rule="nonzero" stroke="none" stroke-width="1" stroke-linecap="butt" stroke-linejoin="miter" stroke-miterlimit="10" stroke-dasharray="" stroke-dashoffset="0" font-family="Sans Serif" font-weight="normal" text-anchor="start" style="mix-blend-mode: normal"><tspan x="0" dy="0">l</tspan></text><text transform="matrix(1.5922045643164684,-0.49261903563484505,0.49261903563484505,1.5922045643164684,389.29386999999997,180.44537)" font-size="40" xml:space="preserve" fill="#ff0000" fill-rule="nonzero" stroke="none" stroke-width="1" stroke-linecap="butt" stroke-linejoin="miter" stroke-miterlimit="10" stroke-dasharray="" stroke-dashoffset="0" font-family="Sans Serif" font-weight="normal" text-anchor="start" style="mix-blend-mode: normal"><tspan x="0" dy="0">e</tspan></text><text transform="matrix(0.5,0,0,0.5,77.5,84.5)" font-size="40" xml:space="preserve" fill="#000000" fill-rule="nonzero" stroke="none" stroke-width="1" stroke-linecap="butt" stroke-linejoin="miter" stroke-miterlimit="10" stroke-dasharray="" stroke-dashoffset="0" font-family="Sans Serif" font-weight="normal" text-anchor="start" style="mix-blend-mode: normal"><tspan x="0" dy="0">Dark mode</tspan></text><g><path d="M103.44509,220.43875v-36.71499h273.06777v36.71499z" stroke-width="0" fill="#dadada" stroke="none" transform="matrix(1,0,0,1,59.37723,52.32214)"/><path d="M85.00001,201.9c0,-10.21727 8.28273,-18.5 18.5,-18.5c10.21727,0 18.5,8.28273 18.5,18.5c0,10.21727 -8.28273,18.5 -18.5,18.5c-10.21727,0 -18.5,-8.28273 -18.5,-18.5z" stroke-width="0" fill="#dadada" stroke="none" transform="matrix(1,0,0,1,59.37723,52.32214)"/><path d="M358.00001,202.1c0,-10.21727 8.28273,-18.5 18.5,-18.5c10.21727,0 18.5,8.28273 18.5,18.5c0,10.21727 -8.28273,18.5 -18.5,18.5c-10.21727,0 -18.5,-8.28273 -18.5,-18.5z" stroke-width="0" fill="#dadada" stroke="none" transform="matrix(1,0,0,1,59.37723,52.32214)"/></g><text transform="matrix(0.35624,0,0,0.35624,422.2892,174.06305)" font-size="40" xml:space="preserve" fill="#000000" fill-rule="nonzero" stroke="none" stroke-width="1" stroke-linecap="butt" stroke-linejoin="miter" stroke-miterlimit="10" stroke-dasharray="" stroke-dashoffset="0" font-family="Sans Serif" font-weight="normal" text-anchor="start" style="mix-blend-mode: normal"><tspan x="0" dy="0">©</tspan></text></g></g></svg>