<svg xmlns="http://www.w3.org/2000/svg" xmlns:xlink="http://www.w3.org/1999/xlink" version="1.1" width="142.90863" height="18.49195" viewBox="0,0,142.90863,18.49195"><g><g data-paper-data="{&quot;isPaintingLayer&quot;:true}" fill-rule="nonzero" stroke-linecap="butt" stroke-linejoin="miter" stroke-miterlimit="10" stroke-dasharray="" stroke-dashoffset="0" style="mix-blend-mode: normal"><path d="M292.95048,229.47072c0,-5.09226 4.12807,-9.22033 9.22033,-9.22033c5.09226,0 9.22033,4.12807 9.22033,9.22033c0,5.09226 -4.12807,9.22035 -9.22033,9.22035c-5.09226,0 -9.22033,-4.12809 -9.22033,-9.22035z" fill="#7c7c7c" stroke-width="0" stroke="none" transform="matrix(1,0,0,1,-168.4825,-220.22778)"/><path d="M168.55518,235.73598c0,-1.6327 1.32356,-2.95626 2.95626,-2.95626c1.6327,0 2.95626,1.32356 2.95626,2.95626c0,1.6327 -1.32356,2.95626 -2.95626,2.95626c-1.6327,0 -2.95626,-1.32356 -2.95626,-2.95626z" fill="#7c7c7c" stroke-width="0" stroke="none" transform="matrix(1,0,0,1,-168.4825,-220.22778)"/><path d="M171.21187,238.71974v-3.12201h112.20712v3.12201z" fill="#7c7c7c" stroke-width="0" stroke="none" transform="matrix(1,0,0,1,-168.4825,-220.22778)"/><path d="M280.37871,235.63841c0,-1.68717 1.36772,-3.0549 3.05491,-3.0549c1.68717,0 3.0549,1.36771 3.0549,3.05491c0,1.68717 -1.36771,3.05491 -3.0549,3.05491c-1.68717,0 -3.05491,-1.36771 -3.05491,-3.0549z" fill="#7c7c7c" stroke-width="0" stroke="none" transform="matrix(1,0,0,1,-168.4825,-220.22778)"/><path d="M171.65564,220.25527c1.75248,0 3.17313,1.42064 3.17313,3.17313c0,1.75248 -1.42066,3.17314 -3.17313,3.17314c-1.75248,0 -3.17313,-1.42065 -3.17313,-3.17313c0,-1.75248 1.42065,-3.17313 3.17314,-3.17313z" fill="#7c7c7c" stroke-width="0" stroke="none" transform="matrix(1,0,0,1,-168.4825,-220.22778)"/><path d="M283.14905,220.22779v3.12201h-110.9257v-3.12201z" fill="#7c7c7c" stroke-width="0" stroke="none" transform="matrix(1,0,0,1,-168.4825,-220.22778)"/><path d="M283.06502,220.25421c1.8506,0 3.35082,1.50019 3.35082,3.35081c0,1.8506 -1.50021,3.35082 -3.35081,3.35082c-1.8506,0 -3.35082,-1.50019 -3.35082,-3.35081c0,-1.8506 1.50021,-3.35081 3.35082,-3.35081z" fill="#7c7c7c" stroke-width="0" stroke="none" transform="matrix(1,0,0,1,-168.4825,-220.22778)"/><path d="M168.48706,236.07138v-12.11783h3.96608v12.11783z" fill="#7c7c7c" stroke-width="0" stroke="none" transform="matrix(1,0,0,1,-168.4825,-220.22778)"/><path d="M282.47219,235.78623v-11.80682h3.96608v11.80682z" fill="#7c7c7c" stroke-width="0" stroke="none" transform="matrix(1,0,0,1,-168.4825,-220.22778)"/><path d="M172.20901,236.41888v-13.44002h110.89394v13.44002z" fill="#7c7c7c" stroke-width="0" stroke="none" transform="matrix(1,0,0,1,-168.4825,-220.22778)"/><text transform="matrix(0.24445,0,0,0.24445,1.6187400000000025,12.50797)" font-size="40" xml:space="preserve" fill="#000000" fill-rule="nonzero" stroke="none" stroke-width="1" stroke-linecap="butt" stroke-linejoin="miter" stroke-miterlimit="10" stroke-dasharray="" stroke-dashoffset="0" font-family="Sans Serif" font-weight="normal" text-anchor="start" style="mix-blend-mode: normal"><tspan x="0" dy="0">password</tspan></text><g data-paper-data="{&quot;index&quot;:null}"><path d="M307.94747,228.67906v1.86482h-12.58754v-1.86482z" stroke-width="0" fill="#ffffff" stroke="none" transform="matrix(1,0,0,1,-168.4825,-220.22778)"/><path d="M307.01016,229.52533l0.95669,0.95946l-6.47639,6.45769l-0.95669,-0.95946z" stroke-width="0" fill="#ffffff" stroke="none" transform="matrix(1,0,0,1,-168.4825,-220.22778)"/><path d="M307.96686,228.83454l-0.95669,0.95946l-6.4764,-6.45771l0.95671,-0.95946z" data-paper-data="{&quot;index&quot;:null}" stroke-width="0" fill="#ffffff" stroke="none" transform="matrix(1,0,0,1,-168.4825,-220.22778)"/></g></g></g></svg>