<svg version="1.1" xmlns="http://www.w3.org/2000/svg" xmlns:xlink="http://www.w3.org/1999/xlink" width="256.76982" height="29.72182" viewBox="0,0,256.76982,29.72182"><g transform="translate(-111.61509,-165.13909)"><g data-paper-data="{&quot;isPaintingLayer&quot;:true}" fill-rule="nonzero" stroke-linecap="butt" stroke-linejoin="miter" stroke-miterlimit="10" stroke-dasharray="" stroke-dashoffset="0" style="mix-blend-mode: normal"><path d="M126.54831,194.84479v-29.66347h227.28571v29.66347z" fill="#ffffff" stroke="#000000" stroke-width="0"/><path d="M338.66309,180c0,-8.20745 6.65346,-14.86091 14.86091,-14.86091c8.20745,0 14.86091,6.65346 14.86091,14.86091c0,8.20745 -6.65346,14.86091 -14.86091,14.86091c-8.20745,0 -14.86091,-6.65346 -14.86091,-14.86091z" fill="#ffffff" stroke="#000000" stroke-width="0"/><path d="M111.61509,180c0,-8.20745 6.65345,-14.8609 14.8609,-14.8609c8.20745,0 14.86091,6.65345 14.86091,14.8609c0,8.20745 -6.65346,14.86091 -14.86091,14.86091c-8.20745,0 -14.8609,-6.65346 -14.8609,-14.86091z" fill="#ffffff" stroke="#000000" stroke-width="0"/><path d="M125.41764,182.00456v-1.74625h5.84736c0.05961,0.30768 0.09436,0.67432 0.09436,1.07078c0,1.30959 -0.35878,2.93167 -1.51238,4.08526c-1.12252,1.16945 -2.55767,1.79317 -4.45977,1.79317c-3.52431,0.00064 -6.48692,-2.86889 -6.48692,-6.39308c0,-3.52419 2.96261,-6.39307 6.48692,-6.39307c1.94904,0 3.33725,0.76386 4.38177,1.7621l-1.23158,1.23158c-0.74852,-0.70159 -1.7621,-1.24745 -3.14968,-1.24745c-2.57276,0 -4.58457,2.07396 -4.58457,4.64683c0,2.57288 2.01181,4.64685 4.58457,4.64685c1.66837,0 2.61981,-0.67066 3.22767,-1.27852c0.49576,-0.49526 0.8217,-1.20598 0.94839,-2.17821z" fill="#000000" stroke="none" stroke-width="1.03766"/></g></g></svg>