<svg xmlns="http://www.w3.org/2000/svg" xmlns:xlink="http://www.w3.org/1999/xlink" version="1.1" width="67.39325" height="16.23412" viewBox="0,0,67.39325,16.23412"><g><g data-paper-data="{&quot;isPaintingLayer&quot;:true}" fill-rule="nonzero" stroke-linecap="butt" stroke-linejoin="miter" stroke-miterlimit="10" stroke-dasharray="" stroke-dashoffset="0" style="mix-blend-mode: normal"><path d="M206.30338,180.00089c0,-4.48244 3.63373,-8.11617 8.11617,-8.11617c4.48244,0 8.11617,3.63373 8.11617,8.11617c0,4.48244 -3.63373,8.11617 -8.11617,8.11617c-4.48244,0 -8.11617,-3.63373 -8.11617,-8.11617z" fill="#000000" stroke-width="0" stroke="none" transform="matrix(1,0,0,1,-206.30337,-171.88294)"/><path d="M214.31681,188.11706v-16.23234h51.36816v16.23234z" fill="#000000" stroke-width="0" stroke="none" transform="matrix(1,0,0,1,-206.30337,-171.88294)"/><path d="M257.46429,179.99911c0,-4.48243 3.63373,-8.11617 8.11617,-8.11617c4.48243,0 8.11617,3.63374 8.11617,8.11617c0,4.48243 -3.63374,8.11617 -8.11617,8.11617c-4.48243,0 -8.11617,-3.63373 -8.11617,-8.11617z" fill="#000000" stroke-width="0" stroke="none" transform="matrix(1,0,0,1,-206.30337,-171.88294)"/><text transform="matrix(0.21857,0,0,0.21857,16.70044999999999,10.638840000000016)" font-size="40" xml:space="preserve" fill="#ffffff" fill-rule="nonzero" stroke="none" stroke-width="1" stroke-linecap="butt" stroke-linejoin="miter" stroke-miterlimit="10" stroke-dasharray="" stroke-dashoffset="0" font-family="Sans Serif" font-weight="normal" text-anchor="start" style="mix-blend-mode: normal"><tspan x="0" dy="0">sign out</tspan></text></g></g></svg>