<svg version="1.1" xmlns="http://www.w3.org/2000/svg" xmlns:xlink="http://www.w3.org/1999/xlink" width="74.60478" height="24.16972" viewBox="0,0,74.60478,24.16972"><g transform="translate(-202.69761,-167.91514)"><g data-paper-data="{&quot;isPaintingLayer&quot;:true}" fill-rule="nonzero" stroke-linecap="butt" stroke-linejoin="miter" stroke-miterlimit="10" stroke-dasharray="" stroke-dashoffset="0" style="mix-blend-mode: normal"><path d="M202.69761,180.00133c0,-6.67355 5.40998,-12.08353 12.08353,-12.08353c6.67355,0 12.08353,5.40998 12.08353,12.08353c0,6.67355 -5.40998,12.08353 -12.08353,12.08353c-6.67355,0 -12.08353,-5.40998 -12.08353,-12.08353z" fill="#000000" stroke="none" stroke-width="0"/><path d="M214.62818,192.08485v-24.16706h50.34422v24.16706z" fill="#000000" stroke="none" stroke-width="0"/><path d="M253.13533,179.99867c0,-6.67354 5.40998,-12.08353 12.08353,-12.08353c6.67354,0 12.08353,5.40999 12.08353,12.08353c0,6.67354 -5.40999,12.08353 -12.08353,12.08353c-6.67354,0 -12.08353,-5.40998 -12.08353,-12.08353z" fill="#000000" stroke="none" stroke-width="0"/><text transform="translate(234.51552,181.8002) scale(0.34113,0.34113)" font-size="22" xml:space="preserve" fill="#ffffff" fill-rule="nonzero" stroke="none" stroke-width="1" stroke-linecap="butt" stroke-linejoin="miter" stroke-miterlimit="10" stroke-dasharray="" stroke-dashoffset="0" font-family="Sans Serif" font-weight="400" text-anchor="start" style="mix-blend-mode: normal"><tspan x="0" dy="0">Camera</tspan></text><g><path d="M205.85583,179.89401c0,-5.19612 4.21229,-9.40841 9.40842,-9.40841c5.19612,0 9.40842,4.21229 9.40842,9.40841c0,5.19612 -4.21229,9.40842 -9.40842,9.40842c-5.19612,0 -9.40842,-4.21229 -9.40842,-9.40842z" fill="#0e6be6" stroke="none" stroke-width="0"/><path d="M209.68475,177.59148l3.50659,-4.02329h3.98183l3.42134,3.90382z" fill="#8ab4f8" stroke="none" stroke-width="0"/><path d="M209.32762,184.41451c0,-1.99063 0,-7.06908 0,-8.17103c0,-0.41236 0.4198,-0.80361 0.90903,-0.80361c0.50863,0 1.73633,0 3.19376,0c2.42382,0 5.48303,0 6.92672,0c0.51639,0 0.82609,0.39127 0.82609,0.80361c0,1.05859 0,5.78695 0,7.92216c0,0.6443 -0.55688,1.05249 -0.95053,1.05249c-1.25303,0 -7.83294,0 -10.12047,0c-0.4913,0 -0.78461,-0.3049 -0.78461,-0.80361z" fill="#ffffff" stroke="none" stroke-width="0"/><path d="M212.24848,180.38765c0,-1.66558 1.35021,-3.01578 3.01578,-3.01578c1.66558,0 3.01578,1.35021 3.01578,3.01578c0,1.66558 -1.35021,3.01578 -3.01578,3.01578c-1.66558,0 -3.01578,-1.35021 -3.01578,-3.01578z" fill="#0e6be6" stroke="#8ab4f8" stroke-width="1"/><path d="M219.02525,176.79934c0,-0.3229 0.26175,-0.58466 0.58465,-0.58466c0.3229,0 0.58466,0.26176 0.58466,0.58466c0,0.3229 -0.26176,0.58466 -0.58466,0.58466c-0.3229,0 -0.58465,-0.26176 -0.58465,-0.58466z" fill="#7cf7f7" stroke="none" stroke-width="0"/></g></g></g></svg>