<svg version="1.1" xmlns="http://www.w3.org/2000/svg" xmlns:xlink="http://www.w3.org/1999/xlink" width="37.84727" height="40.23301" viewBox="0,0,37.84727,40.23301"><g transform="translate(-219.8842,-162.15501)"><g data-paper-data="{&quot;isPaintingLayer&quot;:true}" fill-rule="nonzero" stroke-linecap="butt" stroke-linejoin="miter" stroke-miterlimit="10" stroke-dasharray="" stroke-dashoffset="0" style="mix-blend-mode: normal"><text transform="translate(220.11066,199.13972) scale(0.45292,0.45292)" font-size="22" xml:space="preserve" fill="#ffffff" fill-rule="nonzero" stroke="none" stroke-width="1" stroke-linecap="butt" stroke-linejoin="miter" stroke-miterlimit="10" stroke-dasharray="" stroke-dashoffset="0" font-family="Sans Serif" font-weight="400" text-anchor="start" style="mix-blend-mode: normal"><tspan x="0" dy="0">Camera</tspan></text><path d="M225.07806,176.70592c0,-8.03625 6.51468,-14.55092 14.55093,-14.55092c8.03625,0 14.55093,6.51467 14.55093,14.55092c0,8.03625 -6.51468,14.55093 -14.55093,14.55093c-8.03625,0 -14.55093,-6.51468 -14.55093,-14.55093z" fill="#0e6be6" stroke="none" stroke-width="0"/><path d="M230.99982,173.14486l5.42324,-6.22237h6.15824l5.29139,6.0376z" fill="#8ab4f8" stroke="none" stroke-width="0"/><path d="M230.44749,183.69727c0,-3.07868 0,-10.93295 0,-12.6372c0,-0.63775 0.64925,-1.24286 1.4059,-1.24286c0.78664,0 2.68538,0 4.93942,0c3.74865,0 8.47997,0 10.71276,0c0.79865,0 1.27762,0.60514 1.27762,1.24286c0,1.6372 0,8.95002 0,12.25231c0,0.99647 -0.86126,1.62777 -1.47008,1.62777c-1.93791,0 -12.11433,0 -15.65218,0c-0.75984,0 -1.21346,-0.47155 -1.21346,-1.24286z" fill="#ffffff" stroke="none" stroke-width="0"/><path d="M234.96484,177.46938c0,-2.57596 2.08821,-4.66417 4.66417,-4.66417c2.57596,0 4.66417,2.08821 4.66417,4.66417c0,2.57596 -2.08821,4.66417 -4.66417,4.66417c-2.57596,0 -4.66417,-2.08821 -4.66417,-4.66417z" fill="#0e6be6" stroke="#8ab4f8" stroke-width="1"/><path d="M245.4457,171.91974c0,-0.49939 0.40482,-0.90422 0.90421,-0.90422c0.49939,0 0.90422,0.40484 0.90422,0.90422c0,0.49939 -0.40484,0.90422 -0.90422,0.90422c-0.49939,0 -0.90421,-0.40484 -0.90421,-0.90422z" fill="#7cf7f7" stroke="none" stroke-width="0"/></g></g></svg>