<svg xmlns="http://www.w3.org/2000/svg" xmlns:xlink="http://www.w3.org/1999/xlink" version="1.1" width="77.09336" height="75.47246" viewBox="0,0,77.09336,75.47246"><g><g data-paper-data="{&quot;isPaintingLayer&quot;:true}" fill-rule="evenodd" stroke-linecap="butt" stroke-linejoin="miter" stroke-miterlimit="10" stroke-dasharray="" stroke-dashoffset="0" style="mix-blend-mode: normal"><g id="Group-3"><path d="M 69.5716 74.3387 C 52.9385 74.6816 41.021 66.7937 35.6195 56.3338 C 29.0177 43.4732 32.2758 18.3521 48.7374 16.2944 C 48.8231 14.8368 49.509 8.7494 50.4521 4.6341 L 55.8536 2.3192 C 58.8544 5.2343 59.969 12.0933 54.9105 18.0092 C 56.8824 18.7808 59.4546 22.3818 58.5114 26.4972 C 56.711 34.2135 54.3103 40.9868 57.9113 49.1319 C 60.8264 55.6479 69.1429 58.9917 74.1157 64.5646 C 80.203 71.3379 76.0876 74.0815 69.5716 74.3387 Z " id="Path" fill="#272525" stroke-width="1" stroke="none"/><path d="M 53.6244 3.7766 C 55.3392 4.8055 57.3111 7.2061 57.1396 9.1781 C 56.711 9.6925 52.5098 18.4378 53.9674 19.2094 C 57.6541 21.0956 52.1669 35.4138 54.2246 44.5877 C 57.0539 57.2768 68.0283 60.1062 72.4009 67.3081 C 74.8016 71.2521 70.429 72.2809 69.1429 72.2809 C 49.1661 71.9381 41.1925 61.135 37.9344 54.4475 C 33.6476 45.7023 36.3054 34.8994 39.9921 26.4113 C 40.7638 24.6966 42.7357 21.5243 44.1075 20.2382 C 46.3367 18.352 46.8511 18.1805 49.7662 17.9233 C 50.1949 17.8376 53.6244 3.7766 53.6244 3.7766 Z " id="ID0.006342989392578602" fill="#740000" stroke-width="1" stroke="none"/><path d="M 50.1949 20.9241 C 50.3664 20.324 51.2238 20.5813 51.0523 21.0957 C 45.8223 38.5003 48.0515 54.8762 59.969 63.45 C 62.4554 65.2505 67.4281 67.3939 68.5427 67.8227 C 69.7431 68.2512 68.7999 68.9372 67.6854 68.5943 C 66.6565 68.2513 65.7991 67.9084 64.2559 67.2225 C 51.3952 61.3923 40.5923 51.8755 50.1949 20.9241 Z " id="ID0.5267163878306746" fill="#272525" stroke-width="1" stroke="none"/></g><g id="Group-2"><path d="M 51.7382 16.8945 C 53.4529 18.1805 54.6533 22.5532 52.2526 26.1541 C 47.7943 32.8417 43.1644 38.4146 43.5931 47.2456 C 43.9361 54.276 50.5379 60.1919 53.2815 67.0509 C 56.5395 75.4532 51.6524 76.6535 45.3936 74.5958 C 29.7036 69.4516 21.3014 58.1342 19.9296 46.5597 C 18.3006 32.3272 30.3038 9.864 46.5939 13.2935 C 47.537 11.2358 53.4529 -0.253 55.2534 0.0042 C 60.2262 0.6901 62.7983 12.3504 51.7382 16.8945 Z " id="Path" fill="#272525" stroke-width="1" stroke="none"/><path d="M 55.6821 3.0907 C 57.5683 3.9481 58.9401 5.8343 57.0539 9.3496 C 55.8536 11.5788 49.3375 16.5515 50.4521 17.7519 C 53.2815 20.7527 42.993 32.413 41.6212 41.6727 C 39.8207 54.5333 49.0803 60.7921 50.6236 68.9372 C 51.481 73.3956 47.0226 72.9668 45.8223 72.5382 C 27.2173 65.6791 23.5305 52.9042 22.8446 45.5308 C 21.9873 35.8425 28.2461 26.6686 34.7622 19.8096 C 36.0482 18.4378 39.049 16.0371 40.8495 15.3512 C 43.5931 14.2366 43.5074 12.5219 46.3367 13.2935 C 46.7654 13.465 55.6821 3.0907 55.6821 3.0907 Z " id="ID0.19106093607842922" fill="#740000" stroke-width="1" stroke="none"/><path d="M 46.3367 18.1805 C 46.7654 17.6661 47.4513 18.1805 47.1084 18.6092 C 35.9625 33.2703 32.2758 49.3033 40.3351 61.3922 C 42.0498 63.9644 45.908 67.5653 46.8511 68.2512 C 47.7943 69.023 46.3367 70.1376 45.4793 69.4517 C 44.622 68.7657 43.3359 67.8227 42.2213 66.7081 C 32.19 56.8483 26.2741 44.0734 46.3367 18.1806 Z " id="ID0.6718006273731589" fill="#272525" stroke-width="1" stroke="none"/></g><g id="Group"><path d="M 45.6508 14.6653 C 46.251 16.7231 45.0507 20.6669 41.4497 22.6389 C 34.2477 26.6686 28.5033 30.0123 24.5594 38.0717 C 21.4728 44.502 23.2733 52.047 22.3302 59.3346 C 21.1299 68.2512 14.0137 66.1079 9.4696 61.478 C -1.9335 49.9034 -1.5905 37.1285 2.9535 26.3256 C 8.5265 13.0363 30.1323 -1.4532 42.8215 8.921 C 44.622 7.5491 55.4249 0.0043 56.9682 1.0331 C 60.9978 3.8624 57.2254 15.3512 45.6508 14.6653 Z " id="Path" fill="#272525" stroke-width="1" stroke="none"/><path d="M 55.7678 4.0339 C 56.1965 5.9201 55.5964 8.9209 53.8816 10.207 C 52.3383 11.3215 47.1084 13.465 44.1075 13.7222 C 45.1364 17.6661 30.2181 24.2679 24.4737 31.8128 C 16.5858 42.2728 21.6443 52.0469 18.9865 59.9347 C 17.5289 64.2216 13.8422 61.9067 12.9848 60.8778 C -0.0473 46.4739 2.9535 33.4418 5.9544 26.6686 C 9.8983 17.7519 20.0153 12.4361 29.0177 9.3496 C 30.8182 8.7494 34.6764 7.9778 36.5626 8.1493 C 39.5635 8.4065 40.0779 8.7494 42.1356 10.6356 C 42.5643 10.9786 55.4249 2.4048 55.7678 4.0339 Z " id="ID0.7287357193417847" fill="#740000" stroke-width="1" stroke="none"/><path d="M 40.0779 13.1221 C 40.678 12.8648 41.021 13.6365 40.5923 13.808 C 23.6163 21.6959 12.3847 34.2135 13.6707 48.5317 C 13.9279 51.5325 15.557 56.4196 16.0714 57.5342 C 16.5858 58.6487 15.2997 58.4772 14.9568 57.4484 C 14.5281 56.4196 14.1852 55.6479 13.7565 54.1046 C 9.6411 40.9868 9.7268 26.9258 40.0779 13.1221 Z " id="ID0.7101516453549266" fill="#272525" stroke-width="1" stroke="none"/></g></g></g></svg>