<svg version="1.1" xmlns="http://www.w3.org/2000/svg" xmlns:xlink="http://www.w3.org/1999/xlink" width="587" height="439.03647" viewBox="0,0,587,439.03647"><g transform="translate(66.75945,-25.76354)"><g data-paper-data="{&quot;isPaintingLayer&quot;:true}" fill-rule="nonzero" stroke-linecap="butt" stroke-linejoin="miter" stroke-miterlimit="10" stroke-dasharray="" stroke-dashoffset="0" style="mix-blend-mode: normal"><path d="M-66.75945,464.80001v-141h587v141z" fill="#00ff6b" stroke="none" stroke-width="0"/><path d="M135.99999,436.99997v-169h27v169z" data-paper-data="{&quot;origPos&quot;:null}" fill="#cccccc" stroke="#000000" stroke-width="1.5"/><path d="M210.99999,379.21667v-123h27v123z" fill="#cccccc" stroke="#000000" stroke-width="1.5"/><path d="M281.99999,390.21667v-184h29v184z" data-paper-data="{&quot;origPos&quot;:null}" fill="#cccccc" stroke="#000000" stroke-width="1.5"/><path d="M350.99999,366.21667v-235h30v235z" fill="#cccccc" stroke="#000000" stroke-width="1.5"/><path d="M427.99999,374.21667v-156h22v156z" fill="#cccccc" stroke="#000000" stroke-width="1.5"/><path d="M-21.24341,335.08117c-1.5812,-4.7435 3.1623,-6.3246 3.1623,-6.3246c6.2961,-1.9854 13.0129,-1.2566 19.5811,-1.2566c0.0946,0 0.1894,-0.0002 0.2844,-0.0007c-2.7157,0.8182 -5.6384,1.5818 -8.1112,2.762c-2.3326,1.1132 -5.2545,1.6638 -6.7912,3.742c-1.0282,1.3905 -2.0984,2.8916 -3.0011,4.467c-1.5141,0.1372 -4.0496,-0.1651 -5.1243,-3.3891z" fill="#00ff6b" stroke="none" stroke-width="0.5"/><path d="M-43.00001,317.99996h169v41h-169z" fill="#cccccc" stroke="#000000" stroke-width="1.5"/><text transform="translate(15,47.21666) scale(0.5,0.5)" font-size="40" xml:space="preserve" data-paper-data="{&quot;origPos&quot;:null}" fill="#000000" fill-rule="nonzero" stroke="none" stroke-width="1" stroke-linecap="butt" stroke-linejoin="miter" stroke-miterlimit="10" stroke-dasharray="" stroke-dashoffset="0" font-family="Sans Serif" font-weight="normal" text-anchor="start" style="mix-blend-mode: normal"><tspan x="0" dy="0">the art of jumping</tspan></text></g></g></svg>