<svg version="1.1" xmlns="http://www.w3.org/2000/svg" xmlns:xlink="http://www.w3.org/1999/xlink" width="65.87378" height="39.42104" viewBox="0,0,65.87378,39.42104"><g transform="translate(-207.16648,-162.85578)"><g data-paper-data="{&quot;isPaintingLayer&quot;:true}" fill-rule="nonzero" stroke="none" stroke-linecap="butt" stroke-linejoin="miter" stroke-miterlimit="10" stroke-dasharray="" stroke-dashoffset="0" style="mix-blend-mode: normal"><path d="M222.91938,172.82043c0,-5.50333 4.46132,-9.96465 9.96465,-9.96465c5.50333,0 9.96465,4.46132 9.96465,9.96465c0,5.50333 -4.46132,9.96465 -9.96465,9.96465c-5.50333,0 -9.96465,-4.46132 -9.96465,-9.96465z" fill="#4086f4" stroke-width="0"/><path d="M243.27727,177.90991c0,-2.04155 1.65501,-3.69656 3.69656,-3.69656c2.04155,0 3.69656,1.65501 3.69656,3.69656c0,2.04155 -1.65501,3.69656 -3.69656,3.69656c-2.04155,0 -3.69656,-1.65501 -3.69656,-3.69656z" fill="#eb4132" stroke-width="0"/><path d="M250.34896,173.14187c0,-1.00598 0.81552,-1.8215 1.8215,-1.8215c1.00598,0 1.8215,0.81552 1.8215,1.8215c0,1.00598 -0.8155,1.8215 -1.8215,1.8215c-1.00598,0 -1.8215,-0.8155 -1.8215,-1.8215z" fill="#31aa52" stroke-width="0"/><path d="M242.31295,187.55312c0,-2.51496 2.03878,-4.55374 4.55374,-4.55374c2.51496,0 4.55374,2.03878 4.55374,4.55374c0,2.51496 -2.03878,4.55374 -4.55374,4.55374c-2.51496,0 -4.55374,-2.03878 -4.55374,-4.55374z" fill="#fbbd01" stroke-width="0"/><text transform="translate(207.26946,199.58206) scale(0.20596,0.21558)" font-size="40" xml:space="preserve" fill="#ffffff" fill-rule="nonzero" stroke="none" stroke-width="1" stroke-linecap="butt" stroke-linejoin="miter" stroke-miterlimit="10" stroke-dasharray="" stroke-dashoffset="0" font-family="Sans Serif" font-weight="normal" text-anchor="start" style="mix-blend-mode: normal"><tspan x="0" dy="0">Boogle Assistant</tspan></text></g></g></svg>