<svg version="1.1" xmlns="http://www.w3.org/2000/svg" xmlns:xlink="http://www.w3.org/1999/xlink" width="544.75" height="581.7167" viewBox="0,0,544.75,581.7167"><g transform="translate(7.75,103.75)"><g data-paper-data="{&quot;isPaintingLayer&quot;:true}" fill-rule="nonzero" stroke-linecap="butt" stroke-linejoin="miter" stroke-miterlimit="10" stroke-dasharray="" stroke-dashoffset="0" style="mix-blend-mode: normal"><path d="M-7,388.2167v-65h71v65z" data-paper-data="{&quot;origPos&quot;:null}" fill="#cccccc" stroke="#000000" stroke-width="1.5"/><path d="M108,477.2167v-233h27v233z" fill="#cccccc" stroke="#000000" stroke-width="1.5"/><path d="M121,296.2167v-27h78v27z" fill="#cccccc" stroke="#000000" stroke-width="1.5"/><path d="M197,391.2167v-194h23v194z" fill="#cccccc" stroke="#000000" stroke-width="1.5"/><path d="M261,392.2167v-266h19v266z" fill="#cccccc" stroke="#000000" stroke-width="1.5"/><path d="M325,383.2167v-318h23v318z" fill="#cccccc" stroke="#000000" stroke-width="1.5"/><path d="M336,127.2167v-15h39v15z" data-paper-data="{&quot;origPos&quot;:null}" fill="#cccccc" stroke="#000000" stroke-width="1.5"/><path d="M422,312.2167v-415.2167h15v415.2167z" data-paper-data="{&quot;origPos&quot;:null}" fill="#cccccc" stroke="#000000" stroke-width="1.5"/><path d="M392,201.2167v-20h41v20z" data-paper-data="{&quot;origPos&quot;:null}" fill="#cccccc" stroke="#000000" stroke-width="1.5"/><path d="M338,269.2167v-18h35v18z" data-paper-data="{&quot;origPos&quot;:null}" fill="#cccccc" stroke="#000000" stroke-width="1.5"/><path d="M342,450.2167v-97h180v97z" data-paper-data="{&quot;origPos&quot;:null}" fill="#cccccc" stroke="#000000" stroke-width="1.5"/><path d="M114,316.21666v-48h20v48z" fill="#cccccc" stroke="none" stroke-width="0"/><path d="M194,294.21666v-24h24v24z" fill="#cccccc" stroke="none" stroke-width="0"/><path d="M335,296.21666v-188h11v188z" fill="#cccccc" stroke="none" stroke-width="0"/><path d="M423,247.21666v-70h11v70z" fill="#cccccc" stroke="none" stroke-width="0"/><path d="M330,370.21666v-19h18v19z" fill="#cccccc" stroke="none" stroke-width="0"/><text transform="translate(19,37.21666) scale(0.5,0.5)" font-size="40" xml:space="preserve" data-paper-data="{&quot;origPos&quot;:null}" fill="#000000" fill-rule="nonzero" stroke="none" stroke-width="1" stroke-linecap="butt" stroke-linejoin="miter" stroke-miterlimit="10" stroke-dasharray="" stroke-dashoffset="0" font-family="Sans Serif" font-weight="normal" text-anchor="start" style="mix-blend-mode: normal"><tspan x="0" dy="0">You've Almost </tspan><tspan x="0" dy="46.15px">Made It!</tspan></text><path d="M65,397.21666v-58h42v58z" fill="#00ff6b" stroke="none" stroke-width="0"/><path d="M136,384.21666v-87h60v87z" fill="#00ff6b" stroke="none" stroke-width="0"/><path d="M221,387.21666v-150h39v150z" fill="#00ff6b" stroke="none" stroke-width="0"/><path d="M281,370.21666v-222h43v222z" fill="#00ff6b" stroke="none" stroke-width="0"/><path d="M438,263.21666v-341h99v341z" fill="#00ff6b" stroke="none" stroke-width="0"/><path d="M433,276.2167v-15h69v15z" fill="#cccccc" stroke="#000000" stroke-width="1.5"/><path d="M428,288.21666v-30h8v30z" data-paper-data="{&quot;origPos&quot;:null}" fill="#cccccc" stroke="none" stroke-width="0"/></g></g></svg>