<svg xmlns="http://www.w3.org/2000/svg" xmlns:xlink="http://www.w3.org/1999/xlink" version="1.1" width="1082" height="527" viewBox="0,0,1082,527"><g><g data-paper-data="{&quot;isPaintingLayer&quot;:true}" fill-rule="nonzero" stroke-linecap="butt" stroke-linejoin="miter" stroke-miterlimit="10" stroke-dasharray="" stroke-dashoffset="0" style="mix-blend-mode: normal"><path d="M-301,443.5v-527h1082v527z" fill="#144856" stroke-width="0" stroke="none" transform="matrix(1,0,0,1,301,83.5)"/><path d="M87.57815,67v-8h8v8z" fill="#ffffff" stroke-width="0" stroke="none" transform="matrix(1,0,0,1,301,83.5)"/><path d="M262.07813,142v-8h8v8z" fill="#ffffff" stroke-width="0" stroke="none" transform="matrix(1,0,0,1,301,83.5)"/><path d="M76.07815,191v-8h8v8z" fill="#ffffff" stroke-width="0" stroke="none" transform="matrix(1,0,0,1,301,83.5)"/><path d="M310.59315,41.5v-8h8v8z" fill="#ffffff" stroke-width="0" stroke="none" transform="matrix(1,0,0,1,301,83.5)"/><path d="M145.57815,144.5v-8h8v8z" fill="#ffffff" stroke-width="0" stroke="none" transform="matrix(1,0,0,1,301,83.5)"/><path d="M445.07816,142.5v-8h8v8z" fill="#ffffff" stroke-width="0" stroke="none" transform="matrix(1,0,0,1,301,83.5)"/><path d="M218.57664,69v-8h8v8z" fill="#ffffff" stroke-width="0" stroke="none" transform="matrix(1,0,0,1,301,83.5)"/></g></g></svg>