<svg xmlns="http://www.w3.org/2000/svg" xmlns:xlink="http://www.w3.org/1999/xlink" version="1.1" width="23.18981" height="337.48927" viewBox="0,0,23.18981,337.48927"><g><g data-paper-data="{&quot;isPaintingLayer&quot;:true}" fill-rule="nonzero" stroke-linecap="butt" stroke-linejoin="miter" stroke-miterlimit="10" stroke-dasharray="" stroke-dashoffset="0" style="mix-blend-mode: normal"><path d="M237.0572,29.08911v-19.4h6.6v19.4z" fill="#35c600" stroke-width="0" stroke="none" transform="matrix(1,0,0,1,-228.4051,2.1109)"/><path d="M228.40511,335.37837v-298.0882h23.14286v298.0882z" fill="#804000" stroke-width="0" stroke="none" transform="matrix(1,0,0,1,-228.4051,2.1109)"/><path d="M228.41637,40.11819v-17.4454h23.17855v17.4454z" fill="#42ff00" stroke-width="0" stroke="none" transform="matrix(1,0,0,1,-228.4051,2.1109)"/><path d="M228.41637,44.05472v-5.9454h23.14838v5.9454z" fill="#592d00" stroke-width="0" stroke="none" transform="matrix(1,0,0,1,-228.4051,2.1109)"/><path d="M233.45723,11.48911v-13.6h13.6v13.6z" fill="#fff700" stroke-width="0" stroke="none" transform="matrix(1,0,0,1,-228.4051,2.1109)"/><path d="M237.0572,15.25578v-3.56667h6.6v3.56667z" fill="#289500" stroke-width="0" stroke="none" transform="matrix(1,0,0,1,-228.4051,2.1109)"/></g></g></svg>