<svg xmlns="http://www.w3.org/2000/svg" xmlns:xlink="http://www.w3.org/1999/xlink" version="1.1" width="556.62341" height="386.34226" viewBox="0,0,556.62341,386.34226"><g><g data-paper-data="{&quot;isPaintingLayer&quot;:true}" fill-rule="nonzero" stroke-linecap="butt" stroke-linejoin="miter" stroke-miterlimit="10" stroke-dasharray="" stroke-dashoffset="0" style="mix-blend-mode: normal"><path d="M-4.43542,386.34226v-44.66731h556.62341v44.66731z" fill="#000000" stroke-width="0" stroke="none" transform="matrix(1,0,0,1,4.43542,0)"/><path d="M103.22426,343.86711v-262.27729h62.99236v262.27729z" fill="#000000" stroke-width="0" stroke="none" transform="matrix(1,0,0,1,4.43542,0)"/><path d="M165.0713,342.72179v-246.24286h11.45316v246.24286z" fill="#ff0000" stroke-width="0" stroke="none" transform="matrix(1,0,0,1,4.43542,0)"/><path d="M252.11529,222.19124v-222.19124h22.90631v222.19124z" fill="#000000" stroke-width="0" stroke="none" transform="matrix(1,0,0,1,4.43542,0)"/><path d="M358.62965,345.41114v-281.74765h25.19695v281.74765z" fill="#000000" stroke-width="0" stroke="none" transform="matrix(1,0,0,1,4.43542,0)"/><path d="M239.51682,225.72566v-225.62718h14.8891v225.62718z" fill="#ff0000" stroke-width="0" stroke="none" transform="matrix(1,0,0,1,4.43542,0)"/><path d="M380.39065,343.69317v-277.16639h13.74379v277.16639z" fill="#ff0000" stroke-width="0" stroke="none" transform="matrix(1,0,0,1,4.43542,0)"/><path d="M470.77514,258.65348v-258.55501h28.82378v258.55501z" fill="#ff0000" stroke-width="0" stroke="none" transform="matrix(1,0,0,1,4.43542,0)"/></g></g></svg>