<svg xmlns="http://www.w3.org/2000/svg" xmlns:xlink="http://www.w3.org/1999/xlink" version="1.1" width="556.62341" height="377.59226" viewBox="0,0,556.62341,377.59226"><g><g data-paper-data="{&quot;isPaintingLayer&quot;:true}" fill-rule="nonzero" stroke-linecap="butt" stroke-linejoin="miter" stroke-miterlimit="10" stroke-dasharray="" stroke-dashoffset="0" style="mix-blend-mode: normal"><path d="M-4.43542,386.34226v-44.66731h556.62341v44.66731z" fill="#000000" stroke="none" stroke-width="0" transform="matrix(1,0,0,1,4.43542,-8.75)"/><path d="M 121.5 339.0923 L 121.5 115.0923 L 191.5 115.0923 L 191.5 339.0923 Z " fill="#000000" stroke="#000000" stroke-width="0.5"/><path d="M 320.5 341.25 L 320.5 211.25 L 378.5 211.25 L 378.5 341.25 Z " fill="#000000" stroke="#000000" stroke-width="0.5"/><path d="M 316.5 127.25 L 316.5 0.25 L 385.5 0.25 L 385.5 127.25 Z " fill="#000000" stroke="#000000" stroke-width="0.5"/><path d="M 188.5 343.0923 L 188.5 120.0923 L 208.5 120.0923 L 208.5 343.0923 Z " fill="#ff0000" stroke="#000000" stroke-width="0.5"/><path d="M307.06458,339.84226v-116h20v116z" fill="#ff0000" stroke="none" stroke-width="0" transform="matrix(1,0,0,1,4.43542,-8.75)"/><path d="M183.06458,352.84226v-225h28v225z" fill="#ff0000" stroke="none" stroke-width="0" transform="matrix(1,0,0,1,4.43542,-8.75)"/><path d="M305.06458,132.84226v-63h29v63z" fill="#ff0000" stroke="none" stroke-width="0" transform="matrix(1,0,0,1,4.43542,-8.75)"/></g></g></svg>